Dotak-LightExtended-1.ufo
<glyph name="exclam" format="1">
  <advance width="287"/>
  <unicode hex="0021"/>
  <outline>
    <contour>
      <point x="152" y="148" type="line"/>
      <point x="157" y="271" type="line" smooth="yes"/>
      <point x="161" y="423"/>
      <point x="175" y="525"/>
      <point x="175" y="542" type="curve"/>
      <point x="175" y="560"/>
      <point x="166" y="574"/>
      <point x="144" y="574" type="curve"/>
      <point x="122" y="574"/>
      <point x="114" y="560"/>
      <point x="114" y="542" type="curve"/>
      <point x="114" y="525"/>
      <point x="126" y="424"/>
      <point x="131" y="271" type="curve" smooth="yes"/>
      <point x="135" y="148" type="line"/>
    </contour>
    <contour>
      <point x="112" y="53"/>
      <point x="94" y="40"/>
      <point x="94" y="21" type="curve"/>
      <point x="94" y="3"/>
      <point x="112" y="-11"/>
      <point x="144" y="-11" type="curve"/>
      <point x="176" y="-11"/>
      <point x="192" y="3"/>
      <point x="192" y="21" type="curve"/>
      <point x="192" y="40"/>
      <point x="176" y="53"/>
      <point x="144" y="53" type="curve"/>
    </contour>
  </outline>
</glyph>
<glyph name="quotedbl" format="1">
  <advance width="432"/>
  <unicode hex="0022"/>
  <outline>
    <contour>
      <point x="125" y="360" type="line"/>
      <point x="141" y="358" type="line"/>
      <point x="187" y="556" type="line"/>
      <point x="151" y="562" type="line"/>
    </contour>
    <contour>
      <point x="276" y="360" type="line"/>
      <point x="292" y="358" type="line"/>
      <point x="337" y="556" type="line"/>
      <point x="301" y="562" type="line"/>
    </contour>
  </outline>
</glyph>
<glyph name="numbersign" format="1">
  <advance width="1041"/>
  <unicode hex="0023"/>
  <outline>
    <contour>
      <point x="847" y="647" type="line"/>
      <point x="814" y="647" type="line"/>
      <point x="580" y="0" type="line"/>
      <point x="612" y="0" type="line"/>
    </contour>
    <contour>
      <point x="460" y="647" type="line"/>
      <point x="427" y="647" type="line"/>
      <point x="191" y="0" type="line"/>
      <point x="223" y="0" type="line"/>
    </contour>
    <contour>
      <point x="91" y="438" type="line"/>
      <point x="1014" y="438" type="line"/>
      <point x="1014" y="469" type="line"/>
      <point x="91" y="469" type="line"/>
    </contour>
    <contour>
      <point x="26" y="200" type="line"/>
      <point x="949" y="200" type="line"/>
      <point x="949" y="231" type="line"/>
      <point x="26" y="231" type="line"/>
    </contour>
  </outline>
</glyph>
<glyph name="dollar" format="1">
  <advance width="821"/>
  <unicode hex="0024"/>
  <outline>
    <contour>
      <point x="659" y="-27"/>
      <point x="753" y="12"/>
      <point x="753" y="87" type="curve" smooth="yes"/>
      <point x="753" y="167"/>
      <point x="655" y="195"/>
      <point x="426" y="213" type="curve" smooth="yes"/>
      <point x="211" y="230"/>
      <point x="136" y="259"/>
      <point x="136" y="316" type="curve" smooth="yes"/>
      <point x="136" y="378"/>
      <point x="217" y="407"/>
      <point x="327" y="407" type="curve" smooth="yes"/>
      <point x="485" y="407"/>
      <point x="621" y="348"/>
      <point x="718" y="255" type="curve"/>
      <point x="718" y="255" type="line"/>
      <point x="718" y="430" type="line"/>
      <point x="695" y="430" type="line"/>
      <point x="695" y="292" type="line"/>
      <point x="709" y="292" type="line"/>
      <point x="637" y="357"/>
      <point x="503" y="430"/>
      <point x="329" y="430" type="curve" smooth="yes"/>
      <point x="197" y="430"/>
      <point x="111" y="390"/>
      <point x="111" y="316" type="curve" smooth="yes"/>
      <point x="111" y="248"/>
      <point x="189" y="207"/>
      <point x="425" y="189" type="curve" smooth="yes"/>
      <point x="641" y="172"/>
      <point x="729" y="150"/>
      <point x="729" y="87" type="curve" smooth="yes"/>
      <point x="729" y="25"/>
      <point x="643" y="-4"/>
      <point x="538" y="-5" type="curve" smooth="yes"/>
      <point x="410" y="-9"/>
      <point x="206" y="52"/>
      <point x="109" y="156" type="curve"/>
      <point x="109" y="156" type="line"/>
      <point x="109" y="-27" type="line"/>
      <point x="132" y="-27" type="line"/>
      <point x="132" y="118" type="line"/>
      <point x="117" y="118" type="line"/>
      <point x="191" y="43"/>
      <point x="385" y="-32"/>
      <point x="537" y="-29" type="curve" smooth="yes"/>
    </contour>
    <contour>
      <point x="436" y="-146" type="line"/>
      <point x="436" y="-10" type="line"/>
      <point x="436" y="-1" type="line"/>
      <point x="436" y="408" type="line"/>
      <point x="436" y="416" type="line"/>
      <point x="436" y="547" type="line"/>
      <point x="413" y="547" type="line"/>
      <point x="413" y="418" type="line"/>
      <point x="413" y="410" type="line"/>
      <point x="413" y="1" type="line"/>
      <point x="413" y="-7" type="line"/>
      <point x="413" y="-146" type="line"/>
    </contour>
  </outline>
</glyph>
<glyph name="percent" format="1">
  <advance width="948"/>
  <unicode hex="0025"/>
  <outline>
    <contour>
      <point x="782" y="474" type="line"/>
      <point x="766" y="488" type="line"/>
      <point x="165" y="-18" type="line"/>
      <point x="181" y="-33" type="line"/>
    </contour>
    <contour>
      <point x="306" y="224"/>
      <point x="373" y="273"/>
      <point x="373" y="349" type="curve" smooth="yes"/>
      <point x="373" y="424"/>
      <point x="306" y="475"/>
      <point x="217" y="475" type="curve" smooth="yes"/>
      <point x="127" y="475"/>
      <point x="60" y="428"/>
      <point x="60" y="350" type="curve" smooth="yes"/>
      <point x="60" y="276"/>
      <point x="127" y="224"/>
      <point x="217" y="224" type="curve" smooth="yes"/>
    </contour>
    <contour>
      <point x="139" y="246"/>
      <point x="84" y="290"/>
      <point x="84" y="350" type="curve" smooth="yes"/>
      <point x="84" y="412"/>
      <point x="139" y="453"/>
      <point x="217" y="453" type="curve" smooth="yes"/>
      <point x="295" y="453"/>
      <point x="350" y="409"/>
      <point x="350" y="349" type="curve" smooth="yes"/>
      <point x="350" y="287"/>
      <point x="295" y="246"/>
      <point x="217" y="246" type="curve" smooth="yes"/>
    </contour>
    <contour>
      <point x="821" y="-19"/>
      <point x="888" y="28"/>
      <point x="888" y="106" type="curve" smooth="yes"/>
      <point x="888" y="179"/>
      <point x="821" y="232"/>
      <point x="732" y="232" type="curve" smooth="yes"/>
      <point x="642" y="232"/>
      <point x="575" y="184"/>
      <point x="575" y="107" type="curve" smooth="yes"/>
      <point x="575" y="32"/>
      <point x="642" y="-19"/>
      <point x="732" y="-19" type="curve" smooth="yes"/>
    </contour>
    <contour>
      <point x="653" y="2"/>
      <point x="598" y="47"/>
      <point x="598" y="107" type="curve" smooth="yes"/>
      <point x="598" y="168"/>
      <point x="653" y="209"/>
      <point x="732" y="209" type="curve" smooth="yes"/>
      <point x="809" y="209"/>
      <point x="864" y="166"/>
      <point x="864" y="106" type="curve" smooth="yes"/>
      <point x="864" y="43"/>
      <point x="809" y="2"/>
      <point x="732" y="2" type="curve" smooth="yes"/>
    </contour>
  </outline>
</glyph>
<glyph name="ampersand" format="1">
  <advance width="968"/>
  <unicode hex="0026"/>
  <outline>
    <contour>
      <point x="646" y="-14"/>
      <point x="845" y="139"/>
      <point x="845" y="276" type="curve" smooth="yes"/>
      <point x="845" y="358"/>
      <point x="803" y="402"/>
      <point x="770" y="429" type="curve"/>
      <point x="747" y="407" type="line"/>
      <point x="780" y="375"/>
      <point x="812" y="345"/>
      <point x="812" y="277" type="curve" smooth="yes"/>
      <point x="812" y="157"/>
      <point x="634" y="14"/>
      <point x="348" y="14" type="curve" smooth="yes"/>
      <point x="150" y="14"/>
      <point x="86" y="87"/>
      <point x="86" y="163" type="curve" smooth="yes"/>
      <point x="86" y="268"/>
      <point x="197" y="303"/>
      <point x="378" y="352" type="curve" smooth="yes"/>
      <point x="573" y="405"/>
      <point x="661" y="470"/>
      <point x="661" y="567" type="curve" smooth="yes"/>
      <point x="661" y="634"/>
      <point x="606" y="697"/>
      <point x="513" y="697" type="curve" smooth="yes"/>
      <point x="404" y="697"/>
      <point x="306" y="609"/>
      <point x="306" y="475" type="curve" smooth="yes"/>
      <point x="306" y="183"/>
      <point x="582" y="-13"/>
      <point x="781" y="-13" type="curve" smooth="yes"/>
      <point x="846" y="-13"/>
      <point x="890" y="-1"/>
      <point x="942" y="28" type="curve"/>
      <point x="930" y="55" type="line"/>
      <point x="884" y="28"/>
      <point x="844" y="18"/>
      <point x="781" y="18" type="curve" smooth="yes"/>
      <point x="594" y="18"/>
      <point x="339" y="204"/>
      <point x="339" y="475" type="curve" smooth="yes"/>
      <point x="339" y="609"/>
      <point x="435" y="667"/>
      <point x="513" y="667" type="curve" smooth="yes"/>
      <point x="583" y="667"/>
      <point x="628" y="622"/>
      <point x="628" y="561" type="curve" smooth="yes"/>
      <point x="628" y="493"/>
      <point x="549" y="433"/>
      <point x="374" y="382" type="curve" smooth="yes"/>
      <point x="172" y="323"/>
      <point x="53" y="285"/>
      <point x="53" y="163" type="curve" smooth="yes"/>
      <point x="53" y="61"/>
      <point x="143" y="-18"/>
      <point x="348" y="-15" type="curve" smooth="yes"/>
    </contour>
  </outline>
</glyph>
<glyph name="quotesingle" format="1">
  <advance width="222"/>
  <unicode hex="0027"/>
  <outline>
    <contour>
      <point x="85" y="475" type="line"/>
      <point x="101" y="473" type="line"/>
      <point x="147" y="671" type="line"/>
      <point x="111" y="677" type="line"/>
    </contour>
  </outline>
</glyph>
<glyph name="parenleft" format="1">
  <advance width="353"/>
  <unicode hex="0028"/>
  <outline>
    <contour>
      <point x="337" y="-98" type="line"/>
      <point x="265" y="-54"/>
      <point x="120" y="48"/>
      <point x="120" y="238" type="curve"/>
      <point x="120" y="426"/>
      <point x="265" y="530"/>
      <point x="337" y="574" type="curve"/>
      <point x="331" y="593" type="line"/>
      <point x="245" y="548"/>
      <point x="95" y="434"/>
      <point x="95" y="238" type="curve"/>
      <point x="95" y="41"/>
      <point x="245" y="-72"/>
      <point x="331" y="-118" type="curve"/>
    </contour>
  </outline>
</glyph>
<glyph name="parenright" format="1">
  <advance width="353"/>
  <unicode hex="0029"/>
  <outline>
    <contour>
      <point x="107" y="-45"/>
      <point x="258" y="68"/>
      <point x="258" y="265" type="curve"/>
      <point x="258" y="461"/>
      <point x="107" y="575"/>
      <point x="24" y="620" type="curve"/>
      <point x="15" y="601" type="line"/>
      <point x="89" y="556"/>
      <point x="233" y="453"/>
      <point x="233" y="265" type="curve"/>
      <point x="233" y="75"/>
      <point x="89" y="-27"/>
      <point x="15" y="-71" type="curve"/>
      <point x="24" y="-91" type="line"/>
    </contour>
  </outline>
</glyph>
<glyph name="asterisk" format="1">
  <advance width="443"/>
  <unicode hex="002A"/>
  <outline>
    <contour>
      <point x="332" y="410"/>
      <point x="340" y="414"/>
      <point x="345" y="418" type="curve" smooth="yes"/>
      <point x="350" y="423"/>
      <point x="352" y="429"/>
      <point x="352" y="434" type="curve" smooth="yes"/>
      <point x="352" y="461"/>
      <point x="302" y="476"/>
      <point x="271" y="507" type="curve" smooth="yes"/>
      <point x="252" y="525" type="line"/>
      <point x="242" y="518" type="line"/>
      <point x="258" y="497" type="line" smooth="yes"/>
      <point x="290" y="455"/>
      <point x="287" y="410"/>
      <point x="323" y="410" type="curve" smooth="yes"/>
    </contour>
    <contour>
      <point x="156" y="410"/>
      <point x="154" y="455"/>
      <point x="185" y="497" type="curve" smooth="yes"/>
      <point x="201" y="518" type="line"/>
      <point x="192" y="525" type="line"/>
      <point x="172" y="507" type="line" smooth="yes"/>
      <point x="141" y="476"/>
      <point x="91" y="461"/>
      <point x="91" y="434" type="curve" smooth="yes"/>
      <point x="91" y="427"/>
      <point x="94" y="421"/>
      <point x="100" y="418" type="curve" smooth="yes"/>
      <point x="106" y="413"/>
      <point x="112" y="410"/>
      <point x="120" y="410" type="curve" smooth="yes"/>
    </contour>
    <contour>
      <point x="185" y="566" type="line"/>
      <point x="160" y="575" type="line" smooth="yes"/>
      <point x="122" y="589"/>
      <point x="91" y="621"/>
      <point x="65" y="621" type="curve" smooth="yes"/>
      <point x="49" y="621"/>
      <point x="36" y="610"/>
      <point x="36" y="595" type="curve" smooth="yes"/>
      <point x="36" y="575"/>
      <point x="53" y="570"/>
      <point x="77" y="568" type="curve" smooth="yes"/>
      <point x="99" y="566"/>
      <point x="126" y="567"/>
      <point x="154" y="560" type="curve" smooth="yes"/>
      <point x="182" y="555" type="line"/>
    </contour>
    <contour>
      <point x="229" y="591" type="line"/>
      <point x="231" y="615" type="line" smooth="yes"/>
      <point x="234" y="644"/>
      <point x="252" y="684"/>
      <point x="252" y="699" type="curve" smooth="yes"/>
      <point x="252" y="711"/>
      <point x="242" y="724"/>
      <point x="223" y="725" type="curve"/>
      <point x="201" y="724"/>
      <point x="194" y="711"/>
      <point x="194" y="699" type="curve" smooth="yes"/>
      <point x="194" y="684"/>
      <point x="210" y="645"/>
      <point x="212" y="615" type="curve" smooth="yes"/>
      <point x="215" y="591" type="line"/>
    </contour>
    <contour>
      <point x="290" y="560" type="line" smooth="yes"/>
      <point x="320" y="567"/>
      <point x="350" y="566"/>
      <point x="372" y="569" type="curve" smooth="yes"/>
      <point x="392" y="571"/>
      <point x="407" y="576"/>
      <point x="407" y="595" type="curve" smooth="yes"/>
      <point x="407" y="610"/>
      <point x="395" y="621"/>
      <point x="378" y="621" type="curve" smooth="yes"/>
      <point x="352" y="621"/>
      <point x="322" y="589"/>
      <point x="284" y="575" type="curve" smooth="yes"/>
      <point x="259" y="566" type="line"/>
      <point x="262" y="555" type="line"/>
    </contour>
  </outline>
</glyph>
<glyph name="plus" format="1">
  <advance width="638"/>
  <unicode hex="002B"/>
  <outline>
    <contour>
      <point x="332" y="42" type="line"/>
      <point x="332" y="427" type="line"/>
      <point x="307" y="427" type="line"/>
      <point x="307" y="42" type="line"/>
    </contour>
    <contour>
      <point x="568" y="224" type="line"/>
      <point x="568" y="246" type="line"/>
      <point x="70" y="246" type="line"/>
      <point x="70" y="224" type="line"/>
    </contour>
  </outline>
</glyph>
<glyph name="comma" format="1">
  <advance width="268"/>
  <unicode hex="002C"/>
  <outline>
    <contour>
      <point x="194" y="-13"/>
      <point x="175" y="8"/>
      <point x="140" y="8" type="curve" smooth="yes"/>
      <point x="109" y="8"/>
      <point x="90" y="-7"/>
      <point x="90" y="-26" type="curve" smooth="yes"/>
      <point x="90" y="-46"/>
      <point x="107" y="-57"/>
      <point x="132" y="-57" type="curve" smooth="yes"/>
      <point x="147" y="-57"/>
      <point x="160" y="-56"/>
      <point x="173" y="-53" type="curve"/>
      <point x="166" y="-97"/>
      <point x="125" y="-141"/>
      <point x="74" y="-187" type="curve"/>
      <point x="85" y="-198" type="line"/>
      <point x="147" y="-149"/>
      <point x="194" y="-88"/>
      <point x="194" y="-44" type="curve" smooth="yes"/>
    </contour>
  </outline>
</glyph>
<glyph name="hyphen" format="1">
  <advance width="430"/>
  <unicode hex="002D"/>
  <outline>
    <contour>
      <point x="37" y="252" type="line"/>
      <point x="37" y="220" type="line"/>
      <point x="394" y="220" type="line"/>
      <point x="394" y="252" type="line"/>
    </contour>
  </outline>
</glyph>
<glyph name="period" format="1">
  <advance width="325"/>
  <unicode hex="002E"/>
  <outline>
    <contour>
      <point x="205" y="-13"/>
      <point x="227" y="6"/>
      <point x="227" y="29" type="curve"/>
      <point x="227" y="54"/>
      <point x="205" y="72"/>
      <point x="163" y="72" type="curve"/>
      <point x="121" y="72"/>
      <point x="98" y="54"/>
      <point x="98" y="29" type="curve"/>
      <point x="98" y="6"/>
      <point x="121" y="-13"/>
      <point x="163" y="-13" type="curve"/>
    </contour>
  </outline>
</glyph>
<glyph name="slash" format="1">
  <advance width="550"/>
  <unicode hex="002F"/>
  <outline>
    <contour>
      <point x="504" y="740" type="line"/>
      <point x="468" y="740" type="line"/>
      <point x="28" y="-105" type="line"/>
      <point x="65" y="-105" type="line"/>
    </contour>
  </outline>
</glyph>
<glyph name="zero" format="1">
  <advance width="774"/>
  <unicode hex="0030"/>
  <outline>
    <contour>
      <point x="561" y="-13"/>
      <point x="714" y="72"/>
      <point x="714" y="232" type="curve"/>
      <point x="714" y="388"/>
      <point x="561" y="479"/>
      <point x="387" y="479" type="curve"/>
      <point x="213" y="479"/>
      <point x="60" y="388"/>
      <point x="60" y="232" type="curve"/>
      <point x="60" y="72"/>
      <point x="213" y="-13"/>
      <point x="387" y="-13" type="curve"/>
    </contour>
    <contour>
      <point x="225" y="11"/>
      <point x="86" y="89"/>
      <point x="86" y="232" type="curve"/>
      <point x="86" y="369"/>
      <point x="225" y="455"/>
      <point x="387" y="455" type="curve"/>
      <point x="550" y="455"/>
      <point x="689" y="369"/>
      <point x="689" y="232" type="curve"/>
      <point x="689" y="89"/>
      <point x="550" y="11"/>
      <point x="387" y="11" type="curve"/>
    </contour>
  </outline>
</glyph>
<glyph name="one" format="1">
  <advance width="629"/>
  <unicode hex="0031"/>
  <outline>
    <contour>
      <point x="222" y="463"/>
      <point x="336" y="509"/>
      <point x="371" y="627" type="curve"/>
      <point x="345" y="634" type="line"/>
      <point x="310" y="534"/>
      <point x="202" y="490"/>
      <point x="92" y="476" type="curve"/>
      <point x="98" y="443" type="line"/>
    </contour>
    <contour>
      <point x="589" y="0" type="line"/>
      <point x="589" y="31" type="line"/>
      <point x="92" y="31" type="line"/>
      <point x="92" y="0" type="line"/>
    </contour>
    <contour>
      <point x="377" y="0" type="line"/>
      <point x="377" y="634" type="line"/>
      <point x="345" y="634" type="line"/>
      <point x="345" y="0" type="line"/>
    </contour>
  </outline>
</glyph>
<glyph name="two" format="1">
  <advance width="736"/>
  <unicode hex="0032"/>
  <outline>
    <contour>
      <point x="655" y="0" type="line"/>
      <point x="655" y="184" type="line"/>
      <point x="632" y="184" type="line"/>
      <point x="632" y="24" type="line"/>
      <point x="60" y="24" type="line"/>
      <point x="60" y="0" type="line"/>
    </contour>
    <contour>
      <point x="638" y="437"/>
      <point x="512" y="483"/>
      <point x="391" y="483" type="curve" smooth="yes"/>
      <point x="254" y="483"/>
      <point x="147" y="437"/>
      <point x="66" y="367" type="curve"/>
      <point x="82" y="350" type="line"/>
      <point x="163" y="416"/>
      <point x="265" y="460"/>
      <point x="391" y="460" type="curve" smooth="yes"/>
      <point x="508" y="460"/>
      <point x="612" y="417"/>
      <point x="613" y="344" type="curve" smooth="yes"/>
      <point x="613" y="262"/>
      <point x="518" y="249"/>
      <point x="346" y="217" type="curve" smooth="yes"/>
      <point x="147" y="180"/>
      <point x="60" y="134"/>
      <point x="60" y="17" type="curve"/>
      <point x="85" y="17" type="line"/>
      <point x="85" y="119"/>
      <point x="159" y="159"/>
      <point x="356" y="195" type="curve" smooth="yes"/>
      <point x="531" y="226"/>
      <point x="638" y="247"/>
      <point x="638" y="343" type="curve" smooth="yes"/>
    </contour>
  </outline>
</glyph>
<glyph name="three" format="1">
  <advance width="704"/>
  <unicode hex="0033"/>
  <outline>
    <contour>
      <point x="528" y="-14"/>
      <point x="638" y="40"/>
      <point x="638" y="112" type="curve" smooth="yes"/>
      <point x="638" y="206"/>
      <point x="510" y="231"/>
      <point x="343" y="231" type="curve"/>
      <point x="343" y="221" type="line"/>
      <point x="511" y="221"/>
      <point x="611" y="277"/>
      <point x="611" y="349" type="curve" smooth="yes"/>
      <point x="611" y="434"/>
      <point x="506" y="479"/>
      <point x="368" y="479" type="curve" smooth="yes"/>
      <point x="247" y="479"/>
      <point x="139" y="450"/>
      <point x="56" y="408" type="curve"/>
      <point x="65" y="387" type="line"/>
      <point x="145" y="428"/>
      <point x="247" y="456"/>
      <point x="368" y="456" type="curve" smooth="yes"/>
      <point x="502" y="456"/>
      <point x="586" y="414"/>
      <point x="586" y="349" type="curve" smooth="yes"/>
      <point x="586" y="289"/>
      <point x="508" y="238"/>
      <point x="337" y="238" type="curve" smooth="yes"/>
      <point x="176" y="238" type="line"/>
      <point x="176" y="216" type="line"/>
      <point x="337" y="216" type="line" smooth="yes"/>
      <point x="534" y="216"/>
      <point x="613" y="181"/>
      <point x="613" y="112" type="curve" smooth="yes"/>
      <point x="613" y="51"/>
      <point x="508" y="8"/>
      <point x="358" y="8" type="curve" smooth="yes"/>
      <point x="201" y="8"/>
      <point x="100" y="58"/>
      <point x="55" y="92" type="curve"/>
      <point x="40" y="73" type="line"/>
      <point x="87" y="40"/>
      <point x="192" y="-14"/>
      <point x="356" y="-14" type="curve" smooth="yes"/>
    </contour>
  </outline>
</glyph>
<glyph name="four" format="1">
  <advance width="904"/>
  <unicode hex="0034"/>
  <outline>
    <contour>
      <point x="673" y="634" type="line"/>
      <point x="623" y="634" type="line"/>
      <point x="33" y="196" type="line"/>
      <point x="73" y="185" type="line"/>
    </contour>
    <contour>
      <point x="884" y="165" type="line"/>
      <point x="884" y="196" type="line"/>
      <point x="33" y="196" type="line"/>
      <point x="33" y="165" type="line"/>
    </contour>
    <contour>
      <point x="640" y="-13" type="line"/>
      <point x="673" y="-13" type="line"/>
      <point x="673" y="634" type="line"/>
      <point x="640" y="634" type="line"/>
    </contour>
  </outline>
</glyph>
<glyph name="five" format="1">
  <advance width="695"/>
  <unicode hex="0035"/>
  <outline>
    <contour>
      <point x="97" y="447" type="line"/>
      <point x="610" y="447" type="line"/>
      <point x="610" y="470" type="line"/>
      <point x="97" y="470" type="line"/>
    </contour>
    <contour>
      <point x="629" y="231"/>
      <point x="533" y="273"/>
      <point x="377" y="275" type="curve" smooth="yes"/>
      <point x="262" y="276"/>
      <point x="177" y="259"/>
      <point x="97" y="243" type="curve"/>
      <point x="97" y="219" type="line"/>
      <point x="176" y="236"/>
      <point x="256" y="252"/>
      <point x="367" y="251" type="curve" smooth="yes"/>
      <point x="533" y="250"/>
      <point x="605" y="210"/>
      <point x="603" y="135" type="curve" smooth="yes"/>
      <point x="603" y="59"/>
      <point x="492" y="12"/>
      <point x="373" y="12" type="curve" smooth="yes"/>
      <point x="226" y="12"/>
      <point x="125" y="62"/>
      <point x="80" y="95" type="curve"/>
      <point x="65" y="75" type="line"/>
      <point x="112" y="43"/>
      <point x="217" y="-11"/>
      <point x="371" y="-11" type="curve" smooth="yes"/>
      <point x="513" y="-11"/>
      <point x="629" y="49"/>
      <point x="629" y="135" type="curve" smooth="yes"/>
    </contour>
    <contour>
      <point x="97" y="219" type="line"/>
      <point x="120" y="235" type="line"/>
      <point x="120" y="470" type="line"/>
      <point x="97" y="470" type="line"/>
    </contour>
  </outline>
</glyph>
<glyph name="six" format="1">
  <advance width="711"/>
  <unicode hex="0036"/>
  <outline>
    <contour>
      <point x="523" y="-13"/>
      <point x="657" y="44"/>
      <point x="657" y="138" type="curve" smooth="yes"/>
      <point x="657" y="234"/>
      <point x="550" y="271"/>
      <point x="404" y="273" type="curve" smooth="yes"/>
      <point x="270" y="274"/>
      <point x="160" y="245"/>
      <point x="84" y="212" type="curve"/>
      <point x="84" y="188" type="line"/>
      <point x="159" y="222"/>
      <point x="262" y="251"/>
      <point x="394" y="249" type="curve" smooth="yes"/>
      <point x="550" y="248"/>
      <point x="632" y="213"/>
      <point x="630" y="137" type="curve" smooth="yes"/>
      <point x="628" y="64"/>
      <point x="518" y="11"/>
      <point x="369" y="11" type="curve" smooth="yes"/>
      <point x="205" y="11"/>
      <point x="90" y="77"/>
      <point x="90" y="207" type="curve" smooth="yes"/>
      <point x="90" y="359"/>
      <point x="222" y="454"/>
      <point x="394" y="454" type="curve" smooth="yes"/>
      <point x="491" y="454"/>
      <point x="555" y="438"/>
      <point x="610" y="422" type="curve"/>
      <point x="616" y="445" type="line"/>
      <point x="559" y="462"/>
      <point x="498" y="478"/>
      <point x="394" y="478" type="curve" smooth="yes"/>
      <point x="212" y="478"/>
      <point x="65" y="375"/>
      <point x="65" y="209" type="curve" smooth="yes"/>
      <point x="65" y="58"/>
      <point x="182" y="-13"/>
      <point x="369" y="-13" type="curve" smooth="yes"/>
    </contour>
  </outline>
</glyph>
<glyph name="seven" format="1">
  <advance width="935"/>
  <unicode hex="0037"/>
  <outline>
    <contour>
      <point x="278" y="6" type="line"/>
      <point x="299" y="-13" type="line"/>
      <point x="882" y="586" type="line"/>
      <point x="847" y="594" type="line"/>
    </contour>
    <contour>
      <point x="86" y="616" type="line"/>
      <point x="86" y="375" type="line"/>
      <point x="118" y="375" type="line"/>
      <point x="118" y="586" type="line"/>
      <point x="882" y="586" type="line"/>
      <point x="882" y="616" type="line"/>
    </contour>
  </outline>
</glyph>
<glyph name="eight" format="1">
  <advance width="782"/>
  <unicode hex="0038"/>
  <outline>
    <contour>
      <point x="611" y="-13"/>
      <point x="711" y="48"/>
      <point x="711" y="119" type="curve" smooth="yes"/>
      <point x="711" y="175"/>
      <point x="652" y="239"/>
      <point x="391" y="245" type="curve" smooth="yes"/>
      <point x="179" y="249"/>
      <point x="116" y="287"/>
      <point x="116" y="346" type="curve" smooth="yes"/>
      <point x="116" y="407"/>
      <point x="211" y="455"/>
      <point x="382" y="455" type="curve" smooth="yes"/>
      <point x="571" y="455"/>
      <point x="667" y="397"/>
      <point x="667" y="332" type="curve" smooth="yes"/>
      <point x="667" y="267"/>
      <point x="600" y="244"/>
      <point x="534" y="217" type="curve"/>
      <point x="562" y="209" type="line"/>
      <point x="627" y="237"/>
      <point x="692" y="267"/>
      <point x="692" y="332" type="curve" smooth="yes"/>
      <point x="692" y="407"/>
      <point x="591" y="479"/>
      <point x="383" y="479" type="curve" smooth="yes"/>
      <point x="191" y="479"/>
      <point x="90" y="417"/>
      <point x="90" y="346" type="curve" smooth="yes"/>
      <point x="90" y="281"/>
      <point x="151" y="224"/>
      <point x="390" y="221" type="curve" smooth="yes"/>
      <point x="622" y="217"/>
      <point x="686" y="171"/>
      <point x="686" y="119" type="curve" smooth="yes"/>
      <point x="686" y="58"/>
      <point x="591" y="11"/>
      <point x="401" y="11" type="curve" smooth="yes"/>
      <point x="191" y="11"/>
      <point x="95" y="69"/>
      <point x="95" y="133" type="curve" smooth="yes"/>
      <point x="95" y="188"/>
      <point x="151" y="222"/>
      <point x="227" y="248" type="curve"/>
      <point x="200" y="256" type="line"/>
      <point x="125" y="229"/>
      <point x="70" y="188"/>
      <point x="70" y="133" type="curve" smooth="yes"/>
      <point x="70" y="58"/>
      <point x="172" y="-13"/>
      <point x="398" y="-13" type="curve" smooth="yes"/>
    </contour>
  </outline>
</glyph>
<glyph name="nine" format="1">
  <advance width="711"/>
  <unicode hex="0039"/>
  <outline>
    <contour>
      <point x="499" y="-13"/>
      <point x="646" y="89"/>
      <point x="646" y="255" type="curve" smooth="yes"/>
      <point x="646" y="405"/>
      <point x="528" y="478"/>
      <point x="342" y="478" type="curve" smooth="yes"/>
      <point x="189" y="478"/>
      <point x="55" y="420"/>
      <point x="55" y="326" type="curve" smooth="yes"/>
      <point x="55" y="229"/>
      <point x="161" y="194"/>
      <point x="307" y="191" type="curve" smooth="yes"/>
      <point x="442" y="189"/>
      <point x="551" y="220"/>
      <point x="628" y="253" type="curve"/>
      <point x="628" y="277" type="line"/>
      <point x="553" y="242"/>
      <point x="448" y="213"/>
      <point x="317" y="214" type="curve" smooth="yes"/>
      <point x="161" y="216"/>
      <point x="80" y="251"/>
      <point x="81" y="327" type="curve" smooth="yes"/>
      <point x="84" y="400"/>
      <point x="192" y="454"/>
      <point x="342" y="454" type="curve" smooth="yes"/>
      <point x="507" y="454"/>
      <point x="622" y="388"/>
      <point x="622" y="258" type="curve" smooth="yes"/>
      <point x="622" y="106"/>
      <point x="490" y="11"/>
      <point x="317" y="11" type="curve" smooth="yes"/>
      <point x="220" y="11"/>
      <point x="157" y="27"/>
      <point x="101" y="42" type="curve"/>
      <point x="95" y="19" type="line"/>
      <point x="152" y="3"/>
      <point x="214" y="-13"/>
      <point x="317" y="-13" type="curve" smooth="yes"/>
    </contour>
  </outline>
</glyph>
<glyph name="colon" format="1">
  <advance width="275"/>
  <unicode hex="003A"/>
  <outline>
    <contour>
      <point x="169" y="299"/>
      <point x="186" y="314"/>
      <point x="186" y="332" type="curve"/>
      <point x="186" y="351"/>
      <point x="169" y="364"/>
      <point x="137" y="364" type="curve"/>
      <point x="106" y="364"/>
      <point x="89" y="351"/>
      <point x="89" y="332" type="curve"/>
      <point x="89" y="314"/>
      <point x="106" y="299"/>
      <point x="137" y="299" type="curve"/>
    </contour>
    <contour>
      <point x="169" y="-13"/>
      <point x="186" y="1"/>
      <point x="186" y="19" type="curve"/>
      <point x="186" y="38"/>
      <point x="169" y="52"/>
      <point x="137" y="52" type="curve"/>
      <point x="106" y="52"/>
      <point x="89" y="38"/>
      <point x="89" y="19" type="curve"/>
      <point x="89" y="1"/>
      <point x="106" y="-13"/>
      <point x="137" y="-13" type="curve"/>
    </contour>
  </outline>
</glyph>
<glyph name="semicolon" format="1">
  <advance width="296"/>
  <unicode hex="003B"/>
  <outline>
    <contour>
      <point x="160" y="-113"/>
      <point x="207" y="-52"/>
      <point x="207" y="-8" type="curve" smooth="yes"/>
      <point x="207" y="24"/>
      <point x="189" y="43"/>
      <point x="154" y="43" type="curve" smooth="yes"/>
      <point x="122" y="43"/>
      <point x="103" y="29"/>
      <point x="103" y="9" type="curve" smooth="yes"/>
      <point x="103" y="-10"/>
      <point x="122" y="-21"/>
      <point x="147" y="-21" type="curve" smooth="yes"/>
      <point x="161" y="-21"/>
      <point x="175" y="-20"/>
      <point x="186" y="-17" type="curve"/>
      <point x="180" y="-61"/>
      <point x="139" y="-105"/>
      <point x="89" y="-150" type="curve"/>
      <point x="100" y="-162" type="line"/>
    </contour>
    <contour>
      <point x="185" y="300"/>
      <point x="201" y="315"/>
      <point x="201" y="333" type="curve"/>
      <point x="201" y="351"/>
      <point x="185" y="365"/>
      <point x="152" y="365" type="curve"/>
      <point x="122" y="365"/>
      <point x="103" y="351"/>
      <point x="103" y="333" type="curve"/>
      <point x="103" y="315"/>
      <point x="122" y="300"/>
      <point x="152" y="300" type="curve"/>
    </contour>
  </outline>
</glyph>
<glyph name="less" format="1">
  <advance width="758"/>
  <unicode hex="003C"/>
  <outline>
    <contour>
      <point x="652" y="527" type="line"/>
      <point x="652" y="560" type="line"/>
      <point x="53" y="312" type="line"/>
      <point x="53" y="309" type="line"/>
      <point x="88" y="299" type="line"/>
    </contour>
    <contour>
      <point x="652" y="97" type="line"/>
      <point x="88" y="322" type="line"/>
      <point x="53" y="312" type="line"/>
      <point x="53" y="309" type="line"/>
      <point x="652" y="64" type="line"/>
    </contour>
  </outline>
</glyph>
<glyph name="equal" format="1">
  <advance width="840"/>
  <unicode hex="003D"/>
  <outline>
    <contour>
      <point x="92" y="458" type="line"/>
      <point x="92" y="428" type="line"/>
      <point x="748" y="428" type="line"/>
      <point x="748" y="458" type="line"/>
    </contour>
    <contour>
      <point x="92" y="193" type="line"/>
      <point x="92" y="163" type="line"/>
      <point x="748" y="163" type="line"/>
      <point x="748" y="193" type="line"/>
    </contour>
  </outline>
</glyph>
<glyph name="greater" format="1">
  <advance width="758"/>
  <unicode hex="003E"/>
  <outline>
    <contour>
      <point x="705" y="312" type="line"/>
      <point x="669" y="322" type="line"/>
      <point x="106" y="95" type="line"/>
      <point x="106" y="62" type="line"/>
      <point x="705" y="309" type="line"/>
    </contour>
    <contour>
      <point x="705" y="312" type="line"/>
      <point x="106" y="559" type="line"/>
      <point x="106" y="526" type="line"/>
      <point x="669" y="299" type="line"/>
      <point x="705" y="309" type="line"/>
    </contour>
  </outline>
</glyph>
<glyph name="question" format="1">
  <advance width="475.0"/>
  <unicode hex="003F"/>
  <outline>
    <contour>
      <point x="217" y="-11"/>
      <point x="234" y="3"/>
      <point x="234" y="21" type="curve"/>
      <point x="234" y="40"/>
      <point x="217" y="53"/>
      <point x="185" y="53" type="curve"/>
      <point x="154" y="53"/>
      <point x="135" y="40"/>
      <point x="135" y="21" type="curve"/>
      <point x="135" y="3"/>
      <point x="154" y="-11"/>
      <point x="185" y="-11" type="curve"/>
    </contour>
    <contour>
      <point x="57" y="471" type="line"/>
      <point x="107" y="492"/>
      <point x="157" y="506"/>
      <point x="226" y="506" type="curve" smooth="yes"/>
      <point x="315" y="506"/>
      <point x="385" y="468"/>
      <point x="385" y="409" type="curve" smooth="yes"/>
      <point x="385" y="357"/>
      <point x="333" y="330"/>
      <point x="274" y="309" type="curve" smooth="yes"/>
      <point x="201" y="281"/>
      <point x="125" y="264"/>
      <point x="125" y="215" type="curve" smooth="yes"/>
      <point x="125" y="188"/>
      <point x="140" y="161"/>
      <point x="162" y="129" type="curve"/>
      <point x="175" y="133" type="line"/>
      <point x="160" y="161"/>
      <point x="147" y="181"/>
      <point x="147" y="209" type="curve" smooth="yes"/>
      <point x="147" y="248"/>
      <point x="212" y="264"/>
      <point x="281" y="288" type="curve" smooth="yes"/>
      <point x="346" y="310"/>
      <point x="410" y="341"/>
      <point x="410" y="408" type="curve" smooth="yes"/>
      <point x="410" y="489"/>
      <point x="322" y="530"/>
      <point x="226" y="530" type="curve" smooth="yes"/>
      <point x="157" y="530"/>
      <point x="105" y="515"/>
      <point x="50" y="494" type="curve"/>
    </contour>
  </outline>
</glyph>
<glyph name="at" format="1">
  <advance width="929"/>
  <unicode hex="0040"/>
  <outline>
    <contour>
      <point x="533" y="-183"/>
      <point x="613" y="-143"/>
      <point x="662" y="-115" type="curve"/>
      <point x="652" y="-94" type="line"/>
      <point x="603" y="-121"/>
      <point x="530" y="-159"/>
      <point x="400" y="-159" type="curve" smooth="yes"/>
      <point x="241" y="-159"/>
      <point x="85" y="-71"/>
      <point x="85" y="122" type="curve" smooth="yes"/>
      <point x="85" y="297"/>
      <point x="245" y="439"/>
      <point x="478" y="439" type="curve" smooth="yes"/>
      <point x="704" y="439"/>
      <point x="844" y="309"/>
      <point x="844" y="157" type="curve" smooth="yes"/>
      <point x="844" y="62"/>
      <point x="789" y="0"/>
      <point x="732" y="0" type="curve" smooth="yes"/>
      <point x="680" y="0"/>
      <point x="655" y="36"/>
      <point x="655" y="78" type="curve" smooth="yes"/>
      <point x="655" y="155" type="line" smooth="yes"/>
      <point x="655" y="232"/>
      <point x="603" y="283"/>
      <point x="485" y="283" type="curve" smooth="yes"/>
      <point x="411" y="283"/>
      <point x="337" y="266"/>
      <point x="264" y="243" type="curve"/>
      <point x="264" y="218" type="line"/>
      <point x="337" y="242"/>
      <point x="410" y="260"/>
      <point x="485" y="260" type="curve" smooth="yes"/>
      <point x="586" y="260"/>
      <point x="633" y="214"/>
      <point x="633" y="155" type="curve" smooth="yes"/>
      <point x="633" y="78" type="line" smooth="yes"/>
      <point x="633" y="23"/>
      <point x="663" y="-23"/>
      <point x="732" y="-23" type="curve" smooth="yes"/>
      <point x="796" y="-23"/>
      <point x="869" y="45"/>
      <point x="869" y="157" type="curve" smooth="yes"/>
      <point x="869" y="329"/>
      <point x="716" y="463"/>
      <point x="478" y="463" type="curve" smooth="yes"/>
      <point x="234" y="463"/>
      <point x="60" y="314"/>
      <point x="60" y="122" type="curve" smooth="yes"/>
      <point x="60" y="-84"/>
      <point x="231" y="-183"/>
      <point x="400" y="-183" type="curve" smooth="yes"/>
    </contour>
    <contour>
      <point x="478" y="-23"/>
      <point x="563" y="-1"/>
      <point x="643" y="40" type="curve"/>
      <point x="643" y="62" type="line"/>
      <point x="561" y="23"/>
      <point x="477" y="0"/>
      <point x="397" y="0" type="curve" smooth="yes"/>
      <point x="331" y="0"/>
      <point x="271" y="20"/>
      <point x="271" y="62" type="curve" smooth="yes"/>
      <point x="271" y="115"/>
      <point x="346" y="130"/>
      <point x="429" y="130" type="curve" smooth="yes"/>
      <point x="506" y="130"/>
      <point x="580" y="117"/>
      <point x="643" y="108" type="curve"/>
      <point x="643" y="132" type="line"/>
      <point x="580" y="142"/>
      <point x="507" y="153"/>
      <point x="432" y="153" type="curve" smooth="yes"/>
      <point x="322" y="153"/>
      <point x="247" y="126"/>
      <point x="247" y="62" type="curve" smooth="yes"/>
      <point x="247" y="6"/>
      <point x="310" y="-23"/>
      <point x="397" y="-23" type="curve" smooth="yes"/>
    </contour>
  </outline>
</glyph>
<glyph name="A" format="1">
  <advance width="1028"/>
  <unicode hex="0041"/>
  <outline>
    <contour>
      <point x="180" y="14" type="line"/>
      <point x="516" y="503" type="line"/>
      <point x="512" y="503" type="line"/>
      <point x="849" y="14" type="line"/>
      <point x="878" y="14" type="line"/>
      <point x="533" y="511" type="line" smooth="yes"/>
      <point x="495" y="511" type="line"/>
      <point x="150" y="14" type="line"/>
    </contour>
    <contour>
      <point x="335" y="0" type="line"/>
      <point x="335" y="24" type="line"/>
      <point x="-5" y="24" type="line"/>
      <point x="-5" y="0" type="line"/>
    </contour>
    <contour>
      <point x="733" y="200" type="line"/>
      <point x="717" y="223" type="line"/>
      <point x="309" y="223" type="line"/>
      <point x="291" y="200" type="line"/>
    </contour>
    <contour>
      <point x="1033" y="0" type="line"/>
      <point x="1033" y="24" type="line"/>
      <point x="693" y="24" type="line"/>
      <point x="693" y="0" type="line"/>
    </contour>
    <contour>
      <point x="702" y="499" type="line"/>
      <point x="702" y="521" type="line"/>
      <point x="325" y="521" type="line"/>
      <point x="325" y="499" type="line"/>
    </contour>
    <contour>
      <point x="798" y="772" type="move" name="hook"/>
    </contour>
    <contour>
      <point x="1361" y="0" type="move" name="ogonek"/>
    </contour>
    <contour>
      <point x="677" y="686" type="move" name="top"/>
    </contour>
    <contour>
      <point x="680" y="0" type="move" name="bottom"/>
    </contour>
  </outline>
</glyph>
<glyph name="B" format="1">
  <advance width="964"/>
  <unicode hex="0042"/>
  <outline>
    <contour>
      <point x="676" y="0" type="line" smooth="yes"/>
      <point x="793" y="0"/>
      <point x="864" y="45"/>
      <point x="864" y="136" type="curve" smooth="yes"/>
      <point x="864" y="232"/>
      <point x="784" y="271"/>
      <point x="667" y="271" type="curve"/>
      <point x="667" y="262" type="line"/>
      <point x="777" y="262"/>
      <point x="831" y="316"/>
      <point x="831" y="392" type="curve" smooth="yes"/>
      <point x="831" y="470"/>
      <point x="771" y="521"/>
      <point x="669" y="521" type="curve" smooth="yes"/>
      <point x="56" y="521" type="line"/>
      <point x="56" y="498" type="line"/>
      <point x="667" y="498" type="line" smooth="yes"/>
      <point x="746" y="498"/>
      <point x="806" y="467"/>
      <point x="806" y="392" type="curve" smooth="yes"/>
      <point x="806" y="317"/>
      <point x="747" y="280"/>
      <point x="663" y="280" type="curve" smooth="yes"/>
      <point x="255" y="280" type="line"/>
      <point x="255" y="255" type="line"/>
      <point x="658" y="255" type="line" smooth="yes"/>
      <point x="758" y="255"/>
      <point x="839" y="223"/>
      <point x="839" y="137" type="curve" smooth="yes"/>
      <point x="839" y="55"/>
      <point x="771" y="24"/>
      <point x="669" y="24" type="curve" smooth="yes"/>
      <point x="56" y="24" type="line"/>
      <point x="56" y="0" type="line"/>
    </contour>
    <contour>
      <point x="264" y="14" type="line"/>
      <point x="264" y="510" type="line"/>
      <point x="239" y="510" type="line"/>
      <point x="239" y="14" type="line"/>
    </contour>
    <contour>
      <point x="591" y="686" type="move" name="top"/>
    </contour>
    <contour>
      <point x="591" y="0" type="move" name="bottom"/>
    </contour>
  </outline>
</glyph>
<glyph name="C" format="1">
  <advance width="892"/>
  <unicode hex="0043"/>
  <outline>
    <contour>
      <point x="647" y="-14"/>
      <point x="754" y="82"/>
      <point x="802" y="165" type="curve"/>
      <point x="781" y="178" type="line"/>
      <point x="741" y="104"/>
      <point x="632" y="10"/>
      <point x="432" y="10" type="curve"/>
      <point x="250" y="10"/>
      <point x="100" y="103"/>
      <point x="100" y="257" type="curve"/>
      <point x="100" y="412"/>
      <point x="255" y="505"/>
      <point x="441" y="505" type="curve" smooth="yes"/>
      <point x="578" y="505"/>
      <point x="696" y="459"/>
      <point x="787" y="328" type="curve"/>
      <point x="799" y="330" type="line"/>
      <point x="799" y="518" type="line"/>
      <point x="775" y="518" type="line"/>
      <point x="775" y="358" type="line"/>
      <point x="787" y="358" type="line"/>
      <point x="717" y="459"/>
      <point x="602" y="529"/>
      <point x="441" y="529" type="curve" smooth="yes"/>
      <point x="247" y="529"/>
      <point x="75" y="430"/>
      <point x="75" y="257" type="curve"/>
      <point x="75" y="86"/>
      <point x="240" y="-14"/>
      <point x="432" y="-14" type="curve"/>
    </contour>
    <contour>
      <point x="555" y="700" type="move" name="top"/>
    </contour>
    <contour>
      <point x="545" y="-13" type="move" name="bottom"/>
    </contour>
  </outline>
</glyph>
<glyph name="D" format="1">
  <advance width="967"/>
  <unicode hex="0044"/>
  <outline>
    <contour>
      <point x="546" y="-1" type="line"/>
      <point x="752" y="-1"/>
      <point x="892" y="84"/>
      <point x="892" y="259" type="curve"/>
      <point x="892" y="435"/>
      <point x="752" y="520"/>
      <point x="546" y="520" type="curve"/>
      <point x="56" y="520" type="line"/>
      <point x="56" y="496" type="line"/>
      <point x="546" y="496" type="line"/>
      <point x="742" y="496"/>
      <point x="867" y="418"/>
      <point x="867" y="259" type="curve"/>
      <point x="867" y="100"/>
      <point x="742" y="22"/>
      <point x="546" y="22" type="curve"/>
      <point x="56" y="22" type="line"/>
      <point x="56" y="-1" type="line"/>
    </contour>
    <contour>
      <point x="264" y="12" type="line"/>
      <point x="264" y="507" type="line"/>
      <point x="239" y="507" type="line"/>
      <point x="239" y="12" type="line"/>
    </contour>
    <contour>
      <point x="482" y="410" type="move" name="center"/>
    </contour>
    <contour>
      <point x="482" y="165" type="move" name="bottom"/>
    </contour>
    <contour>
      <point x="482" y="686" type="move" name="top"/>
    </contour>
  </outline>
</glyph>
<glyph name="E" format="1">
  <advance width="1309"/>
  <unicode hex="0045"/>
  <outline>
    <contour>
      <point x="1137" y="0" type="line"/>
      <point x="1137" y="242" type="line"/>
      <point x="1105" y="242" type="line"/>
      <point x="1105" y="31" type="line"/>
      <point x="74" y="31" type="line"/>
      <point x="74" y="0" type="line"/>
    </contour>
    <contour>
      <point x="348" y="18" type="line"/>
      <point x="348" y="669" type="line"/>
      <point x="315" y="669" type="line"/>
      <point x="315" y="18" type="line"/>
    </contour>
    <contour>
      <point x="770" y="344" type="line"/>
      <point x="770" y="375" type="line"/>
      <point x="343" y="375" type="line"/>
      <point x="343" y="344" type="line"/>
    </contour>
    <contour>
      <point x="787" y="202" type="line"/>
      <point x="787" y="517" type="line"/>
      <point x="754" y="517" type="line"/>
      <point x="754" y="202" type="line"/>
    </contour>
    <contour>
      <point x="1137" y="444" type="line"/>
      <point x="1137" y="686" type="line"/>
      <point x="74" y="686" type="line"/>
      <point x="74" y="655" type="line"/>
      <point x="1104" y="655" type="line"/>
      <point x="1104" y="444" type="line"/>
    </contour>
    <contour>
      <point x="1137.0" y="0.0" type="move" name="ogonek"/>
    </contour>
    <contour>
      <point x="661.0" y="0.0" type="move" name="bottom"/>
    </contour>
    <contour>
      <point x="699.0" y="686.0" type="move" name="top"/>
    </contour>
  </outline>
</glyph>
<glyph name="F" format="1">
  <advance width="1170"/>
  <unicode hex="0046"/>
  <outline>
    <contour>
      <point x="1071" y="444" type="line"/>
      <point x="1071" y="686" type="line"/>
      <point x="74" y="686" type="line"/>
      <point x="74" y="655" type="line"/>
      <point x="1039" y="655" type="line"/>
      <point x="1039" y="444" type="line"/>
    </contour>
    <contour>
      <point x="601" y="0" type="line"/>
      <point x="601" y="31" type="line"/>
      <point x="74" y="31" type="line"/>
      <point x="74" y="0" type="line"/>
    </contour>
    <contour>
      <point x="348" y="18" type="line"/>
      <point x="348" y="669" type="line"/>
      <point x="315" y="669" type="line"/>
      <point x="315" y="18" type="line"/>
    </contour>
    <contour>
      <point x="730" y="317" type="line"/>
      <point x="730" y="348" type="line"/>
      <point x="343" y="348" type="line"/>
      <point x="343" y="317" type="line"/>
    </contour>
    <contour>
      <point x="747" y="174" type="line"/>
      <point x="747" y="490" type="line"/>
      <point x="714" y="490" type="line"/>
      <point x="714" y="174" type="line"/>
    </contour>
    <contour>
      <point x="593.0" y="647.0" type="move" name="top"/>
    </contour>
    <contour>
      <point x="593.0" y="0.0" type="move" name="bottom"/>
    </contour>
  </outline>
</glyph>
<glyph name="G" format="1">
  <advance width="906"/>
  <unicode hex="0047"/>
  <outline>
    <contour>
      <point x="579" y="-13"/>
      <point x="709" y="30"/>
      <point x="803" y="101" type="curve"/>
      <point x="803" y="252" type="line"/>
      <point x="437" y="252" type="line"/>
      <point x="437" y="229" type="line"/>
      <point x="778" y="229" type="line"/>
      <point x="778" y="113" type="line"/>
      <point x="687" y="50"/>
      <point x="568" y="11"/>
      <point x="437" y="11" type="curve" smooth="yes"/>
      <point x="255" y="11"/>
      <point x="106" y="104"/>
      <point x="106" y="257" type="curve" smooth="yes"/>
      <point x="106" y="412"/>
      <point x="260" y="505"/>
      <point x="445" y="505" type="curve" smooth="yes"/>
      <point x="584" y="505"/>
      <point x="701" y="459"/>
      <point x="792" y="328" type="curve"/>
      <point x="803" y="329" type="line"/>
      <point x="803" y="518" type="line"/>
      <point x="780" y="518" type="line"/>
      <point x="780" y="359" type="line"/>
      <point x="792" y="359" type="line"/>
      <point x="722" y="459"/>
      <point x="607" y="529"/>
      <point x="445" y="529" type="curve" smooth="yes"/>
      <point x="252" y="529"/>
      <point x="81" y="429"/>
      <point x="81" y="257" type="curve" smooth="yes"/>
      <point x="81" y="87"/>
      <point x="245" y="-13"/>
      <point x="437" y="-13" type="curve" smooth="yes"/>
    </contour>
    <contour>
      <point x="555" y="700" type="move" name="top"/>
    </contour>
    <contour>
      <point x="555" y="-13" type="move" name="bottom"/>
    </contour>
  </outline>
</glyph>
<glyph name="H" format="1">
  <advance width="1135"/>
  <unicode hex="0048"/>
  <outline>
    <contour>
      <point x="877" y="253" type="line"/>
      <point x="877" y="277" type="line"/>
      <point x="258" y="277" type="line"/>
      <point x="258" y="253" type="line"/>
    </contour>
    <contour>
      <point x="445" y="0" type="line"/>
      <point x="445" y="24" type="line"/>
      <point x="56" y="24" type="line"/>
      <point x="56" y="0" type="line"/>
    </contour>
    <contour>
      <point x="264" y="11" type="line"/>
      <point x="264" y="508" type="line"/>
      <point x="239" y="508" type="line"/>
      <point x="239" y="11" type="line"/>
    </contour>
    <contour>
      <point x="445" y="498" type="line"/>
      <point x="445" y="521" type="line"/>
      <point x="56" y="521" type="line"/>
      <point x="56" y="498" type="line"/>
    </contour>
    <contour>
      <point x="1078" y="0" type="line"/>
      <point x="1078" y="24" type="line"/>
      <point x="688" y="24" type="line"/>
      <point x="688" y="0" type="line"/>
    </contour>
    <contour>
      <point x="896" y="14" type="line"/>
      <point x="896" y="511" type="line"/>
      <point x="871" y="511" type="line"/>
      <point x="871" y="14" type="line"/>
    </contour>
    <contour>
      <point x="1078" y="498" type="line"/>
      <point x="1078" y="521" type="line"/>
      <point x="688" y="521" type="line"/>
      <point x="688" y="498" type="line"/>
    </contour>
    <contour>
      <point x="728" y="350" type="move" name="center"/>
    </contour>
    <contour>
      <point x="728" y="0" type="move" name="bottom"/>
    </contour>
    <contour>
      <point x="728" y="686" type="move" name="top"/>
    </contour>
  </outline>
</glyph>
<glyph name="I" format="1">
  <advance width="661"/>
  <unicode hex="0049"/>
  <outline>
    <contour>
      <point x="348" y="18" type="line" smooth="yes"/>
      <point x="348" y="669" type="line" smooth="yes"/>
      <point x="315" y="669" type="line" smooth="yes"/>
      <point x="315" y="18" type="line" smooth="yes"/>
    </contour>
    <contour>
      <point x="587" y="0" type="line" smooth="yes"/>
      <point x="587" y="31" type="line" smooth="yes"/>
      <point x="74" y="31" type="line" smooth="yes"/>
      <point x="74" y="0" type="line" smooth="yes"/>
    </contour>
    <contour>
      <point x="587" y="655" type="line" smooth="yes"/>
      <point x="587" y="686" type="line" smooth="yes"/>
      <point x="74" y="686" type="line" smooth="yes"/>
      <point x="74" y="655" type="line" smooth="yes"/>
    </contour>
    <contour>
      <point x="587.0" y="0.0" type="move" name="ogonek"/>
    </contour>
    <contour>
      <point x="331.0" y="0.0" type="move" name="bottom"/>
    </contour>
    <contour>
      <point x="331.0" y="686.0" type="move" name="top"/>
    </contour>
  </outline>
</glyph>
<glyph name="J" format="1">
  <advance width="655"/>
  <unicode hex="004A"/>
  <outline>
    <contour>
      <point x="382" y="-11"/>
      <point x="473" y="64"/>
      <point x="473" y="185" type="curve" smooth="yes"/>
      <point x="473" y="507" type="line"/>
      <point x="448" y="507" type="line"/>
      <point x="448" y="185" type="line" smooth="yes"/>
      <point x="448" y="67"/>
      <point x="356" y="12"/>
      <point x="250" y="12" type="curve" smooth="yes"/>
      <point x="149" y="12"/>
      <point x="77" y="71"/>
      <point x="36" y="126" type="curve"/>
      <point x="20" y="110" type="line"/>
      <point x="59" y="54"/>
      <point x="131" y="-11"/>
      <point x="250" y="-11" type="curve" smooth="yes"/>
    </contour>
    <contour>
      <point x="655" y="496" type="line"/>
      <point x="655" y="520" type="line"/>
      <point x="207" y="520" type="line"/>
      <point x="207" y="496" type="line"/>
    </contour>
    <contour>
      <point x="340" y="686" type="move" name="top"/>
    </contour>
    <contour>
      <point x="340" y="165" type="move" name="bottom"/>
    </contour>
  </outline>
</glyph>
<glyph name="K" format="1">
  <advance width="1000"/>
  <unicode hex="004B"/>
  <outline>
    <contour>
      <point x="827" y="508" type="line"/>
      <point x="787" y="508" type="line"/>
      <point x="251" y="157" type="line"/>
      <point x="251" y="130" type="line"/>
    </contour>
    <contour>
      <point x="446" y="0" type="line" smooth="yes"/>
      <point x="446" y="24" type="line" smooth="yes"/>
      <point x="56" y="24" type="line" smooth="yes"/>
      <point x="56" y="0" type="line" smooth="yes"/>
    </contour>
    <contour>
      <point x="264" y="14" type="line" smooth="yes"/>
      <point x="264" y="508" type="line" smooth="yes"/>
      <point x="239" y="508" type="line" smooth="yes"/>
      <point x="239" y="14" type="line" smooth="yes"/>
    </contour>
    <contour>
      <point x="964" y="0" type="line" smooth="yes"/>
      <point x="964" y="24" type="line" smooth="yes"/>
      <point x="612" y="24" type="line" smooth="yes"/>
      <point x="612" y="0" type="line" smooth="yes"/>
    </contour>
    <contour>
      <point x="833" y="10" type="line"/>
      <point x="483" y="295" type="line"/>
      <point x="467" y="279" type="line"/>
      <point x="797" y="10" type="line"/>
    </contour>
    <contour>
      <point x="446" y="498" type="line" smooth="yes"/>
      <point x="446" y="521" type="line" smooth="yes"/>
      <point x="56" y="521" type="line" smooth="yes"/>
      <point x="56" y="498" type="line" smooth="yes"/>
    </contour>
    <contour>
      <point x="955" y="498" type="line" smooth="yes"/>
      <point x="955" y="521" type="line" smooth="yes"/>
      <point x="602" y="521" type="line" smooth="yes"/>
      <point x="602" y="498" type="line" smooth="yes"/>
    </contour>
    <contour>
      <point x="675" y="686" type="move" name="top"/>
    </contour>
    <contour>
      <point x="675" y="0" type="move" name="bottom"/>
    </contour>
  </outline>
</glyph>
<glyph name="L" format="1">
  <advance width="842"/>
  <unicode hex="004C"/>
  <outline>
    <contour>
      <point x="792" y="0" type="line"/>
      <point x="792" y="184" type="line"/>
      <point x="767" y="184" type="line"/>
      <point x="767" y="24" type="line"/>
      <point x="56" y="24" type="line"/>
      <point x="56" y="0" type="line"/>
    </contour>
    <contour>
      <point x="264" y="14" type="line"/>
      <point x="264" y="508" type="line"/>
      <point x="239" y="508" type="line"/>
      <point x="239" y="14" type="line"/>
    </contour>
    <contour>
      <point x="446" y="498" type="line"/>
      <point x="446" y="521" type="line"/>
      <point x="56" y="521" type="line"/>
      <point x="56" y="498" type="line"/>
    </contour>
    <contour>
      <point x="575" y="0" type="move" name="bottom"/>
    </contour>
    <contour>
      <point x="294" y="686" type="move" name="top"/>
    </contour>
    <contour>
      <point x="574" y="447" type="move" name="topright"/>
    </contour>
    <contour>
      <point x="525" y="323" type="move" name="center"/>
    </contour>
  </outline>
</glyph>
<glyph name="M" format="1">
  <advance width="1241"/>
  <unicode hex="004D"/>
  <outline>
    <contour>
      <point x="623" y="-14" type="line"/>
      <point x="632" y="11" type="line"/>
      <point x="264" y="518" type="line"/>
      <point x="233" y="518" type="line"/>
      <point x="618" y="-14" type="line"/>
    </contour>
    <contour>
      <point x="415" y="-3" type="line"/>
      <point x="415" y="20" type="line"/>
      <point x="56" y="20" type="line"/>
      <point x="56" y="-3" type="line"/>
    </contour>
    <contour>
      <point x="264" y="8" type="line"/>
      <point x="264" y="451" type="line"/>
      <point x="264" y="473"/>
      <point x="264" y="497"/>
      <point x="264" y="518" type="curve"/>
      <point x="239" y="518" type="line"/>
      <point x="239" y="8" type="line"/>
    </contour>
    <contour>
      <point x="264" y="494" type="line"/>
      <point x="264" y="518" type="line"/>
      <point x="56" y="518" type="line"/>
      <point x="56" y="494" type="line"/>
    </contour>
    <contour>
      <point x="1185" y="-3" type="line"/>
      <point x="1185" y="20" type="line"/>
      <point x="827" y="20" type="line"/>
      <point x="827" y="-3" type="line"/>
    </contour>
    <contour>
      <point x="624" y="-14" type="line"/>
      <point x="1009" y="518" type="line"/>
      <point x="977" y="518" type="line"/>
      <point x="613" y="11" type="line"/>
      <point x="619" y="-14" type="line"/>
    </contour>
    <contour>
      <point x="1002" y="8" type="line"/>
      <point x="1002" y="518" type="line"/>
      <point x="977" y="518" type="line"/>
      <point x="977" y="497"/>
      <point x="977" y="473"/>
      <point x="977" y="451" type="curve"/>
      <point x="977" y="8" type="line"/>
    </contour>
    <contour>
      <point x="1185" y="494" type="line"/>
      <point x="1185" y="518" type="line"/>
      <point x="977" y="518" type="line"/>
      <point x="977" y="494" type="line"/>
    </contour>
    <contour>
      <point x="799" y="647" type="move" name="top"/>
    </contour>
    <contour>
      <point x="799" y="-26" type="move" name="bottom"/>
    </contour>
  </outline>
</glyph>
<glyph name="N" format="1">
  <advance width="1461"/>
  <unicode hex="004E"/>
  <outline>
    <contour>
      <point x="1201" y="-7" type="line"/>
      <point x="1201" y="669" type="line"/>
      <point x="1168" y="669" type="line"/>
      <point x="1168" y="57" type="line"/>
      <point x="348" y="686" type="line"/>
      <point x="289" y="686" type="line"/>
      <point x="1195" y="-7" type="line"/>
    </contour>
    <contour>
      <point x="587" y="0" type="line"/>
      <point x="587" y="31" type="line"/>
      <point x="74" y="31" type="line"/>
      <point x="74" y="0" type="line"/>
    </contour>
    <contour>
      <point x="348" y="15" type="line"/>
      <point x="348" y="686" type="line"/>
      <point x="315" y="686" type="line"/>
      <point x="315" y="15" type="line"/>
    </contour>
    <contour>
      <point x="348" y="655" type="line"/>
      <point x="348" y="686" type="line"/>
      <point x="74" y="686" type="line"/>
      <point x="74" y="655" type="line"/>
    </contour>
    <contour>
      <point x="1441" y="655" type="line"/>
      <point x="1441" y="686" type="line"/>
      <point x="928" y="686" type="line"/>
      <point x="928" y="655" type="line"/>
    </contour>
    <contour>
      <point x="688.0" y="673.0" type="move" name="top"/>
    </contour>
    <contour>
      <point x="820.0" y="13.0" type="move" name="bottom"/>
    </contour>
  </outline>
</glyph>
<glyph name="O" format="1">
  <advance width="919"/>
  <unicode hex="004F"/>
  <outline>
    <contour>
      <point x="676" y="-13"/>
      <point x="844" y="86"/>
      <point x="844" y="258" type="curve"/>
      <point x="844" y="429"/>
      <point x="676" y="529"/>
      <point x="460" y="529" type="curve"/>
      <point x="242" y="529"/>
      <point x="75" y="429"/>
      <point x="75" y="258" type="curve"/>
      <point x="75" y="86"/>
      <point x="242" y="-13"/>
      <point x="460" y="-13" type="curve"/>
    </contour>
    <contour>
      <point x="252" y="11"/>
      <point x="100" y="103"/>
      <point x="100" y="258" type="curve"/>
      <point x="100" y="413"/>
      <point x="252" y="505"/>
      <point x="460" y="505" type="curve"/>
      <point x="666" y="505"/>
      <point x="819" y="413"/>
      <point x="819" y="258" type="curve"/>
      <point x="819" y="103"/>
      <point x="666" y="11"/>
      <point x="460" y="11" type="curve"/>
    </contour>
    <contour>
      <point x="581" y="-13" type="move" name="bottom"/>
    </contour>
    <contour>
      <point x="583" y="-11" type="move" name="ogonek"/>
    </contour>
    <contour>
      <point x="581" y="700" type="move" name="top"/>
    </contour>
    <contour>
      <point x="1152" y="647" type="move" name="topright"/>
    </contour>
    <contour>
      <point x="581" y="323" type="move" name="center"/>
    </contour>
  </outline>
</glyph>
<glyph name="P" format="1">
  <advance width="937"/>
  <unicode hex="0050"/>
  <outline>
    <contour>
      <point x="696" y="214" type="line" smooth="yes"/>
      <point x="809" y="214"/>
      <point x="877" y="279"/>
      <point x="877" y="366" type="curve" smooth="yes"/>
      <point x="877" y="462"/>
      <point x="807" y="521"/>
      <point x="696" y="521" type="curve" smooth="yes"/>
      <point x="56" y="521" type="line"/>
      <point x="56" y="498" type="line"/>
      <point x="703" y="498" type="line" smooth="yes"/>
      <point x="793" y="498"/>
      <point x="852" y="446"/>
      <point x="852" y="366" type="curve" smooth="yes"/>
      <point x="852" y="287"/>
      <point x="789" y="238"/>
      <point x="703" y="238" type="curve" smooth="yes"/>
      <point x="252" y="238" type="line"/>
      <point x="252" y="214" type="line"/>
    </contour>
    <contour>
      <point x="457" y="0" type="line"/>
      <point x="457" y="24" type="line"/>
      <point x="56" y="24" type="line"/>
      <point x="56" y="0" type="line"/>
    </contour>
    <contour>
      <point x="264" y="14" type="line"/>
      <point x="264" y="508" type="line"/>
      <point x="239" y="508" type="line"/>
      <point x="239" y="14" type="line"/>
    </contour>
    <contour>
      <point x="591" y="686" type="move" name="top"/>
    </contour>
    <contour>
      <point x="591" y="0" type="move" name="bottom"/>
    </contour>
  </outline>
</glyph>
<glyph name="Q" format="1">
  <advance width="920"/>
  <unicode hex="0051"/>
  <outline>
    <contour>
      <point x="676" y="-60"/>
      <point x="844" y="39"/>
      <point x="844" y="211" type="curve"/>
      <point x="844" y="382"/>
      <point x="676" y="482"/>
      <point x="460" y="482" type="curve"/>
      <point x="242" y="482"/>
      <point x="75" y="382"/>
      <point x="75" y="211" type="curve"/>
      <point x="75" y="39"/>
      <point x="242" y="-60"/>
      <point x="460" y="-60" type="curve"/>
    </contour>
    <contour>
      <point x="831" y="-209"/>
      <point x="894" y="-150"/>
      <point x="904" y="-64" type="curve"/>
      <point x="882" y="-59" type="line"/>
      <point x="872" y="-137"/>
      <point x="816" y="-185"/>
      <point x="738" y="-185" type="curve" smooth="yes"/>
      <point x="660" y="-185"/>
      <point x="603" y="-131"/>
      <point x="535" y="-49" type="curve" smooth="yes"/>
      <point x="517" y="-27" type="line" smooth="yes"/>
      <point x="423" y="84"/>
      <point x="356" y="174"/>
      <point x="180" y="174" type="curve" smooth="yes"/>
      <point x="99" y="174" type="line"/>
      <point x="99" y="150" type="line"/>
      <point x="180" y="150" type="line" smooth="yes"/>
      <point x="342" y="150"/>
      <point x="410" y="64"/>
      <point x="492" y="-33" type="curve" smooth="yes"/>
      <point x="505" y="-49" type="line" smooth="yes"/>
      <point x="587" y="-150"/>
      <point x="646" y="-209"/>
      <point x="738" y="-209" type="curve" smooth="yes"/>
    </contour>
    <contour>
      <point x="252" y="-36"/>
      <point x="100" y="56"/>
      <point x="100" y="211" type="curve"/>
      <point x="100" y="366"/>
      <point x="252" y="458"/>
      <point x="460" y="458" type="curve"/>
      <point x="666" y="458"/>
      <point x="819" y="366"/>
      <point x="819" y="211" type="curve"/>
      <point x="819" y="56"/>
      <point x="666" y="-36"/>
      <point x="460" y="-36" type="curve"/>
    </contour>
    <contour>
      <point x="578" y="700" type="move" name="top"/>
    </contour>
    <contour>
      <point x="578" y="-13" type="move" name="bottom"/>
    </contour>
  </outline>
</glyph>
<glyph name="R" format="1">
  <advance width="1060"/>
  <unicode hex="0052"/>
  <outline>
    <contour>
      <point x="719" y="239" type="line" smooth="yes"/>
      <point x="844" y="239"/>
      <point x="903" y="307"/>
      <point x="903" y="376" type="curve" smooth="yes"/>
      <point x="903" y="455"/>
      <point x="843" y="518"/>
      <point x="719" y="518" type="curve" smooth="yes"/>
      <point x="56" y="518" type="line"/>
      <point x="56" y="495" type="line"/>
      <point x="719" y="495" type="line" smooth="yes"/>
      <point x="828" y="495"/>
      <point x="878" y="439"/>
      <point x="878" y="376" type="curve" smooth="yes"/>
      <point x="878" y="315"/>
      <point x="826" y="261"/>
      <point x="719" y="261" type="curve" smooth="yes"/>
      <point x="259" y="261" type="line"/>
      <point x="259" y="239" type="line"/>
    </contour>
    <contour>
      <point x="446" y="-3" type="line"/>
      <point x="446" y="21" type="line"/>
      <point x="56" y="20" type="line"/>
      <point x="56" y="-4" type="line"/>
    </contour>
    <contour>
      <point x="264" y="11" type="line"/>
      <point x="264" y="505" type="line"/>
      <point x="239" y="505" type="line"/>
      <point x="239" y="11" type="line"/>
    </contour>
    <contour>
      <point x="952" y="-13"/>
      <point x="1015" y="61"/>
      <point x="1015" y="153" type="curve" smooth="yes"/>
      <point x="1015" y="173" type="line"/>
      <point x="990" y="173" type="line"/>
      <point x="990" y="153" type="line" smooth="yes"/>
      <point x="990" y="72"/>
      <point x="934" y="11"/>
      <point x="857" y="11" type="curve" smooth="yes"/>
      <point x="777" y="11"/>
      <point x="736" y="64"/>
      <point x="677" y="136" type="curve" smooth="yes"/>
      <point x="603" y="224"/>
      <point x="570" y="251"/>
      <point x="461" y="251" type="curve" smooth="yes"/>
      <point x="259" y="251" type="line"/>
      <point x="259" y="237" type="line"/>
      <point x="473" y="237" type="line" smooth="yes"/>
      <point x="558" y="237"/>
      <point x="597" y="198"/>
      <point x="657" y="122" type="curve" smooth="yes"/>
      <point x="716" y="46"/>
      <point x="768" y="-13"/>
      <point x="857" y="-13" type="curve" smooth="yes"/>
    </contour>
    <contour>
      <point x="674" y="686" type="move" name="top"/>
    </contour>
    <contour>
      <point x="727" y="0" type="move" name="bottom"/>
    </contour>
  </outline>
</glyph>
<glyph name="S" format="1">
  <advance width="869"/>
  <unicode hex="0053"/>
  <outline>
    <contour>
      <point x="676" y="-13"/>
      <point x="779" y="31"/>
      <point x="779" y="122" type="curve" smooth="yes"/>
      <point x="779" y="216"/>
      <point x="682" y="247"/>
      <point x="442" y="266" type="curve" smooth="yes"/>
      <point x="217" y="283"/>
      <point x="142" y="314"/>
      <point x="142" y="384" type="curve" smooth="yes"/>
      <point x="142" y="467"/>
      <point x="234" y="505"/>
      <point x="373" y="505" type="curve" smooth="yes"/>
      <point x="541" y="505"/>
      <point x="652" y="442"/>
      <point x="738" y="342" type="curve"/>
      <point x="744" y="344" type="line"/>
      <point x="744" y="518" type="line"/>
      <point x="720" y="518" type="line"/>
      <point x="720" y="376" type="line"/>
      <point x="736" y="376" type="line"/>
      <point x="668" y="451"/>
      <point x="560" y="529"/>
      <point x="375" y="529" type="curve" smooth="yes"/>
      <point x="212" y="529"/>
      <point x="117" y="478"/>
      <point x="117" y="384" type="curve" smooth="yes"/>
      <point x="117" y="303"/>
      <point x="195" y="258"/>
      <point x="441" y="242" type="curve" smooth="yes"/>
      <point x="667" y="226"/>
      <point x="755" y="198"/>
      <point x="755" y="122" type="curve" smooth="yes"/>
      <point x="755" y="44"/>
      <point x="659" y="11"/>
      <point x="535" y="11" type="curve" smooth="yes"/>
      <point x="385" y="11"/>
      <point x="211" y="71"/>
      <point x="122" y="174" type="curve"/>
      <point x="116" y="172" type="line"/>
      <point x="116" y="-3" type="line"/>
      <point x="139" y="-3" type="line"/>
      <point x="139" y="137" type="line"/>
      <point x="124" y="137" type="line"/>
      <point x="197" y="62"/>
      <point x="361" y="-13"/>
      <point x="534" y="-13" type="curve" smooth="yes"/>
    </contour>
    <contour>
      <point x="558" y="700" type="move" name="top"/>
    </contour>
    <contour>
      <point x="584" y="-13" type="move" name="bottom"/>
    </contour>
  </outline>
</glyph>
<glyph name="T" format="1">
  <advance width="1256"/>
  <unicode hex="0054"/>
  <outline>
    <contour>
      <point x="152" y="444" type="line"/>
      <point x="152" y="656" type="line"/>
      <point x="1104" y="656" type="line"/>
      <point x="1104" y="444" type="line"/>
      <point x="1137" y="444" type="line"/>
      <point x="1137" y="686" type="line"/>
      <point x="119" y="686" type="line"/>
      <point x="119" y="444" type="line"/>
    </contour>
    <contour>
      <point x="898" y="0" type="line"/>
      <point x="898" y="31" type="line"/>
      <point x="358" y="31" type="line"/>
      <point x="358" y="0" type="line"/>
    </contour>
    <contour>
      <point x="645" y="18" type="line"/>
      <point x="645" y="669" type="line"/>
      <point x="612" y="669" type="line"/>
      <point x="612" y="18" type="line"/>
    </contour>
    <contour>
      <point x="628.0" y="323.0" type="move" name="center"/>
    </contour>
    <contour>
      <point x="628.0" y="0.0" type="move" name="bottom"/>
    </contour>
    <contour>
      <point x="628.0" y="686.0" type="move" name="top"/>
    </contour>
  </outline>
</glyph>
<glyph name="U" format="1">
  <advance width="1004"/>
  <unicode hex="0055"/>
  <outline>
    <contour>
      <point x="696" y="-13"/>
      <point x="822" y="77"/>
      <point x="822" y="252" type="curve" smooth="yes"/>
      <point x="822" y="505" type="line"/>
      <point x="800" y="505" type="line"/>
      <point x="796" y="239" type="line" smooth="yes"/>
      <point x="794" y="87"/>
      <point x="677" y="11"/>
      <point x="502" y="11" type="curve"/>
      <point x="327" y="11"/>
      <point x="210" y="87"/>
      <point x="207" y="241" type="curve" smooth="yes"/>
      <point x="205" y="505" type="line"/>
      <point x="182" y="505" type="line"/>
      <point x="182" y="252" type="line" smooth="yes"/>
      <point x="182" y="77"/>
      <point x="309" y="-13"/>
      <point x="502" y="-13" type="curve"/>
    </contour>
    <contour>
      <point x="387" y="495" type="line"/>
      <point x="387" y="518" type="line"/>
      <point x="0" y="518" type="line"/>
      <point x="0" y="495" type="line"/>
    </contour>
    <contour>
      <point x="1004" y="495" type="line"/>
      <point x="1004" y="518" type="line"/>
      <point x="617" y="518" type="line"/>
      <point x="617" y="495" type="line"/>
    </contour>
    <contour>
      <point x="661" y="-13" type="move" name="ogonek"/>
    </contour>
    <contour>
      <point x="661" y="673" type="move" name="top"/>
    </contour>
    <contour>
      <point x="1309" y="647" type="move" name="topright"/>
    </contour>
    <contour>
      <point x="661" y="-13" type="move" name="bottom"/>
    </contour>
  </outline>
</glyph>
<glyph name="V" format="1">
  <advance width="1235"/>
  <unicode hex="0056"/>
  <outline>
    <contour>
      <point x="-7" y="686" type="line"/>
      <point x="-7" y="655" type="line"/>
      <point x="438" y="655" type="line"/>
      <point x="438" y="686" type="line"/>
    </contour>
    <contour>
      <point x="798" y="686" type="line"/>
      <point x="798" y="655" type="line"/>
      <point x="1242" y="655" type="line"/>
      <point x="1242" y="686" type="line"/>
    </contour>
    <contour>
      <point x="622" y="-13" type="line"/>
      <point x="1038" y="669" type="line"/>
      <point x="1001" y="669" type="line"/>
      <point x="619" y="40" type="line"/>
      <point x="239" y="669" type="line"/>
      <point x="198" y="669" type="line"/>
      <point x="614" y="-13" type="line"/>
    </contour>
    <contour>
      <point x="619.0" y="647.0" type="move" name="top"/>
    </contour>
    <contour>
      <point x="619.0" y="-13.0" type="move" name="bottom"/>
    </contour>
  </outline>
</glyph>
<glyph name="W" format="1">
  <advance width="1599"/>
  <unicode hex="0057"/>
  <outline>
    <contour>
      <point x="490" y="-13" type="line"/>
      <point x="501" y="28" type="line"/>
      <point x="238" y="669" type="line"/>
      <point x="199" y="669" type="line"/>
      <point x="482" y="-13" type="line"/>
    </contour>
    <contour>
      <point x="493" y="-13" type="line"/>
      <point x="816" y="634" type="line"/>
      <point x="801" y="669" type="line"/>
      <point x="796" y="669" type="line"/>
      <point x="477" y="25" type="line"/>
      <point x="487" y="-13" type="line"/>
    </contour>
    <contour>
      <point x="1110" y="-13" type="line"/>
      <point x="1121" y="28" type="line"/>
      <point x="806" y="669" type="line"/>
      <point x="799" y="669" type="line"/>
      <point x="785" y="634" type="line"/>
      <point x="1104" y="-13" type="line"/>
    </contour>
    <contour>
      <point x="1114" y="-13" type="line"/>
      <point x="1399" y="669" type="line"/>
      <point x="1361" y="669" type="line"/>
      <point x="1100" y="28" type="line"/>
      <point x="1109" y="-13" type="line"/>
    </contour>
    <contour>
      <point x="1162" y="686" type="line"/>
      <point x="1162" y="655" type="line"/>
      <point x="1606" y="655" type="line"/>
      <point x="1606" y="686" type="line"/>
    </contour>
    <contour>
      <point x="-7" y="655" type="line"/>
      <point x="438" y="655" type="line"/>
      <point x="438" y="686" type="line"/>
      <point x="-7" y="686" type="line"/>
    </contour>
    <contour>
      <point x="832.0" y="686.0" type="move" name="top"/>
    </contour>
    <contour>
      <point x="823.0" y="0.0" type="move" name="bottom"/>
    </contour>
  </outline>
</glyph>
<glyph name="X" format="1">
  <advance width="953"/>
  <unicode hex="0058"/>
  <outline>
    <contour>
      <point x="908" y="-1" type="line"/>
      <point x="908" y="22" type="line"/>
      <point x="738" y="22" type="line"/>
      <point x="726" y="22" type="line"/>
      <point x="571" y="22" type="line"/>
      <point x="571" y="-1" type="line"/>
    </contour>
    <contour>
      <point x="382" y="-1" type="line"/>
      <point x="382" y="22" type="line"/>
      <point x="231" y="22" type="line"/>
      <point x="216" y="22" type="line"/>
      <point x="45" y="22" type="line"/>
      <point x="45" y="-1" type="line"/>
    </contour>
    <contour>
      <point x="762" y="10" type="line"/>
      <point x="487" y="260" type="line"/>
      <point x="485" y="260" type="line"/>
      <point x="215" y="507" type="line"/>
      <point x="177" y="507" type="line"/>
      <point x="466" y="246" type="line"/>
      <point x="468" y="246" type="line"/>
      <point x="724" y="10" type="line"/>
    </contour>
    <contour>
      <point x="229" y="10" type="line"/>
      <point x="485" y="246" type="line"/>
      <point x="487" y="246" type="line"/>
      <point x="776" y="507" type="line"/>
      <point x="741" y="507" type="line"/>
      <point x="470" y="260" type="line"/>
      <point x="467" y="260" type="line"/>
      <point x="194" y="10" type="line"/>
    </contour>
    <contour>
      <point x="199" y="496" type="line"/>
      <point x="211" y="496" type="line"/>
      <point x="383" y="496" type="line"/>
      <point x="383" y="520" type="line" smooth="yes"/>
      <point x="45" y="520" type="line"/>
      <point x="45" y="496" type="line"/>
    </contour>
    <contour>
      <point x="741" y="496" type="line"/>
      <point x="754" y="496" type="line"/>
      <point x="908" y="496" type="line"/>
      <point x="908" y="520" type="line"/>
      <point x="570" y="520" type="line" smooth="yes"/>
      <point x="570" y="496" type="line"/>
    </contour>
    <contour>
      <point x="477" y="656" type="move" name="top"/>
    </contour>
    <contour>
      <point x="477" y="165" type="move" name="bottom"/>
    </contour>
  </outline>
</glyph>
<glyph name="Y" format="1">
  <advance width="1214"/>
  <unicode hex="0059"/>
  <outline>
    <contour>
      <point x="619" y="235" type="line"/>
      <point x="1009" y="671" type="line"/>
      <point x="965" y="671" type="line"/>
      <point x="608" y="272" type="line"/>
      <point x="256" y="667" type="line"/>
      <point x="209" y="667" type="line"/>
      <point x="595" y="235" type="line"/>
    </contour>
    <contour>
      <point x="865" y="0" type="line"/>
      <point x="865" y="31" type="line"/>
      <point x="351" y="31" type="line"/>
      <point x="351" y="0" type="line"/>
    </contour>
    <contour>
      <point x="625" y="0" type="line"/>
      <point x="625" y="270" type="line"/>
      <point x="592" y="270" type="line"/>
      <point x="592" y="0" type="line"/>
    </contour>
    <contour>
      <point x="451" y="655" type="line"/>
      <point x="451" y="686" type="line"/>
      <point x="7" y="686" type="line"/>
      <point x="7" y="655" type="line"/>
    </contour>
    <contour>
      <point x="1208" y="655" type="line"/>
      <point x="1208" y="686" type="line"/>
      <point x="765" y="686" type="line"/>
      <point x="765" y="655" type="line"/>
    </contour>
    <contour>
      <point x="607.0" y="673.0" type="move" name="top"/>
    </contour>
    <contour>
      <point x="607.0" y="0.0" type="move" name="bottom"/>
    </contour>
  </outline>
</glyph>
<glyph name="Z" format="1">
  <advance width="866"/>
  <unicode hex="005A"/>
  <outline>
    <contour>
      <point x="766" y="0" type="line"/>
      <point x="766" y="184" type="line"/>
      <point x="741" y="184" type="line"/>
      <point x="741" y="24" type="line"/>
      <point x="179" y="24" type="line" smooth="yes"/>
      <point x="166" y="24"/>
      <point x="155" y="20"/>
      <point x="150" y="19" type="curve"/>
      <point x="150" y="20" type="line"/>
      <point x="155" y="22"/>
      <point x="165" y="26"/>
      <point x="174" y="33" type="curve" smooth="yes"/>
      <point x="762" y="508" type="line"/>
      <point x="762" y="521" type="line"/>
      <point x="106" y="521" type="line"/>
      <point x="106" y="337" type="line"/>
      <point x="131" y="337" type="line"/>
      <point x="131" y="499" type="line"/>
      <point x="689" y="499" type="line" smooth="yes"/>
      <point x="705" y="499"/>
      <point x="718" y="502"/>
      <point x="722" y="502" type="curve"/>
      <point x="722" y="502" type="line"/>
      <point x="718" y="501"/>
      <point x="707" y="495"/>
      <point x="695" y="486" type="curve" smooth="yes"/>
      <point x="109" y="14" type="line"/>
      <point x="109" y="0" type="line"/>
    </contour>
    <contour>
      <point x="540" y="686" type="move" name="top"/>
    </contour>
    <contour>
      <point x="540" y="0" type="move" name="bottom"/>
    </contour>
  </outline>
</glyph>
<glyph name="bracketleft" format="1">
  <advance width="370"/>
  <unicode hex="005B"/>
  <outline>
    <contour>
      <point x="156" y="-100" type="line"/>
      <point x="181" y="-100" type="line"/>
      <point x="181" y="582" type="line"/>
      <point x="156" y="582" type="line"/>
    </contour>
    <contour>
      <point x="157" y="559" type="line"/>
      <point x="381" y="559" type="line"/>
      <point x="381" y="582" type="line"/>
      <point x="157" y="582" type="line"/>
    </contour>
    <contour>
      <point x="157" y="-100" type="line"/>
      <point x="381" y="-100" type="line"/>
      <point x="381" y="-77" type="line"/>
      <point x="157" y="-77" type="line"/>
    </contour>
  </outline>
</glyph>
<glyph name="backslash" format="1">
  <advance width="418.0"/>
  <unicode hex="005C"/>
  <outline>
    <contour>
      <point x="397" y="-105" type="line"/>
      <point x="53" y="537" type="line"/>
      <point x="25" y="537" type="line"/>
      <point x="369" y="-105" type="line"/>
    </contour>
  </outline>
</glyph>
<glyph name="bracketright" format="1">
  <advance width="487"/>
  <unicode hex="005D"/>
  <outline>
    <contour>
      <point x="283" y="-100" type="line"/>
      <point x="283" y="798" type="line"/>
      <point x="250" y="798" type="line"/>
      <point x="250" y="-100" type="line"/>
    </contour>
    <contour>
      <point x="279" y="-100" type="line"/>
      <point x="279" y="-70" type="line"/>
      <point x="-13" y="-70" type="line"/>
      <point x="-13" y="-100" type="line"/>
    </contour>
    <contour>
      <point x="279" y="767" type="line"/>
      <point x="279" y="798" type="line"/>
      <point x="-13" y="798" type="line"/>
      <point x="-13" y="767" type="line"/>
    </contour>
  </outline>
</glyph>
<glyph name="asciicircum" format="1">
  <advance width="458"/>
  <unicode hex="005E"/>
  <outline>
    <contour>
      <point x="233" y="617" type="line"/>
      <point x="226" y="594" type="line"/>
      <point x="382" y="325" type="line"/>
      <point x="408" y="325" type="line"/>
      <point x="236" y="617" type="line"/>
    </contour>
    <contour>
      <point x="233" y="617" type="line"/>
      <point x="50" y="325" type="line"/>
      <point x="77" y="325" type="line"/>
      <point x="242" y="594" type="line"/>
      <point x="236" y="617" type="line"/>
    </contour>
  </outline>
</glyph>
<glyph name="a" format="1">
  <advance width="1062"/>
  <unicode hex="0061"/>
  <outline>
    <contour>
      <point x="978" y="-13"/>
      <point x="1014" y="2"/>
      <point x="1045" y="25" type="curve"/>
      <point x="1028" y="50" type="line"/>
      <point x="1002" y="29"/>
      <point x="975" y="18"/>
      <point x="938" y="18" type="curve" smooth="yes"/>
      <point x="895" y="18"/>
      <point x="854" y="51"/>
      <point x="854" y="123" type="curve" smooth="yes"/>
      <point x="854" y="260" type="line" smooth="yes"/>
      <point x="854" y="392"/>
      <point x="755" y="484"/>
      <point x="547" y="484" type="curve" smooth="yes"/>
      <point x="416" y="484"/>
      <point x="282" y="457"/>
      <point x="138" y="409" type="curve"/>
      <point x="147" y="377" type="line"/>
      <point x="283" y="420"/>
      <point x="410" y="453"/>
      <point x="547" y="453" type="curve" smooth="yes"/>
      <point x="738" y="453"/>
      <point x="821" y="371"/>
      <point x="821" y="260" type="curve"/>
      <point x="821" y="123" type="line"/>
      <point x="821" y="37"/>
      <point x="870" y="-13"/>
      <point x="937" y="-13" type="curve" smooth="yes"/>
    </contour>
    <contour>
      <point x="524" y="-13"/>
      <point x="692" y="26"/>
      <point x="836" y="100" type="curve"/>
      <point x="836" y="130" type="line"/>
      <point x="685" y="58"/>
      <point x="521" y="18"/>
      <point x="378" y="18" type="curve" smooth="yes"/>
      <point x="233" y="18"/>
      <point x="152" y="57"/>
      <point x="152" y="126" type="curve" smooth="yes"/>
      <point x="152" y="201"/>
      <point x="259" y="245"/>
      <point x="433" y="245" type="curve" smooth="yes"/>
      <point x="583" y="245"/>
      <point x="724" y="226"/>
      <point x="836" y="202" type="curve"/>
      <point x="836" y="229" type="line"/>
      <point x="724" y="253"/>
      <point x="593" y="276"/>
      <point x="433" y="276" type="curve" smooth="yes"/>
      <point x="238" y="276"/>
      <point x="119" y="222"/>
      <point x="119" y="124" type="curve" smooth="yes"/>
      <point x="119" y="37"/>
      <point x="212" y="-13"/>
      <point x="378" y="-13" type="curve" smooth="yes"/>
    </contour>
    <contour>
      <point x="1045.0" y="25.0" type="move" name="ogonek"/>
    </contour>
    <contour>
      <point x="378.0" y="-13.0" type="move" name="bottom"/>
    </contour>
    <contour>
      <point x="507.0" y="484.0" type="move" name="top"/>
    </contour>
  </outline>
</glyph>
<glyph name="b" format="1">
  <advance width="863"/>
  <unicode hex="0062"/>
  <outline>
    <contour>
      <point x="641" y="-13"/>
      <point x="782" y="64"/>
      <point x="782" y="192" type="curve"/>
      <point x="782" y="301"/>
      <point x="686" y="365"/>
      <point x="543" y="365" type="curve"/>
      <point x="412" y="365"/>
      <point x="290" y="301"/>
      <point x="174" y="217" type="curve"/>
      <point x="174" y="193" type="line"/>
      <point x="299" y="281"/>
      <point x="428" y="341"/>
      <point x="543" y="341" type="curve"/>
      <point x="676" y="341"/>
      <point x="757" y="281"/>
      <point x="757" y="192" type="curve"/>
      <point x="757" y="82"/>
      <point x="630" y="8"/>
      <point x="477" y="11" type="curve"/>
      <point x="358" y="8"/>
      <point x="245" y="52"/>
      <point x="170" y="92" type="curve"/>
      <point x="170" y="71" type="line"/>
      <point x="242" y="29"/>
      <point x="348" y="-13"/>
      <point x="477" y="-13" type="curve"/>
    </contour>
    <contour>
      <point x="181" y="-3" type="line"/>
      <point x="187" y="71" type="line"/>
      <point x="187" y="518" type="line"/>
      <point x="162" y="518" type="line"/>
      <point x="162" y="-3" type="line"/>
    </contour>
    <contour>
      <point x="179" y="495" type="line"/>
      <point x="179" y="518" type="line"/>
      <point x="-20" y="518" type="line"/>
      <point x="-20" y="495" type="line"/>
    </contour>
    <contour>
      <point x="589" y="484" type="move" name="top"/>
    </contour>
    <contour>
      <point x="589" y="-13" type="move" name="bottom"/>
    </contour>
  </outline>
</glyph>
<glyph name="c" format="1">
  <advance width="776"/>
  <unicode hex="0063"/>
  <outline>
    <contour>
      <point x="502" y="-12"/>
      <point x="601" y="31"/>
      <point x="680" y="94" type="curve"/>
      <point x="666" y="112" type="line"/>
      <point x="591" y="53"/>
      <point x="491" y="11"/>
      <point x="366" y="12" type="curve" smooth="yes"/>
      <point x="219" y="12"/>
      <point x="106" y="75"/>
      <point x="106" y="170" type="curve" smooth="yes"/>
      <point x="106" y="284"/>
      <point x="242" y="342"/>
      <point x="376" y="341" type="curve" smooth="yes"/>
      <point x="486" y="341"/>
      <point x="601" y="304"/>
      <point x="668" y="218" type="curve"/>
      <point x="674" y="219" type="line"/>
      <point x="674" y="355" type="line"/>
      <point x="651" y="355" type="line"/>
      <point x="651" y="255" type="line"/>
      <point x="663" y="249" type="line"/>
      <point x="612" y="313"/>
      <point x="502" y="365"/>
      <point x="378" y="365" type="curve" smooth="yes"/>
      <point x="233" y="366"/>
      <point x="81" y="301"/>
      <point x="81" y="170" type="curve" smooth="yes"/>
      <point x="81" y="56"/>
      <point x="209" y="-12"/>
      <point x="366" y="-12" type="curve" smooth="yes"/>
    </contour>
    <contour>
      <point x="472" y="484" type="move" name="top"/>
    </contour>
    <contour>
      <point x="458" y="-13" type="move" name="bottom"/>
    </contour>
  </outline>
</glyph>
<glyph name="d" format="1">
  <advance width="906"/>
  <unicode hex="0064"/>
  <outline>
    <contour>
      <point x="450" y="-14"/>
      <point x="572" y="50"/>
      <point x="688" y="133" type="curve"/>
      <point x="688" y="159" type="line"/>
      <point x="562" y="70"/>
      <point x="433" y="10"/>
      <point x="319" y="10" type="curve"/>
      <point x="185" y="10"/>
      <point x="106" y="70"/>
      <point x="106" y="158" type="curve"/>
      <point x="106" y="269"/>
      <point x="232" y="341"/>
      <point x="385" y="340" type="curve"/>
      <point x="503" y="341"/>
      <point x="617" y="298"/>
      <point x="692" y="257" type="curve"/>
      <point x="692" y="281" type="line"/>
      <point x="619" y="322"/>
      <point x="513" y="364"/>
      <point x="385" y="364" type="curve"/>
      <point x="220" y="364"/>
      <point x="81" y="287"/>
      <point x="81" y="158" type="curve"/>
      <point x="81" y="50"/>
      <point x="176" y="-14"/>
      <point x="319" y="-14" type="curve"/>
    </contour>
    <contour>
      <point x="794" y="-13"/>
      <point x="822" y="-2"/>
      <point x="846" y="16" type="curve"/>
      <point x="836" y="36" type="line"/>
      <point x="812" y="19"/>
      <point x="792" y="10"/>
      <point x="764" y="10" type="curve" smooth="yes"/>
      <point x="732" y="10"/>
      <point x="701" y="35"/>
      <point x="701" y="91" type="curve" smooth="yes"/>
      <point x="701" y="518" type="line"/>
      <point x="676" y="518" type="line"/>
      <point x="676" y="91" type="line" smooth="yes"/>
      <point x="676" y="25"/>
      <point x="712" y="-13"/>
      <point x="763" y="-13" type="curve" smooth="yes"/>
    </contour>
    <contour>
      <point x="692" y="495" type="line"/>
      <point x="692" y="518" type="line"/>
      <point x="492" y="518" type="line"/>
      <point x="492" y="495" type="line"/>
    </contour>
    <contour>
      <point x="536" y="-13" type="move" name="bottom"/>
    </contour>
    <contour>
      <point x="536" y="484" type="move" name="top"/>
    </contour>
    <contour>
      <point x="953" y="447" type="move" name="topright"/>
    </contour>
    <contour>
      <point x="536" y="237" type="move" name="center"/>
    </contour>
  </outline>
</glyph>
<glyph name="e" format="1">
  <advance width="753"/>
  <unicode hex="0065"/>
  <outline>
    <contour>
      <point x="507" y="-13"/>
      <point x="592" y="19"/>
      <point x="668" y="66" type="curve"/>
      <point x="657" y="87" type="line"/>
      <point x="583" y="40"/>
      <point x="496" y="8"/>
      <point x="371" y="11" type="curve" smooth="yes"/>
      <point x="219" y="11"/>
      <point x="106" y="74"/>
      <point x="106" y="169" type="curve" smooth="yes"/>
      <point x="106" y="278"/>
      <point x="252" y="341"/>
      <point x="401" y="341" type="curve" smooth="yes"/>
      <point x="542" y="341"/>
      <point x="629" y="307"/>
      <point x="629" y="248" type="curve" smooth="yes"/>
      <point x="629" y="184"/>
      <point x="535" y="161"/>
      <point x="415" y="161" type="curve" smooth="yes"/>
      <point x="306" y="161"/>
      <point x="206" y="179"/>
      <point x="100" y="214" type="curve"/>
      <point x="100" y="194" type="line"/>
      <point x="206" y="157"/>
      <point x="306" y="137"/>
      <point x="415" y="137" type="curve" smooth="yes"/>
      <point x="550" y="137"/>
      <point x="654" y="169"/>
      <point x="654" y="248" type="curve" smooth="yes"/>
      <point x="654" y="321"/>
      <point x="553" y="365"/>
      <point x="401" y="365" type="curve" smooth="yes"/>
      <point x="241" y="365"/>
      <point x="81" y="295"/>
      <point x="81" y="169" type="curve" smooth="yes"/>
      <point x="81" y="54"/>
      <point x="209" y="-13"/>
      <point x="371" y="-13" type="curve" smooth="yes"/>
    </contour>
    <contour>
      <point x="854" y="91" type="move" name="ogonek"/>
    </contour>
    <contour>
      <point x="463" y="-13" type="move" name="bottom"/>
    </contour>
    <contour>
      <point x="471" y="484" type="move" name="top"/>
    </contour>
  </outline>
</glyph>
<glyph name="f" format="1">
  <advance width="556"/>
  <unicode hex="0066"/>
  <outline>
    <contour>
      <point x="236" y="0" type="line"/>
      <point x="236" y="390" type="line"/>
      <point x="236" y="486"/>
      <point x="277" y="534"/>
      <point x="375" y="534" type="curve" smooth="yes"/>
      <point x="432" y="534"/>
      <point x="498" y="518"/>
      <point x="548" y="499" type="curve"/>
      <point x="556" y="521" type="line"/>
      <point x="506" y="537"/>
      <point x="441" y="557"/>
      <point x="376" y="557" type="curve" smooth="yes"/>
      <point x="261" y="557"/>
      <point x="211" y="496"/>
      <point x="211" y="387" type="curve"/>
      <point x="211" y="0" type="line"/>
    </contour>
    <contour>
      <point x="443" y="0" type="line"/>
      <point x="443" y="24" type="line"/>
      <point x="50" y="24" type="line"/>
      <point x="50" y="0" type="line"/>
    </contour>
    <contour>
      <point x="461" y="334" type="line"/>
      <point x="461" y="358" type="line"/>
      <point x="50" y="358" type="line"/>
      <point x="50" y="334" type="line"/>
    </contour>
  </outline>
</glyph>
<glyph name="g" format="1">
  <advance width="758"/>
  <unicode hex="0067"/>
  <outline>
    <contour>
      <point x="545" y="-167"/>
      <point x="692" y="-123"/>
      <point x="692" y="-32" type="curve" smooth="yes"/>
      <point x="692" y="30"/>
      <point x="632" y="58"/>
      <point x="556" y="58" type="curve" smooth="yes"/>
      <point x="481" y="58"/>
      <point x="316" y="24"/>
      <point x="239" y="24" type="curve" smooth="yes"/>
      <point x="135" y="24"/>
      <point x="101" y="62"/>
      <point x="101" y="93" type="curve" smooth="yes"/>
      <point x="101" y="135"/>
      <point x="149" y="158"/>
      <point x="184" y="170" type="curve"/>
      <point x="165" y="180" type="line"/>
      <point x="130" y="169"/>
      <point x="78" y="140"/>
      <point x="78" y="90" type="curve" smooth="yes"/>
      <point x="78" y="55"/>
      <point x="109" y="3"/>
      <point x="236" y="3" type="curve" smooth="yes"/>
      <point x="317" y="3"/>
      <point x="477" y="34"/>
      <point x="556" y="34" type="curve" smooth="yes"/>
      <point x="622" y="34"/>
      <point x="667" y="15"/>
      <point x="667" y="-32" type="curve" smooth="yes"/>
      <point x="667" y="-109"/>
      <point x="530" y="-143"/>
      <point x="350" y="-143" type="curve" smooth="yes"/>
      <point x="166" y="-143"/>
      <point x="95" y="-102"/>
      <point x="95" y="-48" type="curve" smooth="yes"/>
      <point x="95" y="-16"/>
      <point x="122" y="13"/>
      <point x="155" y="24" type="curve"/>
      <point x="136" y="33" type="line"/>
      <point x="109" y="23"/>
      <point x="70" y="-8"/>
      <point x="70" y="-51" type="curve" smooth="yes"/>
      <point x="70" y="-117"/>
      <point x="152" y="-167"/>
      <point x="351" y="-167" type="curve" smooth="yes"/>
    </contour>
    <contour>
      <point x="513" y="107"/>
      <point x="632" y="148"/>
      <point x="632" y="238" type="curve"/>
      <point x="632" y="326"/>
      <point x="513" y="366"/>
      <point x="377" y="366" type="curve"/>
      <point x="242" y="366"/>
      <point x="125" y="326"/>
      <point x="125" y="238" type="curve"/>
      <point x="125" y="148"/>
      <point x="242" y="105"/>
      <point x="377" y="107" type="curve"/>
    </contour>
    <contour>
      <point x="254" y="131"/>
      <point x="150" y="167"/>
      <point x="150" y="238" type="curve"/>
      <point x="150" y="309"/>
      <point x="254" y="343"/>
      <point x="377" y="343" type="curve"/>
      <point x="502" y="343"/>
      <point x="606" y="309"/>
      <point x="606" y="238" type="curve"/>
      <point x="606" y="167"/>
      <point x="502" y="131"/>
      <point x="377" y="131" type="curve"/>
    </contour>
    <contour>
      <point x="587" y="390"/>
      <point x="633" y="418"/>
      <point x="691" y="421" type="curve"/>
      <point x="691" y="446" type="line"/>
      <point x="625" y="443"/>
      <point x="572" y="401"/>
      <point x="558" y="325" type="curve"/>
      <point x="568" y="309" type="line"/>
    </contour>
    <contour>
      <point x="377" y="542" type="move" name="top"/>
    </contour>
    <contour>
      <point x="368" y="0" type="move" name="bottom"/>
    </contour>
  </outline>
</glyph>
<glyph name="h" format="1">
  <advance width="1237"/>
  <unicode hex="0068"/>
  <outline>
    <contour>
      <point x="992" y="0" type="line"/>
      <point x="992" y="178" type="line"/>
      <point x="992" y="339"/>
      <point x="928" y="484"/>
      <point x="722" y="484" type="curve" smooth="yes"/>
      <point x="542" y="484"/>
      <point x="381" y="348"/>
      <point x="296" y="278" type="curve"/>
      <point x="296" y="248" type="line"/>
      <point x="381" y="315"/>
      <point x="542" y="453"/>
      <point x="722" y="453" type="curve" smooth="yes"/>
      <point x="915" y="453"/>
      <point x="959" y="312"/>
      <point x="959" y="178" type="curve"/>
      <point x="959" y="0" type="line"/>
    </contour>
    <contour>
      <point x="524" y="0" type="line"/>
      <point x="524" y="31" type="line"/>
      <point x="40" y="31" type="line"/>
      <point x="40" y="0" type="line"/>
    </contour>
    <contour>
      <point x="315" y="0" type="line"/>
      <point x="315" y="686" type="line"/>
      <point x="41" y="686" type="line"/>
      <point x="41" y="655" type="line"/>
      <point x="282" y="655" type="line"/>
      <point x="282" y="0" type="line"/>
    </contour>
    <contour>
      <point x="1220" y="0" type="line"/>
      <point x="1220" y="31" type="line"/>
      <point x="748" y="31" type="line"/>
      <point x="748" y="0" type="line"/>
    </contour>
    <contour>
      <point x="615.0" y="237.0" type="move" name="center"/>
    </contour>
    <contour>
      <point x="615.0" y="0.0" type="move" name="bottom"/>
    </contour>
    <contour>
      <point x="615.0" y="484.0" type="move" name="top"/>
    </contour>
  </outline>
</glyph>
<glyph name="i" format="1">
  <advance width="470"/>
  <unicode hex="0069"/>
  <outline>
    <contour>
      <point x="258" y="0" type="line"/>
      <point x="258" y="358" type="line"/>
      <point x="233" y="358" type="line"/>
      <point x="233" y="0" type="line"/>
    </contour>
    <contour>
      <point x="441" y="0" type="line"/>
      <point x="441" y="24" type="line"/>
      <point x="50" y="24" type="line"/>
      <point x="50" y="0" type="line"/>
    </contour>
    <contour>
      <point x="258" y="334" type="line"/>
      <point x="258" y="358" type="line"/>
      <point x="50" y="358" type="line"/>
      <point x="50" y="334" type="line"/>
    </contour>
    <contour>
      <point x="266" y="470"/>
      <point x="282" y="483"/>
      <point x="282" y="501" type="curve"/>
      <point x="282" y="518"/>
      <point x="266" y="532"/>
      <point x="235" y="532" type="curve"/>
      <point x="205" y="532"/>
      <point x="187" y="518"/>
      <point x="187" y="501" type="curve"/>
      <point x="187" y="483"/>
      <point x="205" y="470"/>
      <point x="235" y="470" type="curve"/>
    </contour>
    <contour>
      <point x="525" y="13" type="move" name="ogonek"/>
    </contour>
    <contour>
      <point x="270" y="0" type="move" name="bottom"/>
    </contour>
    <contour>
      <point x="283" y="471" type="move" name="top"/>
    </contour>
  </outline>
</glyph>
<glyph name="j" format="1">
  <advance width="445"/>
  <unicode hex="006A"/>
  <outline>
    <contour>
      <point x="220" y="-238"/>
      <point x="270" y="-176"/>
      <point x="270" y="-79" type="curve" smooth="yes"/>
      <point x="270" y="288" type="line"/>
      <point x="245" y="288" type="line"/>
      <point x="245" y="-81" type="line" smooth="yes"/>
      <point x="245" y="-168"/>
      <point x="202" y="-214"/>
      <point x="126" y="-214" type="curve" smooth="yes"/>
      <point x="80" y="-214"/>
      <point x="34" y="-204"/>
      <point x="-8" y="-191" type="curve"/>
      <point x="-15" y="-213" type="line"/>
      <point x="27" y="-226"/>
      <point x="74" y="-238"/>
      <point x="125" y="-238" type="curve" smooth="yes"/>
    </contour>
    <contour>
      <point x="270" y="277" type="line"/>
      <point x="270" y="301" type="line"/>
      <point x="62" y="301" type="line"/>
      <point x="62" y="277" type="line"/>
    </contour>
    <contour>
      <point x="279" y="413"/>
      <point x="295" y="426"/>
      <point x="295" y="444" type="curve"/>
      <point x="295" y="461"/>
      <point x="279" y="475"/>
      <point x="248" y="475" type="curve"/>
      <point x="217" y="475"/>
      <point x="200" y="461"/>
      <point x="200" y="444" type="curve"/>
      <point x="200" y="426"/>
      <point x="217" y="413"/>
      <point x="248" y="413" type="curve"/>
    </contour>
    <contour>
      <point x="283" y="471" type="move" name="top"/>
    </contour>
    <contour>
      <point x="283" y="0" type="move" name="bottom"/>
    </contour>
  </outline>
</glyph>
<glyph name="k" format="1">
  <advance width="892"/>
  <unicode hex="006B"/>
  <outline>
    <contour>
      <point x="647" y="128"/>
      <point x="758" y="171"/>
      <point x="758" y="258" type="curve" smooth="yes"/>
      <point x="758" y="323"/>
      <point x="692" y="362"/>
      <point x="584" y="362" type="curve" smooth="yes"/>
      <point x="467" y="362"/>
      <point x="340" y="305"/>
      <point x="224" y="226" type="curve"/>
      <point x="224" y="205" type="line"/>
      <point x="340" y="283"/>
      <point x="463" y="338"/>
      <point x="578" y="338" type="curve" smooth="yes"/>
      <point x="673" y="338"/>
      <point x="733" y="311"/>
      <point x="733" y="256" type="curve" smooth="yes"/>
      <point x="733" y="188"/>
      <point x="625" y="152"/>
      <point x="473" y="152" type="curve" smooth="yes"/>
      <point x="382" y="152"/>
      <point x="267" y="165"/>
      <point x="223" y="172" type="curve"/>
      <point x="220" y="154" type="line"/>
      <point x="267" y="145"/>
      <point x="367" y="128"/>
      <point x="470" y="128" type="curve" smooth="yes"/>
    </contour>
    <contour>
      <point x="420" y="-6" type="line"/>
      <point x="420" y="17" type="line"/>
      <point x="30" y="17" type="line"/>
      <point x="30" y="-6" type="line"/>
    </contour>
    <contour>
      <point x="237" y="-6" type="line"/>
      <point x="237" y="515" type="line"/>
      <point x="212" y="515" type="line"/>
      <point x="212" y="-6" type="line"/>
    </contour>
    <contour>
      <point x="237" y="492" type="line"/>
      <point x="237" y="515" type="line"/>
      <point x="30" y="515" type="line"/>
      <point x="30" y="492" type="line"/>
    </contour>
    <contour>
      <point x="766" y="-26"/>
      <point x="819" y="25"/>
      <point x="832" y="93" type="curve"/>
      <point x="811" y="98" type="line"/>
      <point x="797" y="32"/>
      <point x="746" y="-2"/>
      <point x="687" y="-2" type="curve" smooth="yes"/>
      <point x="605" y="-2"/>
      <point x="555" y="53"/>
      <point x="483" y="145" type="curve"/>
      <point x="458" y="145" type="line"/>
      <point x="521" y="51"/>
      <point x="594" y="-26"/>
      <point x="686" y="-26" type="curve" smooth="yes"/>
    </contour>
    <contour>
      <point x="615" y="484" type="move" name="top"/>
    </contour>
    <contour>
      <point x="615" y="0" type="move" name="bottom"/>
    </contour>
  </outline>
</glyph>
<glyph name="l" format="1">
  <advance width="592"/>
  <unicode hex="006C"/>
  <outline>
    <contour>
      <point x="312" y="0" type="line"/>
      <point x="312" y="686" type="line"/>
      <point x="279" y="686" type="line"/>
      <point x="279" y="0" type="line"/>
    </contour>
    <contour>
      <point x="553" y="0" type="line"/>
      <point x="553" y="31" type="line"/>
      <point x="40" y="31" type="line"/>
      <point x="40" y="0" type="line"/>
    </contour>
    <contour>
      <point x="312" y="655" type="line"/>
      <point x="312" y="686" type="line"/>
      <point x="40" y="686" type="line"/>
      <point x="40" y="655" type="line"/>
    </contour>
    <contour>
      <point x="279.0" y="0.0" type="move" name="bottom"/>
    </contour>
    <contour>
      <point x="279.0" y="686.0" type="move" name="top"/>
    </contour>
    <contour>
      <point x="370.0" y="444.0" type="move" name="topright"/>
    </contour>
    <contour>
      <point x="279.0" y="374.0" type="move" name="center"/>
    </contour>
  </outline>
</glyph>
<glyph name="m" format="1">
  <advance width="1263"/>
  <unicode hex="006D"/>
  <outline>
    <contour>
      <point x="258" y="333" type="line"/>
      <point x="258" y="357" type="line"/>
      <point x="50" y="357" type="line"/>
      <point x="50" y="333" type="line"/>
    </contour>
    <contour>
      <point x="258" y="-1" type="line"/>
      <point x="258" y="357" type="line"/>
      <point x="233" y="357" type="line"/>
      <point x="233" y="-1" type="line"/>
    </contour>
    <contour>
      <point x="393" y="-1" type="line"/>
      <point x="393" y="22" type="line"/>
      <point x="50" y="22" type="line"/>
      <point x="50" y="-1" type="line"/>
    </contour>
    <contour>
      <point x="662" y="-1" type="line"/>
      <point x="662" y="155" type="line"/>
      <point x="662" y="278"/>
      <point x="623" y="366"/>
      <point x="495" y="366" type="curve" smooth="yes"/>
      <point x="386" y="366"/>
      <point x="300" y="290"/>
      <point x="245" y="210" type="curve"/>
      <point x="245" y="187" type="line"/>
      <point x="315" y="268"/>
      <point x="386" y="343"/>
      <point x="495" y="343" type="curve" smooth="yes"/>
      <point x="613" y="343"/>
      <point x="638" y="258"/>
      <point x="638" y="155" type="curve"/>
      <point x="638" y="-1" type="line"/>
    </contour>
    <contour>
      <point x="797" y="-1" type="line"/>
      <point x="797" y="22" type="line"/>
      <point x="502" y="22" type="line"/>
      <point x="502" y="-1" type="line"/>
    </contour>
    <contour>
      <point x="1068" y="-1" type="line"/>
      <point x="1068" y="155" type="line"/>
      <point x="1068" y="278"/>
      <point x="1028" y="366"/>
      <point x="899" y="366" type="curve" smooth="yes"/>
      <point x="791" y="366"/>
      <point x="704" y="290"/>
      <point x="649" y="210" type="curve"/>
      <point x="649" y="187" type="line"/>
      <point x="718" y="268"/>
      <point x="791" y="343"/>
      <point x="899" y="343" type="curve" smooth="yes"/>
      <point x="1018" y="343"/>
      <point x="1043" y="258"/>
      <point x="1043" y="155" type="curve"/>
      <point x="1043" y="-1" type="line"/>
    </contour>
    <contour>
      <point x="1250" y="-1" type="line"/>
      <point x="1250" y="22" type="line"/>
      <point x="907" y="22" type="line"/>
      <point x="907" y="-1" type="line"/>
    </contour>
    <contour>
      <point x="647" y="532" type="move" name="top"/>
    </contour>
    <contour>
      <point x="647" y="165" type="move" name="bottom"/>
    </contour>
  </outline>
</glyph>
<glyph name="n" format="1">
  <advance width="960"/>
  <unicode hex="006E"/>
  <outline>
    <contour>
      <point x="774" y="0" type="line"/>
      <point x="774" y="135" type="line"/>
      <point x="774" y="258"/>
      <point x="726" y="368"/>
      <point x="568" y="368" type="curve" smooth="yes"/>
      <point x="432" y="368"/>
      <point x="309" y="264"/>
      <point x="245" y="211" type="curve"/>
      <point x="245" y="188" type="line"/>
      <point x="309" y="239"/>
      <point x="432" y="344"/>
      <point x="568" y="344" type="curve" smooth="yes"/>
      <point x="716" y="344"/>
      <point x="749" y="237"/>
      <point x="749" y="135" type="curve"/>
      <point x="749" y="0" type="line"/>
    </contour>
    <contour>
      <point x="418" y="0" type="line"/>
      <point x="418" y="24" type="line"/>
      <point x="50" y="24" type="line"/>
      <point x="50" y="0" type="line"/>
    </contour>
    <contour>
      <point x="258" y="0" type="line"/>
      <point x="258" y="358" type="line"/>
      <point x="233" y="358" type="line"/>
      <point x="233" y="0" type="line"/>
    </contour>
    <contour>
      <point x="258" y="334" type="line"/>
      <point x="258" y="358" type="line"/>
      <point x="50" y="358" type="line"/>
      <point x="50" y="334" type="line"/>
    </contour>
    <contour>
      <point x="947" y="0" type="line"/>
      <point x="947" y="24" type="line"/>
      <point x="588" y="24" type="line"/>
      <point x="588" y="0" type="line"/>
    </contour>
    <contour>
      <point x="669" y="484" type="move" name="top"/>
    </contour>
    <contour>
      <point x="656" y="0" type="move" name="bottom"/>
    </contour>
  </outline>
</glyph>
<glyph name="o" format="1">
  <advance width="802"/>
  <unicode hex="006F"/>
  <outline>
    <contour>
      <point x="580" y="-13"/>
      <point x="721" y="57"/>
      <point x="721" y="177" type="curve"/>
      <point x="721" y="299"/>
      <point x="580" y="365"/>
      <point x="401" y="365" type="curve"/>
      <point x="222" y="364"/>
      <point x="81" y="299"/>
      <point x="81" y="177" type="curve"/>
      <point x="81" y="57"/>
      <point x="222" y="-13"/>
      <point x="401" y="-13" type="curve" smooth="yes"/>
    </contour>
    <contour>
      <point x="233" y="11"/>
      <point x="106" y="73"/>
      <point x="106" y="177" type="curve"/>
      <point x="106" y="283"/>
      <point x="233" y="340"/>
      <point x="401" y="341" type="curve"/>
      <point x="568" y="341"/>
      <point x="696" y="283"/>
      <point x="696" y="177" type="curve"/>
      <point x="696" y="73"/>
      <point x="568" y="11"/>
      <point x="401" y="11" type="curve" smooth="yes"/>
    </contour>
    <contour>
      <point x="502" y="-13" type="move" name="bottom"/>
    </contour>
    <contour>
      <point x="502" y="-13" type="move" name="ogonek"/>
    </contour>
    <contour>
      <point x="503" y="484" type="move" name="top"/>
    </contour>
    <contour>
      <point x="990" y="471" type="move" name="topright"/>
    </contour>
    <contour>
      <point x="503" y="237" type="move" name="center"/>
    </contour>
  </outline>
</glyph>
<glyph name="p" format="1">
  <advance width="913"/>
  <unicode hex="0070"/>
  <outline>
    <contour>
      <point x="692" y="-62"/>
      <point x="832" y="15"/>
      <point x="832" y="143" type="curve"/>
      <point x="832" y="252"/>
      <point x="736" y="316"/>
      <point x="593" y="316" type="curve"/>
      <point x="462" y="316"/>
      <point x="340" y="252"/>
      <point x="224" y="167" type="curve"/>
      <point x="224" y="144" type="line"/>
      <point x="350" y="232"/>
      <point x="478" y="292"/>
      <point x="593" y="292" type="curve"/>
      <point x="727" y="292"/>
      <point x="807" y="232"/>
      <point x="807" y="143" type="curve"/>
      <point x="807" y="33"/>
      <point x="680" y="-41"/>
      <point x="527" y="-39" type="curve"/>
      <point x="408" y="-41"/>
      <point x="295" y="3"/>
      <point x="220" y="43" type="curve"/>
      <point x="220" y="21" type="line"/>
      <point x="293" y="-20"/>
      <point x="398" y="-62"/>
      <point x="527" y="-62" type="curve"/>
    </contour>
    <contour>
      <point x="429" y="-218" type="line"/>
      <point x="429" y="-194" type="line"/>
      <point x="30" y="-194" type="line"/>
      <point x="30" y="-218" type="line"/>
    </contour>
    <contour>
      <point x="236" y="-218" type="line"/>
      <point x="236" y="306" type="line"/>
      <point x="211" y="306" type="line"/>
      <point x="211" y="-218" type="line"/>
    </contour>
    <contour>
      <point x="236" y="282" type="line"/>
      <point x="236" y="306" type="line"/>
      <point x="30" y="306" type="line"/>
      <point x="30" y="282" type="line"/>
    </contour>
    <contour>
      <point x="596" y="484" type="move" name="top"/>
    </contour>
    <contour>
      <point x="596" y="-13" type="move" name="bottom"/>
    </contour>
  </outline>
</glyph>
<glyph name="q" format="1">
  <advance width="908"/>
  <unicode hex="0071"/>
  <outline>
    <contour>
      <point x="450" y="-63"/>
      <point x="572" y="1"/>
      <point x="688" y="84" type="curve"/>
      <point x="688" y="110" type="line"/>
      <point x="562" y="21"/>
      <point x="433" y="-39"/>
      <point x="319" y="-39" type="curve"/>
      <point x="185" y="-39"/>
      <point x="106" y="21"/>
      <point x="106" y="109" type="curve"/>
      <point x="106" y="220"/>
      <point x="232" y="292"/>
      <point x="385" y="291" type="curve" smooth="yes"/>
      <point x="527" y="292"/>
      <point x="703" y="233"/>
      <point x="833" y="172" type="curve"/>
      <point x="833" y="197" type="line"/>
      <point x="704" y="259"/>
      <point x="538" y="316"/>
      <point x="385" y="315" type="curve" smooth="yes"/>
      <point x="220" y="315"/>
      <point x="81" y="238"/>
      <point x="81" y="109" type="curve"/>
      <point x="81" y="1"/>
      <point x="176" y="-63"/>
      <point x="319" y="-63" type="curve"/>
    </contour>
    <contour>
      <point x="883" y="-218" type="line"/>
      <point x="883" y="-194" type="line"/>
      <point x="483" y="-194" type="line"/>
      <point x="483" y="-218" type="line"/>
    </contour>
    <contour>
      <point x="701" y="-218" type="line"/>
      <point x="701" y="317" type="line"/>
      <point x="688" y="317" type="line"/>
      <point x="676" y="249" type="line"/>
      <point x="676" y="-218" type="line"/>
    </contour>
    <contour>
      <point x="479" y="237" type="move" name="center"/>
    </contour>
    <contour>
      <point x="479" y="-13" type="move" name="bottom"/>
    </contour>
    <contour>
      <point x="479" y="484" type="move" name="top"/>
    </contour>
  </outline>
</glyph>
<glyph name="r" format="1">
  <advance width="727"/>
  <unicode hex="0072"/>
  <outline>
    <contour>
      <point x="377" y="287"/>
      <point x="499" y="344"/>
      <point x="627" y="344" type="curve"/>
      <point x="627" y="220" type="line"/>
      <point x="652" y="220" type="line"/>
      <point x="652" y="367" type="line"/>
      <point x="627" y="368" type="line"/>
      <point x="483" y="368"/>
      <point x="367" y="306"/>
      <point x="245" y="211" type="curve"/>
      <point x="245" y="188" type="line"/>
    </contour>
    <contour>
      <point x="441" y="0" type="line"/>
      <point x="441" y="24" type="line"/>
      <point x="50" y="24" type="line"/>
      <point x="50" y="0" type="line"/>
    </contour>
    <contour>
      <point x="258" y="0" type="line"/>
      <point x="258" y="358" type="line"/>
      <point x="233" y="358" type="line"/>
      <point x="233" y="0" type="line"/>
    </contour>
    <contour>
      <point x="258" y="334" type="line"/>
      <point x="258" y="358" type="line"/>
      <point x="50" y="358" type="line"/>
      <point x="50" y="334" type="line"/>
    </contour>
    <contour>
      <point x="453" y="471" type="move" name="top"/>
    </contour>
    <contour>
      <point x="453" y="0" type="move" name="bottom"/>
    </contour>
  </outline>
</glyph>
<glyph name="s" format="1">
  <advance width="746"/>
  <unicode hex="0073"/>
  <outline>
    <contour>
      <point x="553" y="-13"/>
      <point x="641" y="16"/>
      <point x="641" y="83" type="curve" smooth="yes"/>
      <point x="641" y="156"/>
      <point x="555" y="174"/>
      <point x="365" y="186" type="curve" smooth="yes"/>
      <point x="190" y="196"/>
      <point x="126" y="220"/>
      <point x="126" y="266" type="curve" smooth="yes"/>
      <point x="126" y="316"/>
      <point x="198" y="343"/>
      <point x="315" y="343" type="curve" smooth="yes"/>
      <point x="441" y="343"/>
      <point x="551" y="304"/>
      <point x="624" y="217" type="curve"/>
      <point x="624" y="217" type="line"/>
      <point x="624" y="355" type="line"/>
      <point x="600" y="355" type="line"/>
      <point x="600" y="255" type="line"/>
      <point x="617" y="248" type="line"/>
      <point x="568" y="312"/>
      <point x="458" y="365"/>
      <point x="320" y="365" type="curve" smooth="yes"/>
      <point x="169" y="365"/>
      <point x="102" y="324"/>
      <point x="102" y="264" type="curve" smooth="yes"/>
      <point x="102" y="202"/>
      <point x="181" y="171"/>
      <point x="365" y="161" type="curve" smooth="yes"/>
      <point x="548" y="150"/>
      <point x="616" y="134"/>
      <point x="616" y="82" type="curve" smooth="yes"/>
      <point x="616" y="23"/>
      <point x="520" y="9"/>
      <point x="415" y="9" type="curve" smooth="yes"/>
      <point x="293" y="9"/>
      <point x="165" y="47"/>
      <point x="95" y="133" type="curve"/>
      <point x="95" y="133" type="line"/>
      <point x="95" y="-3" type="line"/>
      <point x="119" y="-3" type="line"/>
      <point x="119" y="96" type="line"/>
      <point x="101" y="103" type="line"/>
      <point x="149" y="40"/>
      <point x="271" y="-13"/>
      <point x="410" y="-13" type="curve" smooth="yes"/>
    </contour>
    <contour>
      <point x="458" y="484" type="move" name="top"/>
    </contour>
    <contour>
      <point x="511" y="-13" type="move" name="bottom"/>
    </contour>
  </outline>
</glyph>
<glyph name="t" format="1">
  <advance width="691"/>
  <unicode hex="0074"/>
  <outline>
    <contour>
      <point x="470" y="-13"/>
      <point x="554" y="19"/>
      <point x="612" y="46" type="curve"/>
      <point x="598" y="74" type="line"/>
      <point x="543" y="46"/>
      <point x="466" y="18"/>
      <point x="375" y="18" type="curve" smooth="yes"/>
      <point x="293" y="18"/>
      <point x="238" y="54"/>
      <point x="238" y="163" type="curve"/>
      <point x="238" y="602" type="line"/>
      <point x="205" y="602" type="line"/>
      <point x="205" y="163" type="line"/>
      <point x="205" y="35"/>
      <point x="271" y="-13"/>
      <point x="377" y="-13" type="curve" smooth="yes"/>
    </contour>
    <contour>
      <point x="552" y="440" type="line"/>
      <point x="552" y="471" type="line"/>
      <point x="33" y="471" type="line"/>
      <point x="33" y="440" type="line"/>
    </contour>
    <contour>
      <point x="344.0" y="-13.0" type="move" name="bottom"/>
    </contour>
    <contour>
      <point x="344.0" y="602.0" type="move" name="top"/>
    </contour>
    <contour>
      <point x="301.0" y="596.0" type="move" name="topright"/>
    </contour>
    <contour>
      <point x="344.0" y="237.0" type="move" name="center"/>
    </contour>
  </outline>
</glyph>
<glyph name="u" format="1">
  <advance width="913"/>
  <unicode hex="0075"/>
  <outline>
    <contour>
      <point x="496" y="-13"/>
      <point x="592" y="37"/>
      <point x="692" y="86" type="curve"/>
      <point x="692" y="109" type="line"/>
      <point x="592" y="58"/>
      <point x="482" y="11"/>
      <point x="382" y="11" type="curve"/>
      <point x="272" y="11"/>
      <point x="211" y="57"/>
      <point x="211" y="163" type="curve"/>
      <point x="211" y="355" type="line"/>
      <point x="185" y="355" type="line"/>
      <point x="185" y="163" type="line"/>
      <point x="185" y="36"/>
      <point x="261" y="-13"/>
      <point x="382" y="-13" type="curve"/>
    </contour>
    <contour>
      <point x="198" y="331" type="line"/>
      <point x="198" y="355" type="line"/>
      <point x="14" y="355" type="line"/>
      <point x="14" y="331" type="line"/>
    </contour>
    <contour>
      <point x="802" y="-13"/>
      <point x="828" y="-2"/>
      <point x="853" y="16" type="curve"/>
      <point x="843" y="36" type="line"/>
      <point x="819" y="19"/>
      <point x="797" y="11"/>
      <point x="771" y="11" type="curve" smooth="yes"/>
      <point x="738" y="11"/>
      <point x="707" y="36"/>
      <point x="707" y="91" type="curve"/>
      <point x="707" y="355" type="line"/>
      <point x="682" y="355" type="line"/>
      <point x="682" y="91" type="line"/>
      <point x="682" y="25"/>
      <point x="719" y="-13"/>
      <point x="769" y="-13" type="curve" smooth="yes"/>
    </contour>
    <contour>
      <point x="699" y="331" type="line"/>
      <point x="699" y="355" type="line"/>
      <point x="521" y="355" type="line"/>
      <point x="521" y="331" type="line"/>
    </contour>
    <contour>
      <point x="1118" y="25" type="move" name="ogonek"/>
    </contour>
    <contour>
      <point x="556" y="458" type="move" name="top"/>
    </contour>
    <contour>
      <point x="1085" y="471" type="move" name="topright"/>
    </contour>
    <contour>
      <point x="499" y="-13" type="move" name="bottom"/>
    </contour>
  </outline>
</glyph>
<glyph name="v" format="1">
  <advance width="755"/>
  <unicode hex="0076"/>
  <outline>
    <contour>
      <point x="378" y="-13" type="line"/>
      <point x="637" y="346" type="line"/>
      <point x="610" y="346" type="line"/>
      <point x="376" y="20" type="line"/>
      <point x="142" y="346" type="line"/>
      <point x="112" y="346" type="line"/>
      <point x="372" y="-13" type="line"/>
    </contour>
    <contour>
      <point x="274" y="331" type="line"/>
      <point x="274" y="355" type="line"/>
      <point x="0" y="355" type="line"/>
      <point x="0" y="331" type="line"/>
    </contour>
    <contour>
      <point x="755" y="331" type="line"/>
      <point x="755" y="355" type="line"/>
      <point x="481" y="355" type="line"/>
      <point x="481" y="331" type="line"/>
    </contour>
    <contour>
      <point x="497" y="458" type="move" name="top"/>
    </contour>
    <contour>
      <point x="495" y="0" type="move" name="bottom"/>
    </contour>
  </outline>
</glyph>
<glyph name="w" format="1">
  <advance width="979"/>
  <unicode hex="0077"/>
  <outline>
    <contour>
      <point x="135" y="331" type="line"/>
      <point x="144" y="331" type="line"/>
      <point x="279" y="331" type="line"/>
      <point x="279" y="355" type="line"/>
      <point x="5" y="355" type="line"/>
      <point x="5" y="331" type="line"/>
    </contour>
    <contour>
      <point x="302" y="-13" type="line"/>
      <point x="312" y="6" type="line"/>
      <point x="150" y="346" type="line"/>
      <point x="122" y="346" type="line"/>
      <point x="296" y="-13" type="line"/>
    </contour>
    <contour>
      <point x="302" y="-13" type="line"/>
      <point x="495" y="323" type="line"/>
      <point x="487" y="346" type="line"/>
      <point x="485" y="346" type="line"/>
      <point x="291" y="6" type="line"/>
      <point x="296" y="-13" type="line"/>
    </contour>
    <contour>
      <point x="678" y="-13" type="line"/>
      <point x="686" y="6" type="line"/>
      <point x="491" y="346" type="line"/>
      <point x="485" y="346" type="line"/>
      <point x="478" y="323" type="line"/>
      <point x="672" y="-13" type="line"/>
    </contour>
    <contour>
      <point x="678" y="-13" type="line"/>
      <point x="852" y="346" type="line"/>
      <point x="827" y="346" type="line"/>
      <point x="667" y="6" type="line"/>
      <point x="673" y="-13" type="line"/>
    </contour>
    <contour>
      <point x="828" y="331" type="line"/>
      <point x="837" y="331" type="line"/>
      <point x="974" y="331" type="line"/>
      <point x="974" y="355" type="line"/>
      <point x="699" y="355" type="line"/>
      <point x="699" y="331" type="line"/>
    </contour>
    <contour>
      <point x="639" y="471" type="move" name="top"/>
    </contour>
    <contour>
      <point x="639" y="0" type="move" name="bottom"/>
    </contour>
  </outline>
</glyph>
<glyph name="x" format="1">
  <advance width="842"/>
  <unicode hex="0078"/>
  <outline>
    <contour>
      <point x="180" y="8" type="line"/>
      <point x="428" y="173" type="line"/>
      <point x="432" y="173" type="line"/>
      <point x="697" y="348" type="line"/>
      <point x="662" y="348" type="line"/>
      <point x="413" y="184" type="line"/>
      <point x="410" y="184" type="line"/>
      <point x="144" y="8" type="line"/>
    </contour>
    <contour>
      <point x="365" y="-1" type="line"/>
      <point x="365" y="22" type="line"/>
      <point x="187" y="22" type="line"/>
      <point x="176" y="22" type="line"/>
      <point x="55" y="22" type="line"/>
      <point x="55" y="-1" type="line"/>
    </contour>
    <contour>
      <point x="787" y="-1" type="line"/>
      <point x="787" y="22" type="line"/>
      <point x="663" y="22" type="line"/>
      <point x="653" y="22" type="line"/>
      <point x="477" y="22" type="line"/>
      <point x="477" y="-1" type="line"/>
    </contour>
    <contour>
      <point x="179" y="333" type="line"/>
      <point x="190" y="333" type="line"/>
      <point x="365" y="333" type="line"/>
      <point x="365" y="357" type="line"/>
      <point x="55" y="357" type="line"/>
      <point x="55" y="333" type="line"/>
    </contour>
    <contour>
      <point x="657" y="333" type="line"/>
      <point x="667" y="333" type="line"/>
      <point x="787" y="333" type="line"/>
      <point x="787" y="357" type="line"/>
      <point x="477" y="357" type="line"/>
      <point x="477" y="333" type="line"/>
    </contour>
    <contour>
      <point x="699" y="8" type="line"/>
      <point x="432" y="184" type="line"/>
      <point x="432" y="184" type="line"/>
      <point x="184" y="348" type="line"/>
      <point x="142" y="348" type="line"/>
      <point x="410" y="173" type="line"/>
      <point x="410" y="173" type="line"/>
      <point x="658" y="8" type="line"/>
    </contour>
    <contour>
      <point x="425" y="523" type="move" name="top"/>
    </contour>
    <contour>
      <point x="425" y="165" type="move" name="bottom"/>
    </contour>
  </outline>
</glyph>
<glyph name="y" format="1">
  <advance width="764"/>
  <unicode hex="0079"/>
  <outline>
    <contour>
      <point x="277" y="-238"/>
      <point x="334" y="-181"/>
      <point x="382" y="-106" type="curve" smooth="yes"/>
      <point x="633" y="287" type="line"/>
      <point x="605" y="287" type="line"/>
      <point x="354" y="-107" type="line" smooth="yes"/>
      <point x="310" y="-174"/>
      <point x="261" y="-214"/>
      <point x="192" y="-214" type="curve" smooth="yes"/>
      <point x="135" y="-214"/>
      <point x="93" y="-198"/>
      <point x="43" y="-173" type="curve"/>
      <point x="35" y="-196" type="line"/>
      <point x="87" y="-217"/>
      <point x="126" y="-238"/>
      <point x="191" y="-238" type="curve" smooth="yes"/>
    </contour>
    <contour>
      <point x="388" y="-67" type="line"/>
      <point x="147" y="292" type="line"/>
      <point x="119" y="292" type="line"/>
      <point x="373" y="-91" type="line"/>
    </contour>
    <contour>
      <point x="279" y="277" type="line"/>
      <point x="279" y="301" type="line"/>
      <point x="5" y="301" type="line"/>
      <point x="5" y="277" type="line"/>
    </contour>
    <contour>
      <point x="754" y="277" type="line"/>
      <point x="754" y="301" type="line"/>
      <point x="481" y="301" type="line"/>
      <point x="481" y="277" type="line"/>
    </contour>
    <contour>
      <point x="501" y="471" type="move" name="top"/>
    </contour>
    <contour>
      <point x="501" y="0" type="move" name="bottom"/>
    </contour>
  </outline>
</glyph>
<glyph name="z" format="1">
  <advance width="1010"/>
  <unicode hex="007A"/>
  <outline>
    <contour>
      <point x="806" y="342"/>
      <point x="658" y="299"/>
      <point x="502" y="251" type="curve" smooth="yes"/>
      <point x="355" y="205"/>
      <point x="204" y="153"/>
      <point x="132" y="1" type="curve"/>
      <point x="160" y="-13" type="line"/>
      <point x="230" y="127"/>
      <point x="370" y="179"/>
      <point x="508" y="224" type="curve" smooth="yes"/>
      <point x="672" y="276"/>
      <point x="834" y="317"/>
      <point x="883" y="473" type="curve"/>
      <point x="854" y="484" type="line"/>
    </contour>
    <contour>
      <point x="838" y="-13"/>
      <point x="913" y="54"/>
      <point x="931" y="160" type="curve"/>
      <point x="900" y="165" type="line"/>
      <point x="883" y="62"/>
      <point x="798" y="18"/>
      <point x="689" y="18" type="curve" smooth="yes"/>
      <point x="574" y="18"/>
      <point x="433" y="68"/>
      <point x="264" y="139" type="curve"/>
      <point x="243" y="119" type="line"/>
      <point x="415" y="46"/>
      <point x="560" y="-13"/>
      <point x="688" y="-13" type="curve" smooth="yes"/>
    </contour>
    <contour>
      <point x="180" y="289" type="line"/>
      <point x="180" y="455" type="line"/>
      <point x="465" y="455"/>
      <point x="620" y="383"/>
      <point x="772" y="330" type="curve"/>
      <point x="783" y="355" type="line"/>
      <point x="631" y="409"/>
      <point x="486" y="484"/>
      <point x="180" y="484" type="curve" smooth="yes"/>
      <point x="147" y="484" type="line"/>
      <point x="147" y="289" type="line"/>
    </contour>
    <contour>
      <point x="562.0" y="471.0" type="move" name="top"/>
    </contour>
    <contour>
      <point x="509.0" y="-13.0" type="move" name="bottom"/>
    </contour>
  </outline>
</glyph>
<glyph name="braceleft" format="1">
  <advance width="481"/>
  <unicode hex="007B"/>
  <outline>
    <contour>
      <point x="367" y="-121"/>
      <point x="426" y="-111"/>
      <point x="470" y="-96" type="curve"/>
      <point x="463" y="-75" type="line"/>
      <point x="425" y="-86"/>
      <point x="373" y="-98"/>
      <point x="315" y="-98" type="curve" smooth="yes"/>
      <point x="237" y="-98"/>
      <point x="139" y="-74"/>
      <point x="139" y="-1" type="curve" smooth="yes"/>
      <point x="139" y="100"/>
      <point x="341" y="90"/>
      <point x="341" y="190" type="curve" smooth="yes"/>
      <point x="341" y="239"/>
      <point x="275" y="269"/>
      <point x="186" y="269" type="curve"/>
      <point x="186" y="259" type="line"/>
      <point x="275" y="259"/>
      <point x="341" y="290"/>
      <point x="341" y="339" type="curve" smooth="yes"/>
      <point x="341" y="439"/>
      <point x="139" y="430"/>
      <point x="139" y="530" type="curve" smooth="yes"/>
      <point x="139" y="602"/>
      <point x="237" y="626"/>
      <point x="315" y="626" type="curve" smooth="yes"/>
      <point x="373" y="626"/>
      <point x="425" y="616"/>
      <point x="463" y="604" type="curve"/>
      <point x="470" y="626" type="line"/>
      <point x="426" y="640"/>
      <point x="367" y="651"/>
      <point x="306" y="651" type="curve" smooth="yes"/>
      <point x="215" y="651"/>
      <point x="114" y="617"/>
      <point x="114" y="532" type="curve" smooth="yes"/>
      <point x="114" y="410"/>
      <point x="317" y="418"/>
      <point x="317" y="340" type="curve" smooth="yes"/>
      <point x="317" y="301"/>
      <point x="271" y="275"/>
      <point x="173" y="275" type="curve" smooth="yes"/>
      <point x="110" y="275" type="line"/>
      <point x="110" y="254" type="line"/>
      <point x="173" y="254" type="line" smooth="yes"/>
      <point x="271" y="254"/>
      <point x="317" y="227"/>
      <point x="317" y="189" type="curve" smooth="yes"/>
      <point x="317" y="116"/>
      <point x="114" y="114"/>
      <point x="114" y="-3" type="curve" smooth="yes"/>
      <point x="114" y="-88"/>
      <point x="215" y="-121"/>
      <point x="306" y="-121" type="curve" smooth="yes"/>
    </contour>
  </outline>
</glyph>
<glyph name="bar" format="1">
  <advance width="363"/>
  <unicode hex="007C"/>
  <outline>
    <contour>
      <point x="165" y="-193" type="line"/>
      <point x="198" y="-193" type="line"/>
      <point x="198" y="837" type="line"/>
      <point x="165" y="837" type="line"/>
    </contour>
  </outline>
</glyph>
<glyph name="braceright" format="1">
  <advance width="527"/>
  <unicode hex="007D"/>
  <outline>
    <contour>
      <point x="312" y="-121"/>
      <point x="413" y="-88"/>
      <point x="413" y="-3" type="curve" smooth="yes"/>
      <point x="413" y="114"/>
      <point x="210" y="116"/>
      <point x="210" y="189" type="curve" smooth="yes"/>
      <point x="210" y="227"/>
      <point x="256" y="254"/>
      <point x="354" y="254" type="curve" smooth="yes"/>
      <point x="416" y="254" type="line"/>
      <point x="416" y="275" type="line"/>
      <point x="354" y="275" type="line" smooth="yes"/>
      <point x="256" y="275"/>
      <point x="210" y="301"/>
      <point x="210" y="340" type="curve" smooth="yes"/>
      <point x="210" y="418"/>
      <point x="413" y="410"/>
      <point x="413" y="532" type="curve" smooth="yes"/>
      <point x="413" y="617"/>
      <point x="312" y="651"/>
      <point x="221" y="651" type="curve" smooth="yes"/>
      <point x="160" y="651"/>
      <point x="101" y="640"/>
      <point x="56" y="626" type="curve"/>
      <point x="63" y="604" type="line"/>
      <point x="102" y="616"/>
      <point x="153" y="626"/>
      <point x="212" y="626" type="curve" smooth="yes"/>
      <point x="288" y="626"/>
      <point x="388" y="602"/>
      <point x="388" y="530" type="curve" smooth="yes"/>
      <point x="388" y="430"/>
      <point x="186" y="439"/>
      <point x="186" y="339" type="curve" smooth="yes"/>
      <point x="186" y="290"/>
      <point x="252" y="259"/>
      <point x="340" y="259" type="curve"/>
      <point x="340" y="269" type="line"/>
      <point x="252" y="269"/>
      <point x="186" y="239"/>
      <point x="186" y="190" type="curve" smooth="yes"/>
      <point x="186" y="90"/>
      <point x="388" y="100"/>
      <point x="388" y="-1" type="curve" smooth="yes"/>
      <point x="388" y="-74"/>
      <point x="288" y="-98"/>
      <point x="212" y="-98" type="curve" smooth="yes"/>
      <point x="153" y="-98"/>
      <point x="102" y="-86"/>
      <point x="63" y="-75" type="curve"/>
      <point x="56" y="-96" type="line"/>
      <point x="101" y="-111"/>
      <point x="160" y="-121"/>
      <point x="221" y="-121" type="curve" smooth="yes"/>
    </contour>
  </outline>
</glyph>
<glyph name="asciitilde" format="1">
  <advance width="730"/>
  <unicode hex="007E"/>
  <outline>
    <contour>
      <point x="619" y="180"/>
      <point x="657" y="273"/>
      <point x="660" y="370" type="curve"/>
      <point x="636" y="372" type="line"/>
      <point x="633" y="276"/>
      <point x="601" y="204"/>
      <point x="520" y="204" type="curve" smooth="yes"/>
      <point x="462" y="204"/>
      <point x="415" y="253"/>
      <point x="375" y="293" type="curve" smooth="yes"/>
      <point x="323" y="345"/>
      <point x="277" y="387"/>
      <point x="212" y="387" type="curve" smooth="yes"/>
      <point x="116" y="387"/>
      <point x="74" y="295"/>
      <point x="70" y="198" type="curve"/>
      <point x="94" y="195" type="line"/>
      <point x="97" y="292"/>
      <point x="135" y="364"/>
      <point x="211" y="364" type="curve" smooth="yes"/>
      <point x="273" y="364"/>
      <point x="316" y="316"/>
      <point x="356" y="275" type="curve" smooth="yes"/>
      <point x="407" y="223"/>
      <point x="458" y="180"/>
      <point x="518" y="180" type="curve" smooth="yes"/>
    </contour>
  </outline>
</glyph>
<glyph name="exclamdown" format="1">
  <advance width="287"/>
  <unicode hex="00A1"/>
  <outline>
    <contour>
      <point x="135" y="382" type="line"/>
      <point x="130" y="258" type="line" smooth="yes"/>
      <point x="125" y="106"/>
      <point x="112" y="5"/>
      <point x="112" y="-13" type="curve"/>
      <point x="112" y="-30"/>
      <point x="121" y="-45"/>
      <point x="142" y="-45" type="curve"/>
      <point x="164" y="-45"/>
      <point x="173" y="-30"/>
      <point x="173" y="-13" type="curve"/>
      <point x="173" y="5"/>
      <point x="160" y="105"/>
      <point x="155" y="258" type="curve" smooth="yes"/>
      <point x="151" y="382" type="line"/>
    </contour>
    <contour>
      <point x="175" y="476"/>
      <point x="192" y="490"/>
      <point x="192" y="509" type="curve"/>
      <point x="192" y="526"/>
      <point x="175" y="541"/>
      <point x="143" y="541" type="curve"/>
      <point x="111" y="541"/>
      <point x="94" y="526"/>
      <point x="94" y="509" type="curve"/>
      <point x="94" y="490"/>
      <point x="111" y="476"/>
      <point x="143" y="476" type="curve"/>
    </contour>
  </outline>
</glyph>
<glyph name="cent" format="1">
  <advance width="722.0"/>
  <unicode hex="00A2"/>
  <outline>
    <contour>
      <point x="477" y="54"/>
      <point x="571" y="91"/>
      <point x="642" y="144" type="curve"/>
      <point x="630" y="163" type="line"/>
      <point x="561" y="114"/>
      <point x="466" y="77"/>
      <point x="346" y="77" type="curve" smooth="yes"/>
      <point x="214" y="78"/>
      <point x="106" y="131"/>
      <point x="106" y="226" type="curve" smooth="yes"/>
      <point x="106" y="340"/>
      <point x="237" y="389"/>
      <point x="356" y="388" type="curve" smooth="yes"/>
      <point x="461" y="388"/>
      <point x="560" y="350"/>
      <point x="633" y="264" type="curve"/>
      <point x="638" y="264" type="line"/>
      <point x="638" y="401" type="line"/>
      <point x="616" y="401" type="line"/>
      <point x="616" y="301" type="line"/>
      <point x="632" y="296" type="line"/>
      <point x="580" y="359"/>
      <point x="477" y="410"/>
      <point x="358" y="412" type="curve" smooth="yes"/>
      <point x="227" y="413"/>
      <point x="81" y="357"/>
      <point x="81" y="226" type="curve" smooth="yes"/>
      <point x="81" y="112"/>
      <point x="204" y="54"/>
      <point x="346" y="54" type="curve" smooth="yes"/>
    </contour>
    <contour>
      <point x="371" y="-13" type="line"/>
      <point x="371" y="64" type="line"/>
      <point x="371" y="72" type="line"/>
      <point x="371" y="399" type="line"/>
      <point x="371" y="404" type="line"/>
      <point x="371" y="479" type="line"/>
      <point x="348" y="479" type="line"/>
      <point x="348" y="405" type="line"/>
      <point x="348" y="399" type="line"/>
      <point x="348" y="69" type="line"/>
      <point x="348" y="64" type="line"/>
      <point x="348" y="-13" type="line"/>
    </contour>
  </outline>
</glyph>
<glyph name="sterling" format="1">
  <advance width="768"/>
  <unicode hex="00A3"/>
  <outline>
    <contour>
      <point x="87" y="-13" type="line" smooth="yes"/>
      <point x="197" y="-13"/>
      <point x="271" y="40"/>
      <point x="271" y="115" type="curve" smooth="yes"/>
      <point x="271" y="202"/>
      <point x="189" y="253"/>
      <point x="189" y="333" type="curve" smooth="yes"/>
      <point x="189" y="410"/>
      <point x="269" y="455"/>
      <point x="375" y="455" type="curve" smooth="yes"/>
      <point x="492" y="455"/>
      <point x="592" y="422"/>
      <point x="689" y="324" type="curve"/>
      <point x="695" y="327" type="line"/>
      <point x="695" y="479" type="line"/>
      <point x="672" y="479" type="line"/>
      <point x="672" y="358" type="line"/>
      <point x="686" y="356" type="line"/>
      <point x="613" y="429"/>
      <point x="511" y="479"/>
      <point x="376" y="479" type="curve" smooth="yes"/>
      <point x="248" y="479"/>
      <point x="164" y="420"/>
      <point x="164" y="333" type="curve" smooth="yes"/>
      <point x="164" y="248"/>
      <point x="247" y="191"/>
      <point x="247" y="116" type="curve" smooth="yes"/>
      <point x="247" y="49"/>
      <point x="176" y="8"/>
      <point x="87" y="8" type="curve" smooth="yes"/>
      <point x="60" y="8" type="line"/>
      <point x="60" y="-13" type="line"/>
    </contour>
    <contour>
      <point x="583" y="163" type="line"/>
      <point x="583" y="186" type="line"/>
      <point x="60" y="186" type="line"/>
      <point x="60" y="163" type="line"/>
    </contour>
    <contour>
      <point x="657" y="-13"/>
      <point x="714" y="38"/>
      <point x="727" y="118" type="curve"/>
      <point x="704" y="122" type="line"/>
      <point x="692" y="44"/>
      <point x="626" y="11"/>
      <point x="553" y="11" type="curve" smooth="yes"/>
      <point x="475" y="11"/>
      <point x="347" y="64"/>
      <point x="261" y="112" type="curve"/>
      <point x="252" y="93" type="line"/>
      <point x="337" y="43"/>
      <point x="465" y="-13"/>
      <point x="553" y="-13" type="curve" smooth="yes"/>
    </contour>
    <contour>
      <point x="585" y="289" type="line"/>
      <point x="585" y="312" type="line"/>
      <point x="62" y="312" type="line"/>
      <point x="62" y="289" type="line"/>
    </contour>
  </outline>
</glyph>
<glyph name="currency" format="1">
  <advance width="573"/>
  <unicode hex="00A4"/>
  <outline>
    <contour>
      <point x="377" y="143"/>
      <point x="435" y="192"/>
      <point x="435" y="263" type="curve"/>
      <point x="435" y="336"/>
      <point x="377" y="385"/>
      <point x="286" y="385" type="curve"/>
      <point x="198" y="385"/>
      <point x="137" y="336"/>
      <point x="137" y="263" type="curve"/>
      <point x="137" y="192"/>
      <point x="198" y="143"/>
      <point x="286" y="143" type="curve"/>
    </contour>
    <contour>
      <point x="200" y="171" type="line"/>
      <point x="182" y="186" type="line"/>
      <point x="90" y="80" type="line"/>
      <point x="109" y="65" type="line"/>
    </contour>
    <contour>
      <point x="483" y="80" type="line"/>
      <point x="391" y="186" type="line"/>
      <point x="373" y="171" type="line"/>
      <point x="463" y="65" type="line"/>
    </contour>
    <contour>
      <point x="200" y="357" type="line"/>
      <point x="109" y="463" type="line"/>
      <point x="90" y="448" type="line"/>
      <point x="182" y="342" type="line"/>
    </contour>
    <contour>
      <point x="483" y="448" type="line"/>
      <point x="463" y="463" type="line"/>
      <point x="373" y="357" type="line"/>
      <point x="391" y="342" type="line"/>
    </contour>
    <contour>
      <point x="211" y="166"/>
      <point x="162" y="206"/>
      <point x="162" y="265" type="curve"/>
      <point x="162" y="323"/>
      <point x="211" y="361"/>
      <point x="286" y="361" type="curve"/>
      <point x="363" y="361"/>
      <point x="410" y="323"/>
      <point x="410" y="265" type="curve"/>
      <point x="410" y="206"/>
      <point x="363" y="166"/>
      <point x="286" y="166" type="curve"/>
    </contour>
  </outline>
</glyph>
<glyph name="yen" format="1">
  <advance width="903"/>
  <unicode hex="00A5"/>
  <outline>
    <contour>
      <point x="353" y="448" type="line"/>
      <point x="353" y="471" type="line"/>
      <point x="15" y="471" type="line"/>
      <point x="15" y="448" type="line"/>
    </contour>
    <contour>
      <point x="888" y="448" type="line"/>
      <point x="888" y="471" type="line"/>
      <point x="551" y="471" type="line"/>
      <point x="551" y="448" type="line"/>
    </contour>
    <contour>
      <point x="460" y="151" type="line"/>
      <point x="733" y="461" type="line"/>
      <point x="704" y="461" type="line"/>
      <point x="445" y="166" type="line"/>
      <point x="460" y="166" type="line"/>
      <point x="201" y="458" type="line"/>
      <point x="170" y="458" type="line"/>
      <point x="443" y="151" type="line"/>
    </contour>
    <contour>
      <point x="587" y="301" type="line"/>
      <point x="587" y="323" type="line"/>
      <point x="91" y="323" type="line"/>
      <point x="91" y="301" type="line"/>
    </contour>
    <contour>
      <point x="814" y="301" type="line"/>
      <point x="814" y="323" type="line"/>
      <point x="316" y="323" type="line"/>
      <point x="316" y="301" type="line"/>
    </contour>
    <contour>
      <point x="814" y="150" type="line"/>
      <point x="814" y="173" type="line"/>
      <point x="91" y="173" type="line"/>
      <point x="91" y="150" type="line"/>
    </contour>
    <contour>
      <point x="465" y="0" type="line"/>
      <point x="465" y="161" type="line"/>
      <point x="440" y="161" type="line"/>
      <point x="440" y="0" type="line"/>
    </contour>
    <contour>
      <point x="647" y="0" type="line"/>
      <point x="647" y="24" type="line"/>
      <point x="257" y="24" type="line"/>
      <point x="257" y="0" type="line"/>
    </contour>
  </outline>
</glyph>
<glyph name="brokenbar" format="1">
  <advance width="363"/>
  <unicode hex="00A6"/>
  <outline>
    <contour>
      <point x="165" y="402" type="line"/>
      <point x="198" y="402" type="line"/>
      <point x="198" y="837" type="line"/>
      <point x="165" y="837" type="line"/>
    </contour>
    <contour>
      <point x="165" y="-193" type="line"/>
      <point x="198" y="-193" type="line"/>
      <point x="198" y="243" type="line"/>
      <point x="165" y="243" type="line"/>
    </contour>
  </outline>
</glyph>
<glyph name="section" format="1">
  <advance width="812"/>
  <unicode hex="00A7"/>
  <outline>
    <contour>
      <point x="603" y="-11"/>
      <point x="736" y="27"/>
      <point x="736" y="126" type="curve" smooth="yes"/>
      <point x="736" y="206"/>
      <point x="658" y="259"/>
      <point x="442" y="276" type="curve" smooth="yes"/>
      <point x="216" y="294"/>
      <point x="144" y="324"/>
      <point x="144" y="399" type="curve" smooth="yes"/>
      <point x="144" y="472"/>
      <point x="229" y="507"/>
      <point x="328" y="507" type="curve" smooth="yes"/>
      <point x="477" y="507"/>
      <point x="611" y="446"/>
      <point x="682" y="344" type="curve"/>
      <point x="687" y="347" type="line"/>
      <point x="687" y="520" type="line"/>
      <point x="663" y="520" type="line"/>
      <point x="663" y="380" type="line"/>
      <point x="679" y="380" type="line"/>
      <point x="626" y="455"/>
      <point x="502" y="531"/>
      <point x="329" y="531" type="curve" smooth="yes"/>
      <point x="212" y="531"/>
      <point x="119" y="484"/>
      <point x="119" y="399" type="curve" smooth="yes"/>
      <point x="119" y="305"/>
      <point x="201" y="275"/>
      <point x="442" y="252" type="curve" smooth="yes"/>
      <point x="635" y="234"/>
      <point x="711" y="193"/>
      <point x="711" y="124" type="curve" smooth="yes"/>
      <point x="711" y="39"/>
      <point x="570" y="8"/>
      <point x="427" y="20" type="curve"/>
      <point x="446" y="4" type="line"/>
    </contour>
    <contour>
      <point x="600" y="-251"/>
      <point x="699" y="-201"/>
      <point x="699" y="-117" type="curve" smooth="yes"/>
      <point x="699" y="-23"/>
      <point x="611" y="5"/>
      <point x="371" y="28" type="curve" smooth="yes"/>
      <point x="177" y="46"/>
      <point x="102" y="88"/>
      <point x="102" y="156" type="curve" smooth="yes"/>
      <point x="102" y="241"/>
      <point x="242" y="273"/>
      <point x="385" y="260" type="curve"/>
      <point x="366" y="276" type="line"/>
      <point x="209" y="291"/>
      <point x="77" y="254"/>
      <point x="77" y="154" type="curve" smooth="yes"/>
      <point x="77" y="74"/>
      <point x="155" y="21"/>
      <point x="370" y="4" type="curve" smooth="yes"/>
      <point x="597" y="-15"/>
      <point x="674" y="-42"/>
      <point x="674" y="-117" type="curve" smooth="yes"/>
      <point x="674" y="-191"/>
      <point x="584" y="-227"/>
      <point x="485" y="-227" type="curve" smooth="yes"/>
      <point x="335" y="-227"/>
      <point x="201" y="-166"/>
      <point x="131" y="-65" type="curve"/>
      <point x="125" y="-67" type="line"/>
      <point x="125" y="-242" type="line"/>
      <point x="149" y="-242" type="line"/>
      <point x="149" y="-100" type="line"/>
      <point x="134" y="-100" type="line"/>
      <point x="186" y="-175"/>
      <point x="311" y="-251"/>
      <point x="483" y="-251" type="curve" smooth="yes"/>
    </contour>
  </outline>
</glyph>
<glyph name="copyright" format="1">
  <advance width="958"/>
  <unicode hex="00A9"/>
  <outline>
    <contour>
      <point x="724" y="-218"/>
      <point x="897" y="-72"/>
      <point x="897" y="125" type="curve"/>
      <point x="897" y="323"/>
      <point x="724" y="468"/>
      <point x="478" y="468" type="curve"/>
      <point x="234" y="468"/>
      <point x="60" y="323"/>
      <point x="60" y="125" type="curve"/>
      <point x="60" y="-72"/>
      <point x="234" y="-218"/>
      <point x="478" y="-218" type="curve"/>
    </contour>
    <contour>
      <point x="584" y="-39"/>
      <point x="657" y="8"/>
      <point x="701" y="63" type="curve"/>
      <point x="683" y="78" type="line"/>
      <point x="643" y="27"/>
      <point x="565" y="-17"/>
      <point x="460" y="-17" type="curve" smooth="yes"/>
      <point x="344" y="-16"/>
      <point x="270" y="40"/>
      <point x="270" y="120" type="curve" smooth="yes"/>
      <point x="270" y="204"/>
      <point x="360" y="259"/>
      <point x="462" y="259" type="curve" smooth="yes"/>
      <point x="553" y="259"/>
      <point x="634" y="227"/>
      <point x="695" y="149" type="curve"/>
      <point x="701" y="151" type="line"/>
      <point x="701" y="283" type="line"/>
      <point x="678" y="283" type="line"/>
      <point x="678" y="189" type="line"/>
      <point x="692" y="183" type="line"/>
      <point x="649" y="233"/>
      <point x="568" y="283"/>
      <point x="465" y="283" type="curve" smooth="yes"/>
      <point x="344" y="283"/>
      <point x="245" y="221"/>
      <point x="245" y="120" type="curve" smooth="yes"/>
      <point x="245" y="19"/>
      <point x="333" y="-39"/>
      <point x="460" y="-39" type="curve" smooth="yes"/>
    </contour>
    <contour>
      <point x="245" y="-194"/>
      <point x="85" y="-54"/>
      <point x="85" y="125" type="curve"/>
      <point x="85" y="305"/>
      <point x="245" y="445"/>
      <point x="478" y="445" type="curve"/>
      <point x="712" y="445"/>
      <point x="872" y="305"/>
      <point x="872" y="125" type="curve"/>
      <point x="872" y="-54"/>
      <point x="712" y="-194"/>
      <point x="478" y="-194" type="curve"/>
    </contour>
  </outline>
</glyph>
<glyph name="ordfeminine" format="1">
  <advance width="506"/>
  <unicode hex="00AA"/>
  <outline>
    <contour>
      <point x="468" y="379"/>
      <point x="486" y="410"/>
      <point x="486" y="439" type="curve" smooth="yes"/>
      <point x="486" y="452" type="line"/>
      <point x="465" y="452" type="line"/>
      <point x="465" y="439" type="line" smooth="yes"/>
      <point x="465" y="415"/>
      <point x="452" y="398"/>
      <point x="432" y="398" type="curve" smooth="yes"/>
      <point x="407" y="398"/>
      <point x="395" y="419"/>
      <point x="395" y="449" type="curve"/>
      <point x="395" y="499" type="line" smooth="yes"/>
      <point x="395" y="558"/>
      <point x="350" y="599"/>
      <point x="257" y="599" type="curve" smooth="yes"/>
      <point x="199" y="599"/>
      <point x="139" y="587"/>
      <point x="74" y="565" type="curve"/>
      <point x="78" y="544" type="line"/>
      <point x="139" y="563"/>
      <point x="195" y="578"/>
      <point x="257" y="578" type="curve" smooth="yes"/>
      <point x="342" y="578"/>
      <point x="373" y="543"/>
      <point x="373" y="499" type="curve" smooth="yes"/>
      <point x="373" y="449" type="line"/>
      <point x="373" y="408"/>
      <point x="392" y="379"/>
      <point x="432" y="379" type="curve" smooth="yes"/>
    </contour>
    <contour>
      <point x="247" y="376"/>
      <point x="321" y="394"/>
      <point x="386" y="427" type="curve"/>
      <point x="386" y="446" type="line"/>
      <point x="319" y="414"/>
      <point x="245" y="396"/>
      <point x="182" y="396" type="curve" smooth="yes"/>
      <point x="126" y="396"/>
      <point x="87" y="407"/>
      <point x="87" y="438" type="curve"/>
      <point x="87" y="473"/>
      <point x="135" y="484"/>
      <point x="207" y="484" type="curve" smooth="yes"/>
      <point x="269" y="484"/>
      <point x="334" y="475"/>
      <point x="386" y="467" type="curve"/>
      <point x="386" y="486" type="line"/>
      <point x="334" y="494"/>
      <point x="270" y="503"/>
      <point x="199" y="503" type="curve" smooth="yes"/>
      <point x="124" y="503"/>
      <point x="65" y="485"/>
      <point x="65" y="438" type="curve"/>
      <point x="65" y="393"/>
      <point x="110" y="376"/>
      <point x="182" y="376" type="curve" smooth="yes"/>
    </contour>
    <contour>
      <point x="55" y="279" type="line"/>
      <point x="454" y="279" type="line"/>
      <point x="454" y="301" type="line"/>
      <point x="55" y="301" type="line"/>
    </contour>
  </outline>
</glyph>
<glyph name="logicalnot" format="1">
  <advance width="840"/>
  <unicode hex="00AC"/>
  <outline>
    <contour>
      <point x="715" y="363" type="line"/>
      <point x="715" y="394" type="line"/>
      <point x="59" y="394" type="line"/>
      <point x="59" y="363" type="line"/>
    </contour>
    <contour>
      <point x="715" y="77" type="line"/>
      <point x="715" y="394" type="line"/>
      <point x="682" y="394" type="line"/>
      <point x="682" y="77" type="line"/>
    </contour>
  </outline>
</glyph>
<glyph name="registered" format="1">
  <advance width="958"/>
  <unicode hex="00AE"/>
  <outline>
    <contour>
      <point x="724" y="-177"/>
      <point x="897" y="-28"/>
      <point x="897" y="169" type="curve"/>
      <point x="897" y="366"/>
      <point x="724" y="515"/>
      <point x="478" y="515" type="curve"/>
      <point x="234" y="515"/>
      <point x="60" y="366"/>
      <point x="60" y="169" type="curve"/>
      <point x="60" y="-28"/>
      <point x="234" y="-177"/>
      <point x="478" y="-177" type="curve"/>
    </contour>
    <contour>
      <point x="440" y="27" type="line"/>
      <point x="440" y="50" type="line"/>
      <point x="215" y="49" type="line"/>
      <point x="215" y="25" type="line"/>
    </contour>
    <contour>
      <point x="336" y="34" type="line"/>
      <point x="336" y="296" type="line"/>
      <point x="312" y="296" type="line"/>
      <point x="312" y="34" type="line"/>
    </contour>
    <contour>
      <point x="716" y="5"/>
      <point x="755" y="47"/>
      <point x="755" y="110" type="curve" smooth="yes"/>
      <point x="755" y="121" type="line"/>
      <point x="730" y="121" type="line"/>
      <point x="730" y="110" type="line" smooth="yes"/>
      <point x="730" y="58"/>
      <point x="698" y="28"/>
      <point x="658" y="28" type="curve" smooth="yes"/>
      <point x="557" y="28"/>
      <point x="560" y="157"/>
      <point x="436" y="157" type="curve" smooth="yes"/>
      <point x="329" y="157" type="line"/>
      <point x="329" y="144" type="line"/>
      <point x="438" y="144" type="line" smooth="yes"/>
      <point x="536" y="144"/>
      <point x="546" y="5"/>
      <point x="658" y="5" type="curve" smooth="yes"/>
    </contour>
    <contour>
      <point x="245" y="-153"/>
      <point x="85" y="-10"/>
      <point x="85" y="169" type="curve"/>
      <point x="85" y="349"/>
      <point x="245" y="492"/>
      <point x="478" y="492" type="curve"/>
      <point x="712" y="492"/>
      <point x="872" y="349"/>
      <point x="872" y="169" type="curve"/>
      <point x="872" y="-10"/>
      <point x="712" y="-153"/>
      <point x="478" y="-153" type="curve"/>
    </contour>
    <contour>
      <point x="588" y="145" type="line" smooth="yes"/>
      <point x="659" y="145"/>
      <point x="692" y="183"/>
      <point x="692" y="223" type="curve" smooth="yes"/>
      <point x="692" y="268"/>
      <point x="658" y="304"/>
      <point x="588" y="304" type="curve" smooth="yes"/>
      <point x="215" y="304" type="line"/>
      <point x="215" y="281" type="line"/>
      <point x="588" y="281" type="line" smooth="yes"/>
      <point x="638" y="281"/>
      <point x="667" y="258"/>
      <point x="667" y="223" type="curve" smooth="yes"/>
      <point x="667" y="189"/>
      <point x="638" y="167"/>
      <point x="588" y="167" type="curve" smooth="yes"/>
      <point x="329" y="167" type="line"/>
      <point x="329" y="145" type="line"/>
    </contour>
  </outline>
</glyph>
<glyph name="degree" format="1">
  <advance width="490"/>
  <unicode hex="00B0"/>
  <outline>
    <contour>
      <point x="355" y="480"/>
      <point x="437" y="548"/>
      <point x="437" y="646" type="curve"/>
      <point x="437" y="747"/>
      <point x="355" y="811"/>
      <point x="245" y="811" type="curve"/>
      <point x="141" y="811"/>
      <point x="53" y="747"/>
      <point x="53" y="646" type="curve"/>
      <point x="53" y="548"/>
      <point x="141" y="480"/>
      <point x="245" y="480" type="curve"/>
    </contour>
    <contour>
      <point x="156" y="508"/>
      <point x="84" y="567"/>
      <point x="84" y="646" type="curve"/>
      <point x="84" y="727"/>
      <point x="156" y="781"/>
      <point x="245" y="781" type="curve"/>
      <point x="339" y="781"/>
      <point x="407" y="727"/>
      <point x="407" y="646" type="curve"/>
      <point x="407" y="567"/>
      <point x="339" y="508"/>
      <point x="245" y="508" type="curve"/>
    </contour>
  </outline>
</glyph>
<glyph name="plusminus" format="1">
  <advance width="638"/>
  <unicode hex="00B1"/>
  <outline>
    <contour>
      <point x="307" y="136" type="line"/>
      <point x="332" y="136" type="line"/>
      <point x="332" y="461" type="line"/>
      <point x="307" y="461" type="line"/>
    </contour>
    <contour>
      <point x="70" y="310" type="line"/>
      <point x="70" y="287" type="line"/>
      <point x="568" y="287" type="line"/>
      <point x="568" y="310" type="line"/>
    </contour>
    <contour>
      <point x="70" y="73" type="line"/>
      <point x="70" y="51" type="line"/>
      <point x="568" y="51" type="line"/>
      <point x="568" y="73" type="line"/>
    </contour>
  </outline>
</glyph>
<glyph name="paragraph" format="1">
  <advance width="920"/>
  <unicode hex="00B6"/>
  <outline>
    <contour>
      <point x="651" y="-177"/>
      <point x="739" y="-112"/>
      <point x="739" y="22" type="curve" smooth="yes"/>
      <point x="739" y="520" type="line"/>
      <point x="714" y="520" type="line"/>
      <point x="714" y="21" type="line" smooth="yes"/>
      <point x="714" y="-98"/>
      <point x="633" y="-153"/>
      <point x="534" y="-153" type="curve" smooth="yes"/>
      <point x="461" y="-153"/>
      <point x="391" y="-128"/>
      <point x="341" y="-107" type="curve"/>
      <point x="334" y="-130" type="line"/>
      <point x="383" y="-152"/>
      <point x="451" y="-177"/>
      <point x="533" y="-177" type="curve" smooth="yes"/>
    </contour>
    <contour>
      <point x="597" y="-153" type="line"/>
      <point x="597" y="450" type="line"/>
      <point x="573" y="460" type="line"/>
      <point x="573" y="-158" type="line"/>
    </contour>
    <contour>
      <point x="423" y="184"/>
      <point x="521" y="234"/>
      <point x="587" y="281" type="curve"/>
      <point x="587" y="306" type="line"/>
      <point x="512" y="252"/>
      <point x="408" y="208"/>
      <point x="294" y="208" type="curve" smooth="yes"/>
      <point x="181" y="208"/>
      <point x="95" y="259"/>
      <point x="95" y="349" type="curve" smooth="yes"/>
      <point x="95" y="441"/>
      <point x="195" y="509"/>
      <point x="329" y="507" type="curve" smooth="yes"/>
      <point x="473" y="506"/>
      <point x="617" y="447"/>
      <point x="730" y="354" type="curve"/>
      <point x="730" y="378" type="line"/>
      <point x="621" y="467"/>
      <point x="478" y="531"/>
      <point x="329" y="531" type="curve" smooth="yes"/>
      <point x="184" y="531"/>
      <point x="70" y="455"/>
      <point x="70" y="349" type="curve" smooth="yes"/>
      <point x="70" y="243"/>
      <point x="170" y="184"/>
      <point x="294" y="184" type="curve" smooth="yes"/>
    </contour>
  </outline>
</glyph>
<glyph name="periodcentered" format="1">
  <advance width="247.0"/>
  <unicode hex="00B7"/>
  <outline>
    <contour>
      <point x="156" y="288"/>
      <point x="173" y="301"/>
      <point x="173" y="319" type="curve"/>
      <point x="173" y="338"/>
      <point x="156" y="352"/>
      <point x="124" y="352" type="curve"/>
      <point x="92" y="352"/>
      <point x="74" y="338"/>
      <point x="74" y="319" type="curve"/>
      <point x="74" y="301"/>
      <point x="92" y="288"/>
      <point x="124" y="288" type="curve"/>
    </contour>
  </outline>
</glyph>
<glyph name="ordmasculine" format="1">
  <advance width="460"/>
  <unicode hex="00BA"/>
  <outline>
    <contour>
      <point x="335" y="308"/>
      <point x="418" y="349"/>
      <point x="418" y="419" type="curve"/>
      <point x="418" y="492"/>
      <point x="335" y="531"/>
      <point x="230" y="531" type="curve"/>
      <point x="125" y="530"/>
      <point x="41" y="492"/>
      <point x="41" y="419" type="curve"/>
      <point x="41" y="349"/>
      <point x="125" y="308"/>
      <point x="230" y="308" type="curve" smooth="yes"/>
    </contour>
    <contour>
      <point x="131" y="329"/>
      <point x="65" y="364"/>
      <point x="65" y="419" type="curve"/>
      <point x="65" y="477"/>
      <point x="131" y="509"/>
      <point x="230" y="509" type="curve"/>
      <point x="329" y="509"/>
      <point x="395" y="477"/>
      <point x="395" y="419" type="curve"/>
      <point x="395" y="364"/>
      <point x="329" y="329"/>
      <point x="230" y="329" type="curve" smooth="yes"/>
    </contour>
    <contour>
      <point x="61" y="211" type="line"/>
      <point x="408" y="211" type="line"/>
      <point x="408" y="233" type="line"/>
      <point x="61" y="233" type="line"/>
    </contour>
  </outline>
</glyph>
<glyph name="onequarter" format="1">
  <advance width="893.0"/>
  <unicode hex="00BC"/>
  <outline>
    <contour>
      <point x="116" y="392"/>
      <point x="172" y="420"/>
      <point x="192" y="472" type="curve"/>
      <point x="172" y="480" type="line"/>
      <point x="157" y="435"/>
      <point x="107" y="416"/>
      <point x="56" y="410" type="curve"/>
      <point x="59" y="386" type="line"/>
    </contour>
    <contour>
      <point x="290" y="198" type="line"/>
      <point x="290" y="218" type="line"/>
      <point x="55" y="218" type="line"/>
      <point x="55" y="198" type="line"/>
    </contour>
    <contour>
      <point x="195" y="198" type="line"/>
      <point x="195" y="480" type="line"/>
      <point x="172" y="480" type="line"/>
      <point x="172" y="198" type="line"/>
    </contour>
    <contour>
      <point x="255" y="-56" type="line"/>
      <point x="280" y="-71" type="line"/>
      <point x="461" y="239" type="line"/>
      <point x="651" y="544" type="line"/>
      <point x="625" y="559" type="line"/>
      <point x="444" y="249" type="line"/>
    </contour>
    <contour>
      <point x="790" y="278" type="line"/>
      <point x="759" y="278" type="line"/>
      <point x="515" y="88" type="line"/>
      <point x="541" y="82" type="line"/>
    </contour>
    <contour>
      <point x="883" y="66" type="line"/>
      <point x="883" y="88" type="line"/>
      <point x="515" y="88" type="line"/>
      <point x="515" y="66" type="line"/>
    </contour>
    <contour>
      <point x="767" y="-11" type="line"/>
      <point x="790" y="-11" type="line"/>
      <point x="790" y="278" type="line"/>
      <point x="767" y="278" type="line"/>
    </contour>
  </outline>
</glyph>
<glyph name="questiondown" format="1">
  <advance width="475.0"/>
  <unicode hex="00BF"/>
  <outline>
    <contour>
      <point x="258" y="529"/>
      <point x="241" y="515"/>
      <point x="241" y="497" type="curve"/>
      <point x="241" y="478"/>
      <point x="258" y="465"/>
      <point x="290" y="465" type="curve"/>
      <point x="321" y="465"/>
      <point x="340" y="478"/>
      <point x="340" y="497" type="curve"/>
      <point x="340" y="515"/>
      <point x="321" y="529"/>
      <point x="290" y="529" type="curve"/>
    </contour>
    <contour>
      <point x="418" y="47" type="line"/>
      <point x="368" y="26"/>
      <point x="318" y="12"/>
      <point x="249" y="12" type="curve" smooth="yes"/>
      <point x="160" y="12"/>
      <point x="90" y="50"/>
      <point x="90" y="109" type="curve" smooth="yes"/>
      <point x="90" y="161"/>
      <point x="142" y="188"/>
      <point x="201" y="209" type="curve" smooth="yes"/>
      <point x="274" y="237"/>
      <point x="350" y="254"/>
      <point x="350" y="303" type="curve" smooth="yes"/>
      <point x="350" y="330"/>
      <point x="335" y="357"/>
      <point x="313" y="389" type="curve"/>
      <point x="300" y="385" type="line"/>
      <point x="315" y="357"/>
      <point x="328" y="337"/>
      <point x="328" y="309" type="curve" smooth="yes"/>
      <point x="328" y="270"/>
      <point x="263" y="254"/>
      <point x="194" y="230" type="curve" smooth="yes"/>
      <point x="129" y="208"/>
      <point x="65" y="176"/>
      <point x="65" y="110" type="curve" smooth="yes"/>
      <point x="65" y="29"/>
      <point x="153" y="-12"/>
      <point x="249" y="-12" type="curve" smooth="yes"/>
      <point x="318" y="-12"/>
      <point x="370" y="2"/>
      <point x="425" y="24" type="curve"/>
    </contour>
  </outline>
</glyph>
<glyph name="AE" format="1">
  <advance width="1424"/>
  <unicode hex="00C6"/>
  <outline>
    <contour>
      <point x="185" y="14" type="line"/>
      <point x="625" y="503" type="line"/>
      <point x="616" y="503" type="line"/>
      <point x="856" y="14" type="line"/>
      <point x="884" y="14" type="line"/>
      <point x="638" y="511" type="line" smooth="yes"/>
      <point x="599" y="511" type="line"/>
      <point x="152" y="14" type="line"/>
    </contour>
    <contour>
      <point x="350" y="0" type="line"/>
      <point x="350" y="24" type="line"/>
      <point x="0" y="24" type="line"/>
      <point x="0" y="0" type="line"/>
    </contour>
    <contour>
      <point x="771" y="195" type="line"/>
      <point x="771" y="217" type="line"/>
      <point x="360" y="217" type="line"/>
      <point x="336" y="195" type="line"/>
    </contour>
    <contour>
      <point x="1294" y="0" type="line"/>
      <point x="1294" y="184" type="line"/>
      <point x="1269" y="184" type="line"/>
      <point x="1269" y="24" type="line"/>
      <point x="676" y="24" type="line"/>
      <point x="676" y="0" type="line"/>
    </contour>
    <contour>
      <point x="1027" y="159" type="line"/>
      <point x="1027" y="398" type="line"/>
      <point x="1002" y="398" type="line"/>
      <point x="1002" y="290" type="line"/>
      <point x="739" y="290" type="line"/>
      <point x="739" y="267" type="line"/>
      <point x="1002" y="267" type="line"/>
      <point x="1002" y="159" type="line"/>
    </contour>
    <contour>
      <point x="1294" y="337" type="line"/>
      <point x="1294" y="521" type="line"/>
      <point x="415" y="521" type="line"/>
      <point x="415" y="499" type="line"/>
      <point x="1268" y="499" type="line"/>
      <point x="1268" y="337" type="line"/>
    </contour>
    <contour>
      <point x="1702" y="0" type="move" name="ogonek"/>
    </contour>
    <contour>
      <point x="1032" y="0" type="move" name="bottom"/>
    </contour>
    <contour>
      <point x="1034" y="686" type="move" name="top"/>
    </contour>
  </outline>
</glyph>
<glyph name="Edieresis" format="1">
  <advance width="995"/>
  <unicode hex="00CB"/>
  <outline>
    <contour>
      <point x="864" y="-1" type="line"/>
      <point x="864" y="183" type="line"/>
      <point x="840" y="183" type="line"/>
      <point x="840" y="22" type="line"/>
      <point x="56" y="22" type="line"/>
      <point x="56" y="-1" type="line"/>
    </contour>
    <contour>
      <point x="264" y="12" type="line"/>
      <point x="264" y="507" type="line"/>
      <point x="239" y="507" type="line"/>
      <point x="239" y="12" type="line"/>
    </contour>
    <contour>
      <point x="585" y="260" type="line"/>
      <point x="585" y="284" type="line"/>
      <point x="261" y="284" type="line"/>
      <point x="261" y="260" type="line"/>
    </contour>
    <contour>
      <point x="598" y="152" type="line"/>
      <point x="598" y="392" type="line"/>
      <point x="573" y="392" type="line"/>
      <point x="573" y="152" type="line"/>
    </contour>
    <contour>
      <point x="864" y="336" type="line"/>
      <point x="864" y="520" type="line"/>
      <point x="56" y="520" type="line"/>
      <point x="56" y="496" type="line"/>
      <point x="839" y="496" type="line"/>
      <point x="839" y="336" type="line"/>
    </contour>
    <contour>
      <point x="668" y="635"/>
      <point x="683" y="648"/>
      <point x="683" y="664" type="curve"/>
      <point x="683" y="681"/>
      <point x="668" y="693"/>
      <point x="638" y="693" type="curve"/>
      <point x="611" y="693"/>
      <point x="594" y="681"/>
      <point x="594" y="664" type="curve"/>
      <point x="594" y="648"/>
      <point x="611" y="635"/>
      <point x="638" y="635" type="curve"/>
    </contour>
    <contour>
      <point x="445" y="635"/>
      <point x="461" y="648"/>
      <point x="461" y="664" type="curve"/>
      <point x="461" y="681"/>
      <point x="445" y="693"/>
      <point x="416" y="693" type="curve"/>
      <point x="388" y="693"/>
      <point x="372" y="681"/>
      <point x="372" y="664" type="curve"/>
      <point x="372" y="648"/>
      <point x="388" y="635"/>
      <point x="416" y="635" type="curve"/>
    </contour>
    <contour>
      <point x="864" y="165" type="move" name="ogonek"/>
    </contour>
    <contour>
      <point x="502" y="165" type="move" name="bottom"/>
    </contour>
    <contour>
      <point x="531" y="686" type="move" name="top"/>
    </contour>
  </outline>
</glyph>
<glyph name="Odieresis" format="1">
  <advance width="919"/>
  <unicode hex="00D6"/>
  <outline>
    <contour>
      <point x="676" y="-11"/>
      <point x="844" y="88"/>
      <point x="844" y="259" type="curve"/>
      <point x="844" y="431"/>
      <point x="676" y="531"/>
      <point x="460" y="531" type="curve"/>
      <point x="242" y="531"/>
      <point x="75" y="431"/>
      <point x="75" y="259" type="curve"/>
      <point x="75" y="88"/>
      <point x="242" y="-11"/>
      <point x="460" y="-11" type="curve"/>
    </contour>
    <contour>
      <point x="252" y="12"/>
      <point x="100" y="105"/>
      <point x="100" y="259" type="curve"/>
      <point x="100" y="414"/>
      <point x="252" y="507"/>
      <point x="460" y="507" type="curve"/>
      <point x="666" y="507"/>
      <point x="819" y="414"/>
      <point x="819" y="259" type="curve"/>
      <point x="819" y="105"/>
      <point x="666" y="12"/>
      <point x="460" y="12" type="curve"/>
    </contour>
    <contour>
      <point x="597" y="645"/>
      <point x="612" y="658"/>
      <point x="612" y="675" type="curve"/>
      <point x="612" y="692"/>
      <point x="597" y="703"/>
      <point x="567" y="703" type="curve"/>
      <point x="540" y="703"/>
      <point x="522" y="692"/>
      <point x="522" y="675" type="curve"/>
      <point x="522" y="658"/>
      <point x="540" y="645"/>
      <point x="567" y="645" type="curve"/>
    </contour>
    <contour>
      <point x="374" y="645"/>
      <point x="390" y="658"/>
      <point x="390" y="675" type="curve"/>
      <point x="390" y="692"/>
      <point x="374" y="703"/>
      <point x="345" y="703" type="curve"/>
      <point x="316" y="703"/>
      <point x="300" y="692"/>
      <point x="300" y="675" type="curve"/>
      <point x="300" y="658"/>
      <point x="316" y="645"/>
      <point x="345" y="645" type="curve"/>
    </contour>
    <contour>
      <point x="460" y="410" type="move" name="center"/>
    </contour>
    <contour>
      <point x="461" y="156" type="move" name="ogonek"/>
    </contour>
    <contour>
      <point x="460" y="697" type="move" name="top"/>
    </contour>
    <contour>
      <point x="894" y="656" type="move" name="topright"/>
    </contour>
    <contour>
      <point x="460" y="155" type="move" name="bottom"/>
    </contour>
  </outline>
</glyph>
<glyph name="multiply" format="1">
  <advance width="840"/>
  <unicode hex="00D7"/>
  <outline>
    <contour>
      <point x="697" y="92" type="line"/>
      <point x="140" y="559" type="line"/>
      <point x="118" y="534" type="line"/>
      <point x="674" y="67" type="line"/>
    </contour>
    <contour>
      <point x="695" y="535" type="line"/>
      <point x="674" y="559" type="line"/>
      <point x="118" y="92" type="line"/>
      <point x="139" y="68" type="line"/>
    </contour>
  </outline>
</glyph>
<glyph name="Oslash" format="1">
  <advance width="1196"/>
  <unicode hex="00D8"/>
  <outline>
    <contour>
      <point x="442" y="12" type="line"/>
      <point x="447" y="20" type="line"/>
      <point x="780" y="664" type="line"/>
      <point x="785" y="673" type="line"/>
      <point x="834" y="767" type="line"/>
      <point x="798" y="767" type="line"/>
      <point x="751" y="679" type="line"/>
      <point x="746" y="669" type="line"/>
      <point x="414" y="31" type="line"/>
      <point x="407" y="19" type="line"/>
      <point x="358" y="-78" type="line"/>
      <point x="395" y="-78" type="line"/>
    </contour>
    <component base="O"/>
  </outline>
</glyph>
<glyph name="Thorn" format="1">
  <advance width="885"/>
  <unicode hex="00DE"/>
  <outline>
    <contour>
      <point x="674" y="142" type="line" smooth="yes"/>
      <point x="767" y="142"/>
      <point x="825" y="188"/>
      <point x="825" y="259" type="curve" smooth="yes"/>
      <point x="825" y="332"/>
      <point x="767" y="376"/>
      <point x="674" y="376" type="curve" smooth="yes"/>
      <point x="250" y="376" type="line"/>
      <point x="250" y="354" type="line"/>
      <point x="682" y="354" type="line" smooth="yes"/>
      <point x="747" y="354"/>
      <point x="800" y="323"/>
      <point x="800" y="259" type="curve" smooth="yes"/>
      <point x="800" y="196"/>
      <point x="747" y="165"/>
      <point x="682" y="165" type="curve" smooth="yes"/>
      <point x="250" y="165" type="line"/>
      <point x="250" y="142" type="line"/>
    </contour>
    <contour>
      <point x="446" y="-1" type="line"/>
      <point x="446" y="22" type="line"/>
      <point x="255" y="22" type="line"/>
      <point x="247" y="22" type="line"/>
      <point x="56" y="22" type="line"/>
      <point x="56" y="-1" type="line"/>
    </contour>
    <contour>
      <point x="264" y="12" type="line" smooth="yes"/>
      <point x="264" y="507" type="line" smooth="yes"/>
      <point x="239" y="507" type="line" smooth="yes"/>
      <point x="239" y="12" type="line" smooth="yes"/>
    </contour>
    <contour>
      <point x="245" y="497" type="line"/>
      <point x="252" y="497" type="line"/>
      <point x="446" y="497" type="line" smooth="yes"/>
      <point x="446" y="520" type="line" smooth="yes"/>
      <point x="56" y="520" type="line" smooth="yes"/>
      <point x="56" y="497" type="line" smooth="yes"/>
    </contour>
  </outline>
</glyph>
<glyph name="germandbls" format="1">
  <advance width="1120"/>
  <unicode hex="00DF"/>
  <outline>
    <contour>
      <point x="979" y="-13"/>
      <point x="1060" y="33"/>
      <point x="1060" y="108" type="curve" smooth="yes"/>
      <point x="1060" y="204"/>
      <point x="943" y="224"/>
      <point x="791" y="239" type="curve" smooth="yes"/>
      <point x="627" y="255"/>
      <point x="552" y="273"/>
      <point x="552" y="332" type="curve" smooth="yes"/>
      <point x="552" y="398"/>
      <point x="647" y="418"/>
      <point x="739" y="435" type="curve" smooth="yes"/>
      <point x="880" y="458"/>
      <point x="963" y="484"/>
      <point x="963" y="583" type="curve" smooth="yes"/>
      <point x="963" y="688"/>
      <point x="801" y="772"/>
      <point x="574" y="772" type="curve" smooth="yes"/>
      <point x="356" y="772"/>
      <point x="277" y="666"/>
      <point x="277" y="536" type="curve" smooth="yes"/>
      <point x="277" y="0" type="line"/>
      <point x="310" y="0" type="line"/>
      <point x="310" y="539" type="line" smooth="yes"/>
      <point x="310" y="653"/>
      <point x="378" y="741"/>
      <point x="572" y="741" type="curve" smooth="yes"/>
      <point x="784" y="741"/>
      <point x="930" y="672"/>
      <point x="930" y="583" type="curve" smooth="yes"/>
      <point x="930" y="503"/>
      <point x="853" y="486"/>
      <point x="733" y="464" type="curve" smooth="yes"/>
      <point x="592" y="440"/>
      <point x="519" y="407"/>
      <point x="519" y="331" type="curve" smooth="yes"/>
      <point x="519" y="253"/>
      <point x="600" y="222"/>
      <point x="791" y="206" type="curve" smooth="yes"/>
      <point x="933" y="194"/>
      <point x="1029" y="176"/>
      <point x="1029" y="107" type="curve" smooth="yes"/>
      <point x="1029" y="51"/>
      <point x="948" y="15"/>
      <point x="856" y="15" type="curve" smooth="yes"/>
      <point x="748" y="15"/>
      <point x="589" y="66"/>
      <point x="497" y="179" type="curve"/>
      <point x="497" y="179" type="line"/>
      <point x="497" y="0" type="line"/>
      <point x="527" y="0" type="line"/>
      <point x="527" y="131" type="line"/>
      <point x="506" y="140" type="line"/>
      <point x="568" y="57"/>
      <point x="719" y="-13"/>
      <point x="856" y="-13" type="curve" smooth="yes"/>
    </contour>
    <contour>
      <point x="290" y="0" type="line"/>
      <point x="290" y="31" type="line"/>
      <point x="66" y="31" type="line"/>
      <point x="66" y="0" type="line"/>
    </contour>
    <contour>
      <point x="289" y="441" type="line"/>
      <point x="289" y="471" type="line"/>
      <point x="66" y="471" type="line"/>
      <point x="66" y="441" type="line"/>
    </contour>
  </outline>
</glyph>
<glyph name="ae" format="1">
  <advance width="1219"/>
  <unicode hex="00E6"/>
  <outline>
    <contour>
      <point x="959" y="-26"/>
      <point x="1056" y="3"/>
      <point x="1134" y="49" type="curve"/>
      <point x="1123" y="68" type="line"/>
      <point x="1047" y="24"/>
      <point x="955" y="-5"/>
      <point x="858" y="-3" type="curve"/>
      <point x="747" y="-5"/>
      <point x="607" y="55"/>
      <point x="607" y="161" type="curve" smooth="yes"/>
      <point x="607" y="285"/>
      <point x="768" y="348"/>
      <point x="895" y="348" type="curve" smooth="yes"/>
      <point x="1005" y="348"/>
      <point x="1108" y="319"/>
      <point x="1108" y="253" type="curve" smooth="yes"/>
      <point x="1108" y="178"/>
      <point x="998" y="159"/>
      <point x="903" y="159" type="curve" smooth="yes"/>
      <point x="804" y="159"/>
      <point x="705" y="170"/>
      <point x="601" y="183" type="curve"/>
      <point x="600" y="159" type="line"/>
      <point x="705" y="146"/>
      <point x="806" y="136"/>
      <point x="903" y="136" type="curve" smooth="yes"/>
      <point x="1013" y="136"/>
      <point x="1133" y="166"/>
      <point x="1133" y="254" type="curve" smooth="yes"/>
      <point x="1133" y="335"/>
      <point x="1018" y="371"/>
      <point x="899" y="371" type="curve" smooth="yes"/>
      <point x="749" y="371"/>
      <point x="609" y="301"/>
      <point x="593" y="191" type="curve"/>
      <point x="603" y="191" type="line"/>
      <point x="603" y="292"/>
      <point x="537" y="371"/>
      <point x="395" y="371" type="curve" smooth="yes"/>
      <point x="298" y="371"/>
      <point x="207" y="351"/>
      <point x="112" y="317" type="curve"/>
      <point x="119" y="295" type="line"/>
      <point x="207" y="326"/>
      <point x="294" y="349"/>
      <point x="395" y="349" type="curve" smooth="yes"/>
      <point x="531" y="349"/>
      <point x="584" y="270"/>
      <point x="584" y="191" type="curve" smooth="yes"/>
      <point x="584" y="161" type="line"/>
      <point x="584" y="35"/>
      <point x="738" y="-26"/>
      <point x="858" y="-26" type="curve"/>
    </contour>
    <contour>
      <point x="373" y="-26"/>
      <point x="512" y="15"/>
      <point x="612" y="86" type="curve"/>
      <point x="612" y="109" type="line"/>
      <point x="508" y="39"/>
      <point x="371" y="-3"/>
      <point x="268" y="-3" type="curve"/>
      <point x="195" y="-3"/>
      <point x="116" y="22"/>
      <point x="116" y="83" type="curve"/>
      <point x="116" y="153"/>
      <point x="202" y="183"/>
      <point x="307" y="183" type="curve" smooth="yes"/>
      <point x="410" y="183"/>
      <point x="502" y="170"/>
      <point x="595" y="159" type="curve"/>
      <point x="595" y="183" type="line"/>
      <point x="502" y="194"/>
      <point x="412" y="205"/>
      <point x="307" y="205" type="curve" smooth="yes"/>
      <point x="189" y="205"/>
      <point x="90" y="169"/>
      <point x="90" y="83" type="curve"/>
      <point x="90" y="4"/>
      <point x="166" y="-26"/>
      <point x="268" y="-26" type="curve"/>
    </contour>
    <contour>
      <point x="1463" y="73" type="move" name="ogonek"/>
    </contour>
    <contour>
      <point x="762" y="-13" type="move" name="bottom"/>
    </contour>
    <contour>
      <point x="755" y="484" type="move" name="top"/>
    </contour>
  </outline>
</glyph>
<glyph name="ccedilla" format="1">
  <advance width="776"/>
  <unicode hex="00E7"/>
  <outline>
    <contour>
      <point x="502" y="-10"/>
      <point x="601" y="32"/>
      <point x="680" y="95" type="curve"/>
      <point x="666" y="113" type="line"/>
      <point x="591" y="55"/>
      <point x="491" y="12"/>
      <point x="366" y="13" type="curve" smooth="yes"/>
      <point x="219" y="14"/>
      <point x="106" y="77"/>
      <point x="106" y="171" type="curve" smooth="yes"/>
      <point x="106" y="285"/>
      <point x="242" y="344"/>
      <point x="376" y="343" type="curve" smooth="yes"/>
      <point x="486" y="343"/>
      <point x="601" y="306"/>
      <point x="668" y="219" type="curve"/>
      <point x="674" y="221" type="line"/>
      <point x="674" y="357" type="line"/>
      <point x="651" y="357" type="line"/>
      <point x="651" y="256" type="line"/>
      <point x="663" y="251" type="line"/>
      <point x="612" y="315"/>
      <point x="502" y="366"/>
      <point x="378" y="366" type="curve" smooth="yes"/>
      <point x="233" y="368"/>
      <point x="81" y="303"/>
      <point x="81" y="171" type="curve" smooth="yes"/>
      <point x="81" y="57"/>
      <point x="209" y="-10"/>
      <point x="366" y="-10" type="curve" smooth="yes"/>
    </contour>
    <contour>
      <point x="452" y="-187"/>
      <point x="491" y="-165"/>
      <point x="491" y="-127" type="curve" smooth="yes"/>
      <point x="491" y="-90"/>
      <point x="454" y="-68"/>
      <point x="398" y="-68" type="curve" smooth="yes"/>
      <point x="376" y="-68"/>
      <point x="361" y="-70"/>
      <point x="345" y="-71" type="curve"/>
      <point x="371" y="4" type="line"/>
      <point x="350" y="4" type="line"/>
      <point x="318" y="-87" type="line"/>
      <point x="323" y="-93" type="line"/>
      <point x="344" y="-91"/>
      <point x="366" y="-89"/>
      <point x="398" y="-89" type="curve" smooth="yes"/>
      <point x="444" y="-89"/>
      <point x="467" y="-102"/>
      <point x="467" y="-127" type="curve" smooth="yes"/>
      <point x="467" y="-153"/>
      <point x="436" y="-165"/>
      <point x="381" y="-165" type="curve" smooth="yes"/>
      <point x="320" y="-165"/>
      <point x="276" y="-148"/>
      <point x="251" y="-136" type="curve"/>
      <point x="242" y="-156" type="line"/>
      <point x="270" y="-169"/>
      <point x="315" y="-187"/>
      <point x="381" y="-187" type="curve" smooth="yes"/>
    </contour>
    <contour>
      <point x="378" y="532" type="move" name="top"/>
    </contour>
    <contour>
      <point x="367" y="155" type="move" name="bottom"/>
    </contour>
  </outline>
</glyph>
<glyph name="iacute" format="1">
  <advance width="470"/>
  <unicode hex="00ED"/>
  <outline>
    <contour>
      <point x="258" y="-1" type="line"/>
      <point x="258" y="357" type="line"/>
      <point x="233" y="357" type="line"/>
      <point x="233" y="-1" type="line"/>
    </contour>
    <contour>
      <point x="441" y="-1" type="line"/>
      <point x="441" y="22" type="line"/>
      <point x="50" y="22" type="line"/>
      <point x="50" y="-1" type="line"/>
    </contour>
    <contour>
      <point x="258" y="334" type="line"/>
      <point x="258" y="357" type="line"/>
      <point x="50" y="357" type="line"/>
      <point x="50" y="334" type="line"/>
    </contour>
    <contour>
      <point x="400" y="579" type="line"/>
      <point x="415" y="551" type="line"/>
      <point x="173" y="421" type="line"/>
      <point x="164" y="437" type="line"/>
    </contour>
    <contour>
      <point x="441" y="165" type="move" name="ogonek"/>
    </contour>
    <contour>
      <point x="245" y="165" type="move" name="bottom"/>
    </contour>
    <contour>
      <point x="233" y="523" type="move" name="top"/>
    </contour>
  </outline>
</glyph>
<glyph name="icircumflex" format="1">
  <advance width="470"/>
  <unicode hex="00EE"/>
  <outline>
    <contour>
      <point x="258" y="-1" type="line"/>
      <point x="258" y="357" type="line"/>
      <point x="233" y="357" type="line"/>
      <point x="233" y="-1" type="line"/>
    </contour>
    <contour>
      <point x="441" y="-1" type="line"/>
      <point x="441" y="22" type="line"/>
      <point x="50" y="22" type="line"/>
      <point x="50" y="-1" type="line"/>
    </contour>
    <contour>
      <point x="258" y="334" type="line"/>
      <point x="258" y="357" type="line"/>
      <point x="50" y="357" type="line"/>
      <point x="50" y="334" type="line"/>
    </contour>
    <contour>
      <point x="233" y="537" type="line"/>
      <point x="400" y="409" type="line"/>
      <point x="410" y="422" type="line"/>
      <point x="242" y="564" type="line"/>
      <point x="223" y="564" type="line"/>
      <point x="55" y="422" type="line"/>
      <point x="66" y="409" type="line"/>
    </contour>
    <contour>
      <point x="441" y="165" type="move" name="ogonek"/>
    </contour>
    <contour>
      <point x="245" y="165" type="move" name="bottom"/>
    </contour>
    <contour>
      <point x="233" y="523" type="move" name="top"/>
    </contour>
  </outline>
</glyph>
<glyph name="idieresis" format="1">
  <advance width="470"/>
  <unicode hex="00EF"/>
  <outline>
    <contour>
      <point x="258" y="-1" type="line"/>
      <point x="258" y="357" type="line"/>
      <point x="233" y="357" type="line"/>
      <point x="233" y="-1" type="line"/>
    </contour>
    <contour>
      <point x="441" y="-1" type="line"/>
      <point x="441" y="22" type="line"/>
      <point x="50" y="22" type="line"/>
      <point x="50" y="-1" type="line"/>
    </contour>
    <contour>
      <point x="258" y="334" type="line"/>
      <point x="258" y="357" type="line"/>
      <point x="50" y="357" type="line"/>
      <point x="50" y="334" type="line"/>
    </contour>
    <contour>
      <point x="369" y="471"/>
      <point x="385" y="484"/>
      <point x="385" y="501" type="curve"/>
      <point x="385" y="518"/>
      <point x="369" y="529"/>
      <point x="340" y="529" type="curve"/>
      <point x="312" y="529"/>
      <point x="295" y="518"/>
      <point x="295" y="501" type="curve"/>
      <point x="295" y="484"/>
      <point x="312" y="471"/>
      <point x="340" y="471" type="curve"/>
    </contour>
    <contour>
      <point x="147" y="471"/>
      <point x="163" y="484"/>
      <point x="163" y="501" type="curve"/>
      <point x="163" y="518"/>
      <point x="147" y="529"/>
      <point x="118" y="529" type="curve"/>
      <point x="89" y="529"/>
      <point x="73" y="518"/>
      <point x="73" y="501" type="curve"/>
      <point x="73" y="484"/>
      <point x="89" y="471"/>
      <point x="118" y="471" type="curve"/>
    </contour>
    <contour>
      <point x="441" y="165" type="move" name="ogonek"/>
    </contour>
    <contour>
      <point x="245" y="165" type="move" name="bottom"/>
    </contour>
    <contour>
      <point x="233" y="523" type="move" name="top"/>
    </contour>
  </outline>
</glyph>
<glyph name="eth" format="1">
  <advance width="736"/>
  <unicode hex="00F0"/>
  <outline>
    <contour>
      <point x="518" y="-21"/>
      <point x="657" y="60"/>
      <point x="657" y="224" type="curve" smooth="yes"/>
      <point x="657" y="417"/>
      <point x="463" y="541"/>
      <point x="211" y="572" type="curve"/>
      <point x="205" y="550" type="line"/>
      <point x="461" y="517"/>
      <point x="632" y="400"/>
      <point x="632" y="224" type="curve" smooth="yes"/>
      <point x="632" y="73"/>
      <point x="502" y="3"/>
      <point x="347" y="3" type="curve" smooth="yes"/>
      <point x="202" y="3"/>
      <point x="100" y="63"/>
      <point x="100" y="148" type="curve" smooth="yes"/>
      <point x="100" y="233"/>
      <point x="191" y="291"/>
      <point x="332" y="291" type="curve" smooth="yes"/>
      <point x="451" y="291"/>
      <point x="561" y="254"/>
      <point x="641" y="199" type="curve"/>
      <point x="641" y="224" type="line"/>
      <point x="562" y="275"/>
      <point x="445" y="315"/>
      <point x="335" y="315" type="curve" smooth="yes"/>
      <point x="192" y="315"/>
      <point x="75" y="255"/>
      <point x="75" y="146" type="curve" smooth="yes"/>
      <point x="75" y="42"/>
      <point x="200" y="-21"/>
      <point x="347" y="-21" type="curve" smooth="yes"/>
    </contour>
    <contour>
      <point x="511" y="606" type="line"/>
      <point x="492" y="617" type="line"/>
      <point x="325" y="378" type="line"/>
      <point x="342" y="366" type="line"/>
    </contour>
  </outline>
</glyph>
<glyph name="oslash" format="1">
  <advance width="802"/>
  <unicode hex="00F8"/>
  <outline>
    <contour>
      <point x="323" y="-17" type="line"/>
      <point x="328" y="-7" type="line"/>
      <point x="502" y="329" type="line"/>
      <point x="506" y="338" type="line"/>
      <point x="539" y="399" type="line"/>
      <point x="510" y="399" type="line"/>
      <point x="480" y="342" type="line"/>
      <point x="475" y="333" type="line"/>
      <point x="302" y="-3" type="line"/>
      <point x="296" y="-12" type="line"/>
      <point x="263" y="-78" type="line"/>
      <point x="290" y="-78" type="line"/>
    </contour>
    <component base="o" yOffset="-19"/>
  </outline>
</glyph>
<glyph name="thorn" format="1">
  <advance width="863"/>
  <unicode hex="00FE"/>
  <outline>
    <contour>
      <point x="641" y="-62"/>
      <point x="782" y="15"/>
      <point x="782" y="143" type="curve"/>
      <point x="782" y="252"/>
      <point x="686" y="316"/>
      <point x="543" y="316" type="curve"/>
      <point x="412" y="316"/>
      <point x="290" y="252"/>
      <point x="174" y="167" type="curve"/>
      <point x="174" y="145" type="line"/>
      <point x="299" y="233"/>
      <point x="428" y="293"/>
      <point x="543" y="293" type="curve"/>
      <point x="676" y="293"/>
      <point x="757" y="232"/>
      <point x="757" y="143" type="curve"/>
      <point x="757" y="33"/>
      <point x="630" y="-41"/>
      <point x="477" y="-39" type="curve"/>
      <point x="358" y="-41"/>
      <point x="245" y="3"/>
      <point x="170" y="43" type="curve"/>
      <point x="170" y="21" type="line"/>
      <point x="242" y="-20"/>
      <point x="348" y="-62"/>
      <point x="477" y="-62" type="curve"/>
    </contour>
    <contour>
      <point x="370" y="-218" type="line"/>
      <point x="370" y="-194" type="line"/>
      <point x="-20" y="-194" type="line"/>
      <point x="-20" y="-218" type="line"/>
    </contour>
    <contour>
      <point x="187" y="-204" type="line"/>
      <point x="187" y="469" type="line"/>
      <point x="-20" y="469" type="line"/>
      <point x="-20" y="446" type="line"/>
      <point x="162" y="446" type="line"/>
      <point x="162" y="-204" type="line"/>
    </contour>
  </outline>
</glyph>
<glyph name="amacron" format="1">
  <advance width="807"/>
  <unicode hex="0101"/>
  <outline>
    <contour>
      <point x="743" y="-11"/>
      <point x="771" y="0"/>
      <point x="794" y="18" type="curve"/>
      <point x="781" y="37" type="line"/>
      <point x="762" y="21"/>
      <point x="741" y="12"/>
      <point x="713" y="12" type="curve" smooth="yes"/>
      <point x="680" y="12"/>
      <point x="649" y="37"/>
      <point x="649" y="92" type="curve" smooth="yes"/>
      <point x="649" y="196" type="line" smooth="yes"/>
      <point x="649" y="297"/>
      <point x="574" y="366"/>
      <point x="416" y="366" type="curve" smooth="yes"/>
      <point x="316" y="366"/>
      <point x="214" y="346"/>
      <point x="105" y="309" type="curve"/>
      <point x="112" y="285" type="line"/>
      <point x="215" y="318"/>
      <point x="312" y="343"/>
      <point x="416" y="343" type="curve" smooth="yes"/>
      <point x="561" y="343"/>
      <point x="624" y="281"/>
      <point x="624" y="196" type="curve"/>
      <point x="624" y="92" type="line"/>
      <point x="624" y="27"/>
      <point x="661" y="-11"/>
      <point x="712" y="-11" type="curve" smooth="yes"/>
    </contour>
    <contour>
      <point x="398" y="-11"/>
      <point x="526" y="18"/>
      <point x="635" y="75" type="curve"/>
      <point x="635" y="97" type="line"/>
      <point x="521" y="43"/>
      <point x="396" y="12"/>
      <point x="287" y="12" type="curve" smooth="yes"/>
      <point x="177" y="12"/>
      <point x="116" y="42"/>
      <point x="116" y="94" type="curve" smooth="yes"/>
      <point x="116" y="151"/>
      <point x="197" y="185"/>
      <point x="329" y="185" type="curve" smooth="yes"/>
      <point x="443" y="185"/>
      <point x="550" y="170"/>
      <point x="635" y="152" type="curve"/>
      <point x="635" y="173" type="line"/>
      <point x="550" y="191"/>
      <point x="451" y="208"/>
      <point x="329" y="208" type="curve" smooth="yes"/>
      <point x="181" y="208"/>
      <point x="90" y="167"/>
      <point x="90" y="93" type="curve" smooth="yes"/>
      <point x="90" y="27"/>
      <point x="161" y="-11"/>
      <point x="287" y="-11" type="curve" smooth="yes"/>
    </contour>
    <contour>
      <point x="141" y="524" type="line"/>
      <point x="141" y="500" type="line"/>
      <point x="619" y="500" type="line"/>
      <point x="619" y="524" type="line"/>
    </contour>
    <contour>
      <point x="794" y="184" type="move" name="ogonek"/>
    </contour>
    <contour>
      <point x="287" y="155" type="move" name="bottom"/>
    </contour>
    <contour>
      <point x="385" y="532" type="move" name="top"/>
    </contour>
  </outline>
</glyph>
<glyph name="dcroat" format="1">
  <advance width="906"/>
  <unicode hex="0111"/>
  <outline>
    <contour>
      <point x="450" y="-14"/>
      <point x="572" y="50"/>
      <point x="688" y="133" type="curve"/>
      <point x="688" y="157" type="line"/>
      <point x="562" y="69"/>
      <point x="433" y="8"/>
      <point x="319" y="8" type="curve"/>
      <point x="185" y="8"/>
      <point x="106" y="70"/>
      <point x="106" y="158" type="curve"/>
      <point x="106" y="269"/>
      <point x="232" y="342"/>
      <point x="385" y="341" type="curve"/>
      <point x="503" y="342"/>
      <point x="617" y="298"/>
      <point x="692" y="258" type="curve"/>
      <point x="692" y="281" type="line"/>
      <point x="619" y="322"/>
      <point x="513" y="364"/>
      <point x="385" y="364" type="curve"/>
      <point x="220" y="364"/>
      <point x="81" y="287"/>
      <point x="81" y="158" type="curve"/>
      <point x="81" y="50"/>
      <point x="176" y="-14"/>
      <point x="319" y="-14" type="curve"/>
    </contour>
    <contour>
      <point x="794" y="-13"/>
      <point x="822" y="-2"/>
      <point x="846" y="16" type="curve"/>
      <point x="836" y="36" type="line"/>
      <point x="812" y="19"/>
      <point x="792" y="10"/>
      <point x="764" y="10" type="curve" smooth="yes"/>
      <point x="732" y="10"/>
      <point x="701" y="35"/>
      <point x="701" y="91" type="curve" smooth="yes"/>
      <point x="701" y="518" type="line"/>
      <point x="676" y="518" type="line"/>
      <point x="676" y="91" type="line" smooth="yes"/>
      <point x="676" y="25"/>
      <point x="712" y="-13"/>
      <point x="763" y="-13" type="curve" smooth="yes"/>
    </contour>
    <contour>
      <point x="821" y="412" type="line"/>
      <point x="821" y="434" type="line"/>
      <point x="383" y="434" type="line"/>
      <point x="383" y="412" type="line"/>
    </contour>
    <contour>
      <point x="692" y="495" type="line"/>
      <point x="692" y="518" type="line"/>
      <point x="492" y="518" type="line"/>
      <point x="492" y="495" type="line"/>
    </contour>
    <contour>
      <point x="536" y="-13" type="move" name="bottom"/>
    </contour>
    <contour>
      <point x="536" y="484" type="move" name="top"/>
    </contour>
    <contour>
      <point x="1055" y="471" type="move" name="topright"/>
    </contour>
    <contour>
      <point x="536" y="237" type="move" name="center"/>
    </contour>
  </outline>
</glyph>
